<svg width="98" height="92" viewBox="0 0 98 92" fill="none" xmlns="http://www.w3.org/2000/svg">
<path d="M47.0805 45.8997C47.0805 32.8714 36.417 22.4487 23.5402 22.4487C10.4623 22.4487 0 33.0718 0 45.8997C0 57.1241 8.04795 66.745 18.7115 68.9498C8.04795 71.1546 0 80.5751 0 91.9999H12.6755C12.6755 85.9869 17.7055 80.976 23.7415 80.976C29.7774 80.976 34.8074 85.9869 34.8074 91.9999H47.4829C47.4829 80.7755 39.435 71.1546 28.7714 68.9498C39.0326 66.745 47.0805 57.1241 47.0805 45.8997ZM23.5402 56.9237C17.5043 56.9237 12.4743 51.9128 12.4743 45.8997C12.4743 39.8866 17.5043 34.8757 23.5402 34.8757C29.5762 34.8757 34.6062 39.8866 34.6062 45.8997C34.6062 51.9128 29.5762 56.9237 23.5402 56.9237Z" fill="#FCFCFD"/>
<path d="M97.5814 0H84.9058C84.9058 6.01307 79.8759 11.024 73.8399 11.024C67.804 11.024 62.9752 6.01307 62.9752 0H50.2997C50.2997 11.2244 58.1464 20.6449 68.81 23.0501C58.3476 25.4553 50.2997 34.8758 50.2997 46.1002C50.2997 59.1285 60.9632 69.5512 73.8399 69.5512C86.7166 69.5512 97.3801 58.9281 97.3801 46.1002C97.3801 34.8758 89.5334 25.4553 78.8699 23.0501C89.7346 20.6449 97.5814 11.2244 97.5814 0ZM84.9058 45.8998C84.9058 51.9129 79.8759 56.9237 73.8399 56.9237C67.804 56.9237 62.774 51.9129 62.774 45.8998C62.774 39.8867 67.804 34.8758 73.8399 34.8758C79.8759 34.8758 84.9058 39.8867 84.9058 45.8998Z" fill="#FCFCFD"/>
</svg>
