<svg width="292" height="57" viewBox="0 0 292 57" fill="none" xmlns="http://www.w3.org/2000/svg">
<path d="M7.039 42.2976C4.99632 41.3928 3.52105 40.2619 2.38623 38.6785C1.25141 37.2083 0.570514 35.5119 0.457031 33.5893H9.30865C9.42213 34.6071 9.87606 35.3988 10.6704 36.0774C11.4648 36.7559 12.4862 36.9821 13.7345 36.9821C14.8693 36.9821 15.6637 36.7559 16.3446 36.3035C16.912 35.8512 17.2524 35.2857 17.2524 34.6071C17.2524 33.8155 16.7985 33.1369 15.8906 32.7976C14.9828 32.3452 13.621 32.0059 11.6918 31.4405C9.6491 30.9881 7.83338 30.4226 6.47159 29.8571C5.10981 29.2916 3.8615 28.5 2.84016 27.2559C1.81882 26.125 1.36489 24.5416 1.36489 22.5059C1.36489 20.8095 1.81882 19.3393 2.72668 17.9821C3.63454 16.625 4.99632 15.494 6.81204 14.7024C8.62776 13.9107 10.7839 13.4583 13.167 13.4583C16.7985 13.4583 19.749 14.3631 21.7917 16.1726C23.8344 17.9821 25.0827 20.3571 25.4231 23.4107H17.1389C17.0254 22.3928 16.5715 21.6012 15.7771 21.0357C14.9828 20.4702 14.0749 20.1309 12.8266 20.1309C11.8053 20.1309 11.0109 20.3571 10.4435 20.6964C9.87606 21.1488 9.6491 21.6012 9.6491 22.2797C9.6491 23.0714 10.103 23.75 11.0109 24.2024C11.9187 24.6547 13.2805 24.994 15.2097 25.4464C17.3659 26.0119 19.1816 26.5774 20.5434 27.0297C21.9052 27.5952 23.04 28.3869 24.1748 29.6309C25.1962 30.875 25.7636 32.4583 25.7636 34.494C25.7636 36.1905 25.3097 37.6607 24.2883 39.0178C23.3805 40.375 21.9052 41.3928 20.203 42.1845C18.3872 42.9762 16.3446 43.3155 13.9614 43.3155C11.3513 43.5416 9.08169 43.0893 7.039 42.2976Z" fill="white"/>
<path d="M31.2109 20.6964C32.4592 18.4345 34.1614 16.7381 36.431 15.494C38.7007 14.25 41.1973 13.6845 44.0344 13.6845C47.6658 13.6845 50.7298 14.5893 53.2264 16.5119C55.723 18.4345 57.3118 21.1488 58.1061 24.5417H48.5736C47.7793 22.2797 46.1905 21.2619 43.9209 21.2619C42.3321 21.2619 40.9703 21.9405 39.949 23.1845C38.9276 24.4286 38.4737 26.2381 38.4737 28.6131C38.4737 30.9881 38.9276 32.7976 39.949 34.0417C40.9703 35.2857 42.2186 35.9643 43.9209 35.9643C46.1905 35.9643 47.7793 34.8333 48.5736 32.6845H58.1061C57.3118 36.0774 55.723 38.7917 53.2264 40.7143C50.7298 42.6369 47.6658 43.6547 44.0344 43.6547C41.1973 43.6547 38.5872 43.0893 36.431 41.8452C34.2749 40.6012 32.4592 38.9047 31.2109 36.6428C29.9626 34.3809 29.3951 31.7797 29.3951 28.7262C29.3951 25.6726 30.076 22.9583 31.2109 20.6964Z" fill="white"/>
<path d="M75.6959 15.1548C77.2846 14.25 78.9869 13.7977 80.9161 13.7977V23.1846H78.4195C76.1498 23.1846 74.5611 23.637 73.4262 24.6548C72.2914 25.5596 71.724 27.256 71.724 29.631V43.0893H62.7589V14.0239H71.724V18.887C72.7453 17.3036 74.1071 16.0596 75.6959 15.1548Z" fill="white"/>
<path d="M112.464 30.7619H92.2642C92.3777 32.5714 92.9451 33.9286 93.9664 34.9464C94.9877 35.8512 96.236 36.4166 97.7113 36.4166C99.981 36.4166 101.456 35.5119 102.364 33.5893H111.897C111.443 35.5119 110.535 37.2083 109.287 38.7916C108.038 40.375 106.449 41.5059 104.52 42.4107C102.591 43.3155 100.435 43.7678 98.0518 43.7678C95.2147 43.7678 92.6046 43.2024 90.4485 41.9583C88.2923 40.7143 86.4766 39.0178 85.2283 36.7559C83.98 34.494 83.2991 31.8928 83.2991 28.8393C83.2991 25.7857 83.8665 23.1845 85.1148 20.9226C86.3631 18.6607 88.0653 16.9643 90.335 15.7202C92.6046 14.4762 95.1012 13.9107 98.0518 13.9107C100.889 13.9107 103.385 14.4762 105.542 15.7202C107.698 16.8512 109.4 18.5476 110.648 20.8095C111.897 22.9583 112.464 25.5595 112.464 28.5C112.691 28.9524 112.577 29.8571 112.464 30.7619ZM103.499 25.7857C103.499 24.2024 102.932 23.0714 101.91 22.1667C100.889 21.2619 99.527 20.8095 97.9383 20.8095C96.463 20.8095 95.2147 21.2619 94.1934 22.1667C93.172 23.0714 92.4911 24.3155 92.2642 25.8988H103.499V25.7857Z" fill="white"/>
<path d="M144.693 30.7619H124.493C124.607 32.5714 125.174 33.9286 126.195 34.9464C127.217 35.8512 128.465 36.4166 129.94 36.4166C132.21 36.4166 133.685 35.5119 134.593 33.5893H144.126C143.672 35.5119 142.764 37.2083 141.515 38.7916C140.267 40.375 138.678 41.5059 136.749 42.4107C134.82 43.3155 132.664 43.7678 130.281 43.7678C127.444 43.7678 124.834 43.2024 122.677 41.9583C120.521 40.7143 118.705 39.0178 117.457 36.7559C116.209 34.494 115.528 31.8928 115.528 28.8393C115.528 25.7857 116.095 23.1845 117.344 20.9226C118.592 18.6607 120.294 16.9643 122.564 15.7202C124.834 14.4762 127.33 13.9107 130.281 13.9107C133.118 13.9107 135.614 14.4762 137.77 15.7202C139.927 16.8512 141.629 18.5476 142.877 20.8095C144.126 22.9583 144.693 25.5595 144.693 28.5C144.806 28.9524 144.806 29.8571 144.693 30.7619ZM135.728 25.7857C135.728 24.2024 135.16 23.0714 134.139 22.1667C133.118 21.2619 131.756 20.8095 130.167 20.8095C128.692 20.8095 127.444 21.2619 126.422 22.1667C125.401 23.0714 124.72 24.3155 124.493 25.8988H135.728V25.7857Z" fill="white"/>
<path d="M175.56 17.0774C177.603 19.2262 178.624 22.2797 178.624 26.125V43.0893H169.773V27.2559C169.773 25.3333 169.319 23.75 168.297 22.7321C167.276 21.6012 165.914 21.1488 164.212 21.1488C162.51 21.1488 161.148 21.7143 160.127 22.7321C159.105 23.8631 158.651 25.3333 158.651 27.2559V43.0893H149.686V14.0238H158.651V17.869C159.559 16.625 160.808 15.6071 162.283 14.8155C163.872 14.0238 165.574 13.6845 167.503 13.6845C170.794 13.7976 173.518 14.8155 175.56 17.0774Z" fill="white"/>
<path d="M193.717 4.63696V43.2024H184.752V4.63696H193.717Z" fill="white"/>
<path d="M273.382 14.9286C274.971 14.1369 276.673 13.6845 278.715 13.6845C281.099 13.6845 283.255 14.25 285.297 15.494C287.227 16.7381 288.815 18.4345 289.95 20.6964C291.085 22.9583 291.652 25.5595 291.652 28.6131C291.652 31.5535 291.085 34.2678 289.95 36.5297C288.815 38.7916 287.227 40.6012 285.297 41.8452C283.368 43.0893 281.212 43.6547 278.715 43.6547C276.673 43.6547 274.857 43.2024 273.382 42.4107C271.793 41.619 270.658 40.4881 269.75 39.1309V57H260.785V14.0238H269.75V18.0952C270.658 16.8512 271.793 15.7202 273.382 14.9286ZM280.645 23.2976C279.396 22.0536 277.921 21.375 276.105 21.375C274.29 21.375 272.814 22.0536 271.566 23.2976C270.318 24.5416 269.75 26.3512 269.75 28.6131C269.75 30.875 270.318 32.5714 271.566 33.9285C272.814 35.1726 274.29 35.8512 276.105 35.8512C277.921 35.8512 279.396 35.1726 280.645 33.9285C281.893 32.5714 282.574 30.875 282.574 28.6131C282.574 26.3512 281.893 24.5416 280.645 23.2976Z" fill="white"/>
<path d="M226.968 56.7197H219.137C219.137 52.9875 216.073 49.9339 212.328 49.9339C208.584 49.9339 205.519 52.9875 205.519 56.7197H197.689C197.689 48.6899 204.271 42.1304 212.328 42.1304C220.386 42.1304 226.968 48.6899 226.968 56.7197Z" fill="#29F3DA"/>
<path d="M243.768 14.5893C235.711 14.5893 229.129 8.02976 229.129 0H236.959C236.959 3.73214 240.023 6.78571 243.768 6.78571C247.513 6.78571 250.577 3.73214 250.577 0H258.408C258.408 8.02976 251.826 14.5893 243.768 14.5893Z" fill="#29F3DA"/>
<path d="M212.328 43.0894C204.271 43.0894 197.689 36.5299 197.689 28.5002C197.689 20.4704 204.271 13.9109 212.328 13.9109C220.386 13.9109 226.968 20.4704 226.968 28.5002C226.968 36.5299 220.386 43.0894 212.328 43.0894ZM212.328 21.6014C208.584 21.6014 205.519 24.6549 205.519 28.3871C205.519 32.1192 208.584 35.1728 212.328 35.1728C216.073 35.1728 219.137 32.1192 219.137 28.3871C219.137 24.6549 216.073 21.6014 212.328 21.6014Z" fill="white"/>
<path d="M243.537 43.0894C235.479 43.0894 228.897 36.5299 228.897 28.5002C228.897 20.4704 235.479 13.9109 243.537 13.9109C251.594 13.9109 258.176 20.4704 258.176 28.5002C258.176 36.5299 251.594 43.0894 243.537 43.0894ZM243.537 21.6014C239.792 21.6014 236.728 24.6549 236.728 28.3871C236.728 32.1192 239.792 35.1728 243.537 35.1728C247.282 35.1728 250.346 32.1192 250.346 28.3871C250.346 24.6549 247.282 21.6014 243.537 21.6014Z" fill="white"/>
</svg>
