<svg width="250" height="122" viewBox="0 0 250 122" fill="none" xmlns="http://www.w3.org/2000/svg">
<g filter="url(#filter0_d)">
<rect x="20" y="16" width="210" height="82" rx="10" fill="#F5F9FD"/>
</g>
<path d="M165.878 52.6481C165.129 52.2812 164.311 52.0766 163.478 52.0479C160.777 51.9009 158.468 53.9713 158.319 56.6732H160.61C160.748 55.9451 161.131 55.2862 161.696 54.8066C162.204 54.4084 162.833 54.1965 163.478 54.2064C164.144 54.2121 164.791 54.4309 165.324 54.8306C166.27 55.5758 166.736 56.7772 166.538 57.9655H164.838C164.404 57.9655 163.946 57.9595 163.479 57.9655C162.53 57.9529 161.583 58.0662 160.664 58.3027C159.453 58.5654 158.458 59.426 158.023 60.5874C157.254 62.94 159.396 66.0399 163.001 65.9829C163.162 65.9829 163.322 65.975 163.479 65.9599C165.812 65.8493 167.834 64.3118 168.566 62.0938C168.946 60.894 169.118 59.6383 169.075 58.3807C169.203 56.0132 167.96 53.7827 165.878 52.6481ZM166.554 60.5803C166.382 62.223 165.116 63.5384 163.481 63.7712C163.239 63.8062 162.994 63.8238 162.749 63.8233C162.115 63.8635 161.487 63.6778 160.976 63.2992C160.254 62.7255 160.121 61.681 160.676 60.9446C161.445 60.2736 162.464 59.9623 163.476 60.0883C164.016 60.0883 164.535 60.1164 164.954 60.1164H166.621C166.608 60.2661 166.584 60.4232 166.554 60.5803Z" fill="#191919"/>
<path d="M181.473 54.5515C181.426 54.4584 181.373 54.3654 181.322 54.2743C181.271 54.1833 181.211 54.0902 181.157 54.0112V54.0052C180.868 53.575 180.502 53.2018 180.077 52.9049C179.996 52.8489 179.91 52.7939 179.822 52.7408C179.734 52.6879 179.645 52.6408 179.552 52.5918C179.265 52.4483 178.963 52.3373 178.652 52.2608C178.593 52.2456 178.527 52.2308 178.46 52.2167C178.036 52.1314 177.605 52.0894 177.172 52.0917H177.159C177.023 52.0917 176.889 52.0917 176.759 52.0996C176.46 52.1113 176.161 52.1407 175.865 52.1877C175.68 52.2179 175.496 52.2573 175.315 52.3058C175.148 52.3509 174.984 52.4068 174.824 52.4728H174.814C174.515 52.5958 174.233 52.7595 173.978 52.9589C173.838 53.0692 173.707 53.191 173.587 53.3229V47.5244H171.187V59.0276C171.178 60.0103 171.245 60.9921 171.387 61.9644C171.448 62.3713 171.549 62.7713 171.687 63.1587C171.814 63.5094 171.984 63.8431 172.192 64.152C172.61 64.7567 173.193 65.2281 173.871 65.5094C174.264 65.6745 174.676 65.7911 175.097 65.8566C175.604 65.9361 176.117 65.9743 176.63 65.9707H176.754C177.685 65.9879 178.605 65.7674 179.427 65.3295C179.789 65.1246 180.124 64.877 180.427 64.5924C180.72 64.316 180.975 64.0033 181.188 63.6621C181.4 63.3226 181.581 62.9647 181.729 62.5928C181.879 62.2139 181.996 61.8226 182.078 61.4235C182.148 61.09 182.203 60.7567 182.243 60.4232L182.265 60.2302C182.307 59.8379 182.329 59.4436 182.329 59.0488V59.0288C182.338 58.0773 182.245 57.1277 182.052 56.1961C181.931 55.6252 181.736 55.0724 181.473 54.5515ZM179.884 59.9529C179.857 60.259 179.817 60.5591 179.765 60.8532C179.716 61.1327 179.644 61.4076 179.549 61.6753C179.462 61.9233 179.353 62.1628 179.221 62.3905C179.098 62.6045 178.949 62.8027 178.777 62.9808C178.607 63.1563 178.417 63.3101 178.209 63.439C178.068 63.5269 177.917 63.599 177.759 63.654C177.678 63.683 177.593 63.7091 177.508 63.729C177.26 63.7898 177.006 63.8234 176.75 63.8291H176.636H176.625C176.331 63.8318 176.038 63.8057 175.749 63.7511C175.513 63.7074 175.284 63.6302 175.07 63.5221C174.796 63.3813 174.554 63.1832 174.363 62.941C174.328 62.898 174.292 62.847 174.256 62.7938C174.22 62.741 174.188 62.6939 174.156 62.6358C174.039 62.4231 173.945 62.1983 173.875 61.9656C173.794 61.6958 173.736 61.4198 173.7 61.1404C173.667 60.8943 173.639 60.6292 173.619 60.3482L173.608 60.1791C173.588 59.834 173.576 59.467 173.575 59.0838V59.0288C173.575 58.4759 173.596 57.9638 173.637 57.4924L173.663 57.2213C173.672 57.1343 173.683 57.0462 173.693 56.9613V56.9293C173.729 56.6495 173.787 56.3731 173.868 56.103C173.938 55.8706 174.032 55.6463 174.149 55.4339C174.297 55.1606 174.502 54.9221 174.749 54.7336C174.8 54.6956 174.849 54.6622 174.897 54.6335C174.946 54.6026 174.997 54.5716 175.054 54.5435H175.06C175.234 54.4554 175.418 54.3882 175.608 54.3435L175.737 54.3145C176.022 54.2602 176.312 54.2337 176.602 54.2355H176.615H176.739C176.995 54.2394 177.25 54.2652 177.501 54.3126C177.627 54.337 177.751 54.3687 177.873 54.4077C177.985 54.4437 178.095 54.4875 178.201 54.5387H178.208C178.619 54.739 178.966 55.0509 179.208 55.439C179.402 55.7485 179.547 56.0858 179.64 56.4393C179.659 56.5111 179.679 56.5893 179.697 56.6723C179.715 56.7554 179.731 56.8343 179.746 56.9175V56.9304C179.799 57.2325 179.838 57.5583 179.865 57.9077C179.892 58.2572 179.905 58.6297 179.905 59.0249C179.924 59.3391 179.91 59.6481 179.884 59.9523V59.9529H179.884Z" fill="#191919"/>
<path d="M197.709 61.3188C197.37 62.9415 195.82 64.014 194.182 63.7584C192.364 63.6425 190.983 62.0736 191.099 60.2541C191.104 60.1783 191.111 60.1027 191.121 60.0274H192.821C193.254 60.0274 193.713 60.0323 194.18 60.0274C195.131 60.0404 196.079 59.9267 197 59.6892C198.212 59.4266 199.206 58.566 199.64 57.4045C200.409 55.0529 198.268 51.953 194.663 52.0101C194.5 52.0101 194.341 52.02 194.185 52.0321C190.245 52.3322 188.457 55.5191 188.586 59.6122C188.698 63.135 190.846 65.7307 194.185 65.9339C194.437 65.9495 194.689 65.9515 194.941 65.9399C197.574 65.9528 199.775 63.9421 200 61.3186H197.709V61.3188ZM191.109 57.4177C191.263 56.358 191.836 55.4046 192.7 54.7729C192.765 54.73 192.828 54.6899 192.887 54.6568C192.946 54.6238 193.019 54.5818 193.087 54.5488C193.431 54.3798 193.802 54.2706 194.182 54.2257C194.425 54.1941 194.67 54.1786 194.914 54.1797C195.549 54.1394 196.177 54.3252 196.687 54.7037C197.406 55.2792 197.539 56.321 196.987 57.0583C196.218 57.7292 195.2 58.0402 194.187 57.9136C193.647 57.9136 193.127 57.8866 192.709 57.8866H191.041C191.054 57.7274 191.078 57.5734 191.109 57.4135V57.4177H191.109Z" fill="#191919"/>
<path d="M186.774 65.0874C186.748 64.9711 186.728 64.853 186.717 64.7342C186.693 64.4841 186.681 64.2174 186.681 63.934V47.5244H184.281V63.938C184.281 64.0651 184.281 64.1991 184.288 64.3382C184.295 64.4773 184.298 64.6072 184.307 64.7322C184.318 64.9069 184.338 65.0808 184.366 65.2535L184.383 65.3535L184.402 65.4535L184.409 65.4845L184.432 65.5956H186.94L186.867 65.4065C186.829 65.3024 186.798 65.1957 186.774 65.0874Z" fill="#191919"/>
<path d="M135.34 56.7293C135.324 56.6184 135.305 56.5012 135.285 56.3831V56.3582C135.189 55.7918 135.021 55.2401 134.785 54.7166C134.739 54.6165 134.691 54.5166 134.643 54.4285C134.595 54.3404 134.543 54.2414 134.487 54.1514L134.482 54.1424C134.076 53.4798 133.505 52.9347 132.825 52.5609C132.439 52.3477 132.023 52.1944 131.592 52.1057C131.085 52.0019 130.569 51.9519 130.051 51.9567C129.341 51.9432 128.634 52.0474 127.957 52.2649C127.842 52.3039 127.729 52.3498 127.617 52.398C127.506 52.4459 127.4 52.4979 127.301 52.5551H127.293C126.948 52.7464 126.627 52.9799 126.34 53.2502C126.062 53.5118 125.822 53.8096 125.624 54.1355C125.339 54.6131 125.12 55.1276 124.974 55.6649C124.947 55.7661 124.92 55.8766 124.892 55.9958C124.866 56.11 124.843 56.225 124.823 56.3379V56.351C124.765 56.6884 124.718 57.0328 124.683 57.3843L124.664 57.5843C124.629 57.9985 124.611 58.4246 124.61 58.8586V58.8858C124.61 59.4876 124.646 60.0888 124.719 60.6863C124.734 60.8063 124.748 60.9232 124.765 61.0363C124.781 61.1463 124.8 61.2634 124.82 61.3844V61.4104C124.888 61.8137 124.992 62.2104 125.129 62.5957C125.259 62.9591 125.424 63.3086 125.623 63.639C125.909 64.1102 126.282 64.5222 126.723 64.8523C126.808 64.9163 126.899 64.9803 126.996 65.0433C127.093 65.1065 127.196 65.1653 127.287 65.2195C127.605 65.3946 127.944 65.5289 128.295 65.6197C128.367 65.6386 128.44 65.6566 128.516 65.6726C129.015 65.7765 129.523 65.8267 130.032 65.8227H130.045C130.562 65.8273 131.079 65.7771 131.585 65.6726C132.017 65.5847 132.433 65.4317 132.819 65.2186C133.307 64.9517 133.743 64.598 134.105 64.1754C134.173 64.0933 134.239 64.0084 134.299 63.9233C134.359 63.8382 134.418 63.7503 134.475 63.6573C134.761 63.1779 134.98 62.6605 135.123 62.1208C135.153 62.0098 135.182 61.8968 135.207 61.7867C135.231 61.6767 135.255 61.5556 135.274 61.4416V61.4285C135.333 61.0878 135.379 60.7424 135.415 60.3922L135.433 60.1922C135.468 59.7802 135.487 59.359 135.487 58.9328V58.8988C135.488 58.2904 135.452 57.6825 135.379 57.0784C135.371 56.9584 135.357 56.8413 135.34 56.7293ZM133.065 60.0182C133.045 60.3673 133.014 60.6954 132.973 60.9984C132.926 61.3843 132.831 61.763 132.691 62.1258C132.665 62.1918 132.637 62.2538 132.61 62.3108C132.583 62.3678 132.552 62.4308 132.523 62.4818L132.517 62.4928C132.412 62.6832 132.279 62.8574 132.124 63.01C131.97 63.1596 131.794 63.2856 131.602 63.384C131.428 63.4726 131.244 63.5396 131.054 63.584L130.926 63.6123C130.641 63.6664 130.351 63.693 130.06 63.6912H130.047C129.754 63.694 129.46 63.6684 129.171 63.614C128.935 63.5701 128.707 63.4925 128.492 63.384C128.301 63.2859 128.126 63.1597 127.971 63.01C127.816 62.8572 127.684 62.6832 127.578 62.4928C127.461 62.2803 127.366 62.0556 127.296 61.8227C127.216 61.5528 127.157 61.2767 127.121 60.9975C127.08 60.6974 127.05 60.3673 127.029 60.0171C127.009 59.6671 126.999 59.2959 126.999 58.8988C126.999 58.5018 127.009 58.1276 127.03 57.7795C127.05 57.4305 127.083 57.1033 127.122 56.7993C127.159 56.5196 127.218 56.2433 127.299 55.973C127.369 55.7405 127.464 55.516 127.581 55.3039C127.687 55.1133 127.819 54.9391 127.974 54.7868C128.129 54.6371 128.304 54.5109 128.496 54.4128C128.633 54.3421 128.776 54.2851 128.925 54.2426C129.006 54.2197 129.087 54.1986 129.168 54.1827C129.454 54.128 129.745 54.1014 130.035 54.1037H130.05C130.452 54.0956 130.853 54.149 131.239 54.2618C131.302 54.2809 131.365 54.3047 131.425 54.3287C131.487 54.3527 131.544 54.3798 131.597 54.4069H131.603C131.795 54.5052 131.971 54.6312 132.126 54.781C132.281 54.9336 132.413 55.1078 132.519 55.298C132.689 55.6122 132.813 55.949 132.887 56.2983C132.904 56.3755 132.921 56.4533 132.934 56.5315C132.948 56.6095 132.961 56.6905 132.973 56.7765V56.7924C133.014 57.096 133.045 57.4229 133.065 57.7737C133.086 58.1245 133.097 58.4996 133.099 58.899C133.099 59.2965 133.089 59.6696 133.066 60.0183H133.065V60.0182Z" fill="#191919"/>
<path d="M121.477 52.3555H121.373L121.343 52.4545L118.279 62.6224L115.883 52.4626L115.858 52.3555H115.746H113.729H113.618L113.592 52.4626L111.196 62.6224L108.133 52.4545L108.103 52.3555H107.998H105.756H105.563L105.624 52.5387L109.884 65.3731L109.916 65.4691H110.016H112.209H112.315L112.343 65.3662L114.749 56.6587L117.133 65.3662L117.16 65.4691H117.266H119.459H119.559L119.591 65.374L123.877 52.5394L123.937 52.3555H123.745H121.477Z" fill="#191919"/>
<path d="M143.507 52.3171L143.299 52.31H143.189H143.018H142.899C142.199 52.2995 141.5 52.3761 140.818 52.5382C140.701 52.5681 140.588 52.6013 140.48 52.6382L140.412 52.6601C140.33 52.689 140.247 52.7201 140.165 52.7542H140.154C139.681 52.9423 139.241 53.2073 138.854 53.5384C138.786 53.5984 138.72 53.6615 138.654 53.7255C138.588 53.7896 138.533 53.8565 138.477 53.9255C138.282 54.1621 138.115 54.4199 137.977 54.6937C137.841 54.967 137.736 55.2549 137.664 55.552C137.605 55.7944 137.557 56.0399 137.522 56.2872L137.503 56.4281C137.467 56.7202 137.449 57.0141 137.448 57.3084V65.4666H139.848V57.3283C139.849 57.1841 139.859 57.0401 139.878 56.8973C139.898 56.7472 139.928 56.5852 139.969 56.4131C140.026 56.1759 140.118 55.9484 140.243 55.7389C140.27 55.6959 140.297 55.6509 140.324 55.6118C140.351 55.5728 140.381 55.5287 140.412 55.4878L140.418 55.4809C140.586 55.263 140.791 55.0765 141.023 54.9296C141.071 54.8986 141.123 54.8676 141.174 54.8376C141.225 54.8076 141.283 54.7776 141.336 54.7506C141.826 54.5329 142.359 54.4303 142.894 54.4505H142.999H143.104H143.193H143.264C143.399 54.4726 143.53 54.4726 143.646 54.4726C143.711 54.4807 143.775 54.4877 143.836 54.4916C143.905 54.4916 143.975 54.4976 144.043 54.4976H144.183V52.366L144.055 52.355C143.873 52.339 143.687 52.325 143.507 52.3171Z" fill="#191919"/>
<path d="M152.739 58.5511L156.797 52.5474L156.944 52.3304H156.682H154.115H154.04L154 52.3934L148.126 61.3248V47.5349V47.396H147.986H145.869H145.729V47.5349V65.329V65.4689H145.869H147.986H148.06L148.102 65.407L151.275 60.6946L154.423 65.407L154.465 65.4689H154.539H157.081H157.34L157.196 65.2518L152.739 58.5511Z" fill="#191919"/>
<path d="M79.164 58.5037C80.4797 56.4476 81.2517 54.091 81.408 51.6548C81.4466 49.7299 80.6237 47.8883 79.164 46.6334C75.207 43.3074 67.4141 45.083 67.5191 51.7577C67.5581 54.2774 68.7821 57.5393 71.961 61.4704C72.899 60.642 73.6379 59.613 74.123 58.4595C65.6799 46.9813 83.423 46.3562 74.5959 59.0826C73.9497 60.1065 73.1694 61.0394 72.276 61.8564C69.5229 64.4571 67.031 65.2733 64.856 64.9162C57.3099 63.6749 56.106 52.4127 55.5459 45.7138H50C50 45.7867 50 45.8627 50 45.9378V47.1911C50.2899 60.4817 59.693 78.9728 74.721 64.4289C75.5654 63.5948 76.3463 62.6987 77.057 61.7481C77.82 60.7077 78.5235 59.6244 79.164 58.5037Z" fill="#01766A"/>
<path d="M91.936 52.7262C90.923 60.5283 86.404 67.1302 79.5869 63.4951C79.4519 63.6821 79.3109 63.8642 79.165 64.0393C78.5153 64.8065 77.7838 65.5001 76.9829 66.1078C76.964 66.0962 76.9435 66.0875 76.9219 66.0818C77.6317 66.53 78.3829 66.9091 79.165 67.214C87.5809 70.4699 95.261 62.4237 96.001 52.3631L92.0459 52.186C91.9964 52.3632 91.9597 52.5439 91.936 52.7262Z" fill="#01766A"/>
<defs>
<filter id="filter0_d" x="0" y="0" width="250" height="122" filterUnits="userSpaceOnUse" color-interpolation-filters="sRGB">
<feFlood flood-opacity="0" result="BackgroundImageFix"/>
<feColorMatrix in="SourceAlpha" type="matrix" values="0 0 0 0 0 0 0 0 0 0 0 0 0 0 0 0 0 0 127 0"/>
<feOffset dy="4"/>
<feGaussianBlur stdDeviation="10"/>
<feColorMatrix type="matrix" values="0 0 0 0 0.0313726 0 0 0 0 0.141176 0 0 0 0 0.243137 0 0 0 0.2 0"/>
<feBlend mode="normal" in2="BackgroundImageFix" result="effect1_dropShadow"/>
<feBlend mode="normal" in="SourceGraphic" in2="effect1_dropShadow" result="shape"/>
</filter>
</defs>
</svg>
