<svg width="250" height="122" viewBox="0 0 250 122" fill="none" xmlns="http://www.w3.org/2000/svg">
<g filter="url(#filter0_d)">
<rect x="20" y="16" width="210" height="82" rx="10" fill="#F5F9FD"/>
</g>
<path d="M84.82 39.9244C84.645 40.3493 84.345 40.7492 83.9951 41.0492C80.6207 44.4486 77.2213 47.823 73.9218 51.2724C71.9722 53.322 69.8975 55.2967 67.9229 57.3463C65.2234 60.2208 62.3488 62.9204 59.6493 65.7699C56.7248 68.7944 53.7003 71.6939 50.8008 74.7683C50.6759 74.8683 50.6009 74.9683 50.5259 75.0933C50.151 75.0683 50.076 74.7683 50.026 74.4684C50.001 74.2934 50.001 74.0934 50.001 73.9185V65.7949C49.976 64.7201 50.4259 63.7202 51.1758 62.9704C52.8755 61.2207 54.6252 59.546 56.2999 57.7713C58.5995 55.3467 61.0241 53.0471 63.3237 50.6225C65.1234 48.7478 66.973 46.9232 68.7727 45.0735C70.7974 43.0238 72.797 40.9992 74.7967 38.9245C75.5466 38.1247 76.6464 37.8247 77.6962 38.0997C79.6209 38.4746 81.5705 38.8995 83.4952 39.2745C83.9951 39.3495 84.445 39.5744 84.82 39.9244Z" fill="#AFAFAF"/>
<path d="M86.2702 49.9229C85.0204 51.2477 83.6956 52.4974 82.4208 53.7722C81.9709 54.1971 81.546 54.6471 81.1461 55.122C80.7961 55.5219 80.3962 55.8719 79.9713 56.1968C77.8216 58.3464 75.672 60.4711 73.5474 62.6207C72.5476 63.6205 71.4477 64.5454 70.4729 65.5702C69.998 66.0701 69.5981 66.595 69.0981 67.0699C66.6486 69.3445 64.349 71.7941 61.9494 74.1187C61.2745 74.7436 60.3997 75.1185 59.4998 75.1435C56.7003 75.2935 53.9258 75.2435 51.1513 75.2435C50.9263 75.2435 50.6763 75.3185 50.5264 75.1435C50.6014 75.0185 50.6763 74.8936 50.8013 74.8186C53.7008 71.7441 56.7253 68.8696 59.6498 65.8201C62.3743 62.9706 65.2238 60.2711 67.9234 57.3966C69.873 55.322 71.9227 53.3723 73.9223 51.3226C77.2467 47.8732 80.6212 44.4988 83.9956 41.0994C84.3705 40.7995 84.6455 40.3995 84.8204 39.9746C85.3453 40.3745 85.6953 40.9494 85.7953 41.5993C86.0452 42.7741 86.1702 43.9989 86.4701 45.1487C86.6701 45.9486 86.7701 46.7484 86.97 47.5483C87.17 48.3981 86.8951 49.298 86.2702 49.9229Z" fill="#D9D9D9"/>
<path d="M196.375 63.0205C196.275 62.8705 196.15 62.7205 196.05 62.5705C195.8 62.1956 195.8 62.1456 196.225 62.0206C196.425 61.9706 196.625 61.8957 196.8 61.8207C197.675 61.4707 198.375 60.7958 198.725 59.921C199.6 57.9213 198.7 55.5967 196.7 54.7219C196.45 54.6219 196.175 54.5219 195.925 54.4719C195.275 54.347 194.626 54.272 193.976 54.272H189.526C188.927 54.272 188.927 54.272 188.927 54.8719V67.3697C188.927 68.1696 188.852 68.0946 189.676 68.0946H191.026C191.901 68.0946 191.801 68.1946 191.801 67.2947V62.8455C191.801 62.3956 191.951 62.3206 192.326 62.4705C192.701 62.5955 193.026 62.8455 193.226 63.1954C193.476 63.5204 193.726 63.8703 193.951 64.1953C194.726 65.3701 195.5 66.5698 196.275 67.7946C196.375 67.9696 196.475 68.1446 196.75 68.1446H200C198.75 66.3199 197.6 64.6202 196.375 63.0205ZM194.826 60.071C193.876 60.2709 192.926 60.3459 191.951 60.2709C191.726 60.2709 191.726 60.071 191.726 59.921V58.3713V56.8215C191.726 56.6216 191.776 56.4966 192.001 56.4966C192.876 56.4216 193.751 56.4716 194.601 56.6466C195.575 56.8465 196.225 57.7964 196.025 58.7712C196 58.9212 195.95 59.0961 195.875 59.2461C195.65 59.6211 195.275 59.946 194.826 60.071Z" fill="#434C4F"/>
<path d="M176.054 68.0693H168.131C167.456 68.0693 167.506 68.1443 167.506 67.4444V54.5467C167.506 54.2967 167.606 54.2217 167.831 54.2467H175.754C176.279 54.2467 176.279 54.2467 176.179 54.7716C176.129 55.1216 176.029 55.4965 175.979 55.8715C175.829 56.6713 175.829 56.5463 175.204 56.5463H170.755C170.505 56.5463 170.38 56.6213 170.38 56.8963V59.3708C170.38 59.6958 170.555 59.7208 170.83 59.7208H174.679C174.879 59.7208 174.979 59.7958 174.979 59.9957V61.6704C174.979 61.9204 174.879 61.9954 174.654 61.9954H170.93C170.455 61.9954 170.43 62.0204 170.43 62.4953V65.1448C170.43 65.6448 170.43 65.6448 170.98 65.6448H175.804C176.579 65.6448 176.504 65.5698 176.504 66.3446C176.504 66.7946 176.479 67.1945 176.504 67.6444C176.529 67.9943 176.379 68.0693 176.054 68.0693Z" fill="#424A4D"/>
<path d="M132.836 68.0693H125.013C124.513 68.0693 124.513 68.0693 124.513 67.5444V54.5466C124.513 54.3217 124.613 54.2467 124.813 54.2717H132.936C133.161 54.2717 133.286 54.3467 133.236 54.5966C133.136 55.1465 133.036 55.6964 132.936 56.2463C132.886 56.5463 132.661 56.5463 132.436 56.5463H128.462C127.387 56.5463 127.387 56.5463 127.387 57.6211V59.2208C127.387 59.6957 127.412 59.7207 127.887 59.7207H131.287C132.036 59.7207 131.986 59.6957 131.986 60.3956C131.986 60.8205 131.961 61.2205 131.986 61.6454C131.986 61.9454 131.886 62.0203 131.611 62.0203H128.162C127.462 62.0203 127.462 62.0203 127.462 62.6952V64.9948C127.462 65.6947 127.462 65.6947 128.187 65.6947H132.936C133.486 65.6947 133.486 65.6947 133.486 66.2696V67.4444C133.486 68.1193 133.561 68.0693 132.836 68.0693Z" fill="#424A4D"/>
<path d="M156.732 54.2468C156.257 55.3966 155.882 56.4714 155.457 57.5212C154.157 60.8456 152.858 64.1701 151.558 67.4945C151.508 67.6195 151.458 67.7194 151.408 67.8444C151.358 68.0694 151.158 68.2193 150.933 68.1693C150.933 68.1693 150.933 68.1693 150.908 68.1693C150.308 68.1444 149.733 68.1444 149.108 68.1693C148.758 68.1943 148.608 68.0694 148.483 67.7194C147.933 66.2197 147.358 64.7449 146.784 63.2702C145.709 60.4457 144.634 57.6462 143.559 54.8467C143.459 54.6967 143.434 54.4967 143.409 54.3218C143.509 54.1718 143.684 54.2468 143.834 54.2468H146.134C146.409 54.1968 146.659 54.3967 146.709 54.6717C146.959 55.4466 147.259 56.1964 147.508 56.9463C148.233 58.9959 149.033 60.9956 149.633 63.0952C149.708 63.3952 149.808 63.6951 149.858 63.9951C149.883 64.0951 149.908 64.245 150.083 64.27C150.233 63.9451 150.358 63.5951 150.408 63.2202C150.958 61.2705 151.808 59.3709 152.508 57.4712C152.833 56.5214 153.232 55.6215 153.557 54.7217C153.607 54.4217 153.907 54.2468 154.182 54.2968C154.982 54.2718 155.782 54.2468 156.732 54.2468Z" fill="#434C4F"/>
<path d="M85.9696 75.1185C85.7446 75.1935 85.5196 75.2185 85.2947 75.1935H70.3223C70.0473 75.2185 69.7724 75.1685 69.5224 75.1185C69.1725 74.9685 69.0725 74.7686 69.3224 74.4436C69.4224 74.3186 69.5474 74.1937 69.6474 74.0937C71.2471 72.5939 72.7968 71.0692 74.4216 69.6195C75.1964 68.9196 75.9213 68.1447 76.7462 67.4948C77.2461 66.9949 78.0459 66.9449 78.5958 67.3948C78.7458 67.4698 78.8708 67.5948 78.9708 67.6948C80.5455 69.1695 82.0702 70.6443 83.67 72.094C84.4448 72.7939 85.1447 73.5188 85.9446 74.1937C86.0445 74.2686 86.1195 74.3686 86.1945 74.4686C86.3945 74.7936 86.3195 74.9685 85.9696 75.1185Z" fill="#AFAFAF"/>
<path d="M112.915 66.0699C112.765 66.6198 112.665 67.1447 112.54 67.6946C112.515 67.9196 112.315 68.0946 112.09 68.0946H112.065H104.742C104.367 68.0946 104.367 68.0696 104.367 67.5947V54.8969C104.367 54.272 104.292 54.272 104.991 54.272H106.891C107.166 54.272 107.266 54.372 107.241 54.6219V65.2701C107.266 65.695 107.266 65.72 107.716 65.72H112.54C112.89 65.67 112.965 65.82 112.915 66.0699Z" fill="#444D50"/>
<defs>
<filter id="filter0_d" x="0" y="0" width="250" height="122" filterUnits="userSpaceOnUse" color-interpolation-filters="sRGB">
<feFlood flood-opacity="0" result="BackgroundImageFix"/>
<feColorMatrix in="SourceAlpha" type="matrix" values="0 0 0 0 0 0 0 0 0 0 0 0 0 0 0 0 0 0 127 0"/>
<feOffset dy="4"/>
<feGaussianBlur stdDeviation="10"/>
<feColorMatrix type="matrix" values="0 0 0 0 0.0313726 0 0 0 0 0.141176 0 0 0 0 0.243137 0 0 0 0.2 0"/>
<feBlend mode="normal" in2="BackgroundImageFix" result="effect1_dropShadow"/>
<feBlend mode="normal" in="SourceGraphic" in2="effect1_dropShadow" result="shape"/>
</filter>
</defs>
</svg>
