<svg width="250" height="122" viewBox="0 0 250 122" fill="none" xmlns="http://www.w3.org/2000/svg">
<g filter="url(#filter0_d)">
<rect x="20" y="16" width="210" height="82" rx="10" fill="#F5F9FD"/>
</g>
<path d="M138.769 46.7192C133.119 46.7192 128.543 51.3005 128.543 56.9402C128.543 62.5957 133.104 67.177 138.753 67.177C144.403 67.177 148.979 62.6115 148.979 56.956C148.979 51.3005 144.403 46.7192 138.769 46.7192ZM143.077 61.2845C140.679 63.6699 136.796 63.6699 134.414 61.2687C132.031 58.8833 132.031 54.9971 134.414 52.5959C136.796 50.1947 140.679 50.1947 143.077 52.5801L143.093 52.5959C145.492 54.9971 145.476 58.8833 143.077 61.2845Z" fill="#4A8CFF"/>
<path d="M126.491 63.1328L125.465 63.0854H116.281L128.542 50.8108L128.495 49.784C128.448 48.141 127.122 46.814 125.481 46.7666L124.455 46.7192H109.132L109.179 47.7461C109.258 49.3732 110.552 50.6844 112.193 50.7634L113.219 50.8108H122.419L110.158 63.0854L110.205 64.1123C110.252 65.7552 111.578 67.0822 113.219 67.1296L114.245 67.177H129.568L129.521 66.1502C129.379 64.4598 128.18 63.2276 126.491 63.1328Z" fill="#4A8CFF"/>
<path d="M191.887 46.7189C189.536 46.7189 187.311 47.73 185.764 49.4835C183.05 46.403 178.458 45.8027 175.065 48.1091C174.276 47.2086 172.493 46.7031 171.467 46.7031V67.1609L172.493 67.1135C174.197 67.0029 175.444 65.8023 175.507 64.0961L175.554 63.0693V55.9131L175.601 54.8862C175.601 54.1753 175.791 53.4802 176.106 52.8325C177.227 50.8737 179.72 50.2102 181.677 51.3476C182.293 51.7109 182.813 52.2164 183.161 52.8325H183.145C183.476 53.4644 183.65 54.1753 183.65 54.8862L183.697 55.9131V63.0693L183.744 64.0961C183.808 65.7391 185.117 67.0503 186.743 67.1135L187.769 67.1609V55.9131L187.816 54.8862C187.816 54.1595 187.99 53.4644 188.321 52.8325C189.457 50.8737 191.966 50.2102 193.907 51.3634C194.523 51.7267 195.044 52.2322 195.391 52.8483C195.706 53.4802 195.88 54.1911 195.88 54.902L195.927 55.9289V63.0851L195.975 64.1119C196.022 65.7549 197.348 67.0661 198.973 67.1293L199.999 67.1767V54.902C200.062 50.3839 196.401 46.7189 191.887 46.7189Z" fill="#4A8CFF"/>
<path d="M167.443 49.7046C165.533 47.7932 162.93 46.7031 160.215 46.7031C157.501 46.7031 154.913 47.7774 152.987 49.7046C149.011 53.7014 149.011 60.1784 153.003 64.1751C156.996 68.1561 163.466 68.1561 167.459 64.1593C171.451 60.1784 171.435 53.7014 167.443 49.7046ZM164.539 61.2842C162.14 63.6696 158.258 63.6696 155.875 61.2684C153.492 58.883 153.492 54.9968 155.875 52.5956C158.258 50.1944 162.14 50.1944 164.539 52.5798L164.555 52.5956C166.954 54.9968 166.938 58.883 164.539 61.2842Z" fill="#4A8CFF"/>
<path d="M75.913 80.4624C88.8905 80.4624 99.4109 69.931 99.4109 56.9399C99.4109 43.9488 88.8905 33.4175 75.913 33.4175C62.9354 33.4175 52.415 43.9488 52.415 56.9399C52.415 69.931 62.9354 80.4624 75.913 80.4624Z" fill="#4A8CFF"/>
<path d="M75.9125 82.8789C90.2235 82.8789 101.825 71.2654 101.825 56.9395C101.825 42.6135 90.2235 31 75.9125 31C61.6014 31 50 42.6135 50 56.9395C50 71.2654 61.6014 82.8789 75.9125 82.8789Z" stroke="#DBDBDB" stroke-width="2" stroke-miterlimit="10"/>
<path d="M83.0778 53.8751L89.7216 49.0095C90.3055 48.5356 90.7474 48.6461 90.7474 49.515V64.3331C90.7474 65.3125 90.195 65.2019 89.7216 64.8386L83.0778 59.973V53.8751ZM60.5898 49.5624V60.6049C60.6056 63.1009 62.6414 65.1229 65.1348 65.1071H81.2314C81.6891 65.1071 82.052 64.7438 82.0678 64.2857V53.2432C82.052 50.7472 80.0163 48.7251 77.5229 48.7409H61.4262C60.9686 48.7409 60.6056 49.1043 60.5898 49.5624Z" fill="white"/>
<defs>
<filter id="filter0_d" x="0" y="0" width="250" height="122" filterUnits="userSpaceOnUse" color-interpolation-filters="sRGB">
<feFlood flood-opacity="0" result="BackgroundImageFix"/>
<feColorMatrix in="SourceAlpha" type="matrix" values="0 0 0 0 0 0 0 0 0 0 0 0 0 0 0 0 0 0 127 0"/>
<feOffset dy="4"/>
<feGaussianBlur stdDeviation="10"/>
<feColorMatrix type="matrix" values="0 0 0 0 0.0313726 0 0 0 0 0.141176 0 0 0 0 0.243137 0 0 0 0.2 0"/>
<feBlend mode="normal" in2="BackgroundImageFix" result="effect1_dropShadow"/>
<feBlend mode="normal" in="SourceGraphic" in2="effect1_dropShadow" result="shape"/>
</filter>
</defs>
</svg>
