<svg width="250" height="122" viewBox="0 0 250 122" fill="none" xmlns="http://www.w3.org/2000/svg">
<g filter="url(#filter0_d)">
<rect x="20" y="16" width="210" height="82" rx="10" fill="#F5F9FD"/>
</g>
<path d="M148.509 48.9992C144.56 48.9742 141.36 52.1736 141.36 56.098C141.336 60.0473 144.535 63.2468 148.459 63.2468C152.409 63.2718 155.608 60.0723 155.608 56.148C155.633 52.2236 152.484 49.0242 148.559 48.9992C148.559 48.9992 148.534 48.9992 148.509 48.9992ZM148.509 61.597C145.485 61.5721 143.06 59.1225 143.06 56.098C143.085 53.0735 145.535 50.6489 148.559 50.6489C151.584 50.6739 154.008 53.1235 154.008 56.148C153.983 59.1725 151.534 61.597 148.509 61.597Z" fill="#24B4A6"/>
<path d="M105.216 56.1976V55.7477C105.216 54.5229 104.916 53.2981 104.316 52.2233C103.641 50.9485 102.466 49.9737 101.092 49.5488C100.167 49.2738 99.192 49.1738 98.2172 49.2988C97.1674 49.3738 96.1675 49.7737 95.3427 50.3986C93.393 51.8984 92.3432 54.298 92.5681 56.7475C92.7181 58.3223 93.368 59.772 94.4428 60.9219C95.4676 62.0717 96.8924 62.7965 98.4171 62.9465C99.267 63.0465 100.117 62.9965 100.942 62.8465C101.942 62.6466 102.891 62.2466 103.716 61.6467C104.016 61.4218 104.266 61.1718 104.516 60.8969C104.766 60.6219 104.716 60.197 104.441 59.947C104.416 59.922 104.391 59.897 104.366 59.897C104.041 59.6471 103.591 59.6971 103.316 59.997C102.866 60.5219 102.266 60.9218 101.592 61.1468C100.642 61.5467 99.5919 61.6717 98.5671 61.4968C97.4173 61.3718 96.3675 60.8219 95.5926 59.997C94.7678 59.0722 94.2428 57.9473 94.0929 56.7226C94.0679 56.5726 94.0679 56.4226 94.0929 56.2726H105.241L105.216 56.1976ZM94.3428 54.348C94.6178 53.4481 95.1177 52.6232 95.7926 51.9734C96.5175 51.2985 97.4673 50.8985 98.4671 50.8235C99.117 50.7486 99.7919 50.7985 100.442 50.9735C101.442 51.2235 102.291 51.8484 102.866 52.6982C103.266 53.2981 103.541 53.973 103.666 54.6729C103.666 54.7479 103.691 54.8229 103.716 54.8729H94.2928C94.2428 54.6729 94.2678 54.4979 94.3428 54.348Z" fill="#24B4A6"/>
<path d="M87.5939 52.1233C86.944 50.9485 85.8692 50.0487 84.5694 49.6488C83.6196 49.3738 82.6198 49.2738 81.6449 49.3488C80.8201 49.4238 79.9952 49.6738 79.2703 50.0987C78.1205 50.7486 77.2207 51.7234 76.6958 52.9232C76.0709 54.173 75.8209 55.5728 75.9959 56.9475C76.1459 58.2473 76.6458 59.4971 77.4456 60.5219C78.4705 61.9217 80.0452 62.8215 81.7699 62.9965C82.6198 63.0965 83.4696 63.0465 84.2945 62.8965C85.3443 62.7216 86.3441 62.2716 87.169 61.5968C87.419 61.3968 87.6689 61.1468 87.8689 60.8969C88.1188 60.5719 88.0689 60.097 87.7439 59.847C87.7439 59.847 87.7189 59.847 87.7189 59.822C87.419 59.5721 86.969 59.6221 86.7191 59.922C86.3441 60.347 85.8692 60.6969 85.3693 60.9219C84.3195 61.4218 83.1447 61.5968 81.9949 61.4218C80.8451 61.2968 79.7952 60.7469 79.0204 59.922C78.1705 58.9722 77.6456 57.7974 77.5206 56.5476V56.1977H88.6188V56.1227C88.6688 54.7229 88.3188 53.3231 87.5939 52.1233ZM77.6206 54.7479C77.6206 54.6479 77.6706 54.5979 77.6706 54.4979C77.8956 53.6231 78.3455 52.7982 78.9704 52.1233C79.6453 51.3985 80.5451 50.9235 81.545 50.8236C82.2448 50.7236 82.9697 50.7236 83.6696 50.8736C84.7194 51.1235 85.6443 51.7484 86.2442 52.6483C86.6441 53.2482 86.919 53.923 87.044 54.6229V54.7229H77.6206V54.7479Z" fill="#24B4A6"/>
<path d="M199.05 59.7975C198.751 59.5475 198.301 59.5975 198.051 59.8975C197.676 60.3224 197.226 60.6473 196.751 60.8973C195.701 61.3972 194.526 61.5972 193.376 61.4472C192.102 61.2972 190.927 60.6723 190.102 59.6725C189.402 58.8477 188.977 57.8228 188.852 56.748C188.802 56.548 188.802 56.3481 188.802 56.1481H200C200 55.7732 200 55.3732 199.95 54.9983C199.825 53.8485 199.425 52.7487 198.801 51.7738C198.076 50.699 197.026 49.8992 195.776 49.4992C194.851 49.2493 193.901 49.1993 192.952 49.2993C192.002 49.3992 191.102 49.7242 190.327 50.2491C189.302 50.974 188.477 51.9738 187.952 53.1236C187.427 54.2984 187.227 55.5732 187.352 56.848C187.527 58.3977 188.227 59.8475 189.327 60.9723C190.352 62.0721 191.752 62.747 193.251 62.872C194.051 62.972 194.851 62.922 195.626 62.772C196.626 62.597 197.576 62.1971 198.401 61.5722C198.701 61.3222 199 61.0723 199.25 60.7723C199.45 60.4724 199.375 60.0225 199.05 59.7975ZM188.977 54.6484C189.227 53.4985 189.877 52.4737 190.802 51.7238C191.502 51.1739 192.352 50.849 193.226 50.774C193.976 50.724 194.726 50.774 195.451 50.974C196.351 51.2739 197.101 51.8488 197.626 52.6487C198.026 53.2486 198.301 53.9235 198.426 54.6234V54.7733H189.052C188.977 54.7483 188.977 54.6983 188.977 54.6484Z" fill="#24B4A6"/>
<path d="M136.836 54.4482V61.897C136.836 61.997 136.836 62.097 136.786 62.1969C136.686 62.5469 136.336 62.7968 135.986 62.7468C135.636 62.6969 135.361 62.3969 135.336 62.047V54.9981C135.361 54.3233 135.261 53.6234 135.036 52.9735C134.661 51.7987 133.636 50.9488 132.412 50.7989C131.587 50.6239 130.712 50.7239 129.937 51.0488C128.762 51.5487 127.862 52.5736 127.512 53.8233C127.462 53.9233 127.462 54.0483 127.462 54.1733V62.047C127.462 62.4219 127.163 62.7468 126.788 62.7468H126.763C126.388 62.7468 126.063 62.4719 126.013 62.097V44.5999C126.088 44.25 126.413 44 126.763 44C127.138 44 127.437 44.275 127.462 44.6499V51.2988H127.512C127.512 51.2488 127.562 51.2488 127.562 51.1988C128.437 50.174 129.687 49.4991 131.037 49.3241C131.862 49.2241 132.712 49.2741 133.511 49.5241C135.111 49.974 136.336 51.2988 136.636 52.9485C136.761 53.4484 136.836 53.9483 136.836 54.4482Z" fill="#24B4A6"/>
<path d="M57.4493 63.0216C53.375 62.9716 50.0506 66.221 50.0006 70.2703C49.9506 74.3447 53.2 77.6691 57.2494 77.7191C61.3237 77.7691 64.6481 74.5196 64.6981 70.4703C64.6981 70.4453 64.6981 70.3953 64.6981 70.3703C64.7481 66.346 61.5236 63.0466 57.4993 63.0216C57.4993 63.0216 57.4743 63.0216 57.4493 63.0216ZM57.3493 76.3693C54.0249 76.3193 51.4003 73.5948 51.4503 70.2703C51.5003 66.9459 54.2249 64.3213 57.5493 64.3713C60.8487 64.4213 63.4733 67.1209 63.4483 70.4203C63.3983 73.7448 60.6738 76.3943 57.3493 76.3693Z" fill="#24B4A6"/>
<path d="M120.439 61.9474C120.464 62.3223 120.214 62.6723 119.839 62.7472C119.439 62.8222 119.064 62.5723 118.989 62.1723C118.989 62.1473 118.989 62.1223 118.989 62.0973V55.0985C119.014 54.4236 118.914 53.7737 118.739 53.1239C118.514 52.274 117.939 51.5741 117.189 51.1492C116.814 50.9742 116.389 50.8492 115.99 50.7993C115.215 50.6743 114.415 50.7743 113.665 51.0492C112.44 51.5491 111.49 52.5989 111.14 53.8737C111.09 53.9737 111.09 54.0737 111.09 54.1737V62.1473C111.04 62.5223 110.715 62.7722 110.341 62.7472C109.966 62.7472 109.641 62.4473 109.641 62.0724V62.0474V50.1993C109.666 49.7994 109.991 49.4995 110.39 49.4995C110.79 49.4995 111.09 49.7994 111.09 50.1993C111.09 50.2243 111.09 50.2493 111.09 50.2493V51.3492L111.24 51.1992C112.115 50.1993 113.34 49.5495 114.665 49.3745C115.54 49.2495 116.439 49.3495 117.289 49.6244C118.814 50.0994 119.939 51.3492 120.264 52.8989C120.364 53.3738 120.414 53.8237 120.414 54.2987C120.439 56.8732 120.439 59.4228 120.439 61.9474Z" fill="#24B4A6"/>
<path d="M170.83 61.8971V62.1471C170.755 62.497 170.43 62.747 170.08 62.747C169.705 62.747 169.405 62.472 169.38 62.0971V60.9973H169.331C169.281 61.0473 169.231 61.0973 169.231 61.1473C168.406 62.1471 167.231 62.772 165.956 62.922C165.106 63.0719 164.206 63.022 163.382 62.772C161.757 62.3471 160.507 61.0473 160.157 59.3976C160.057 58.8976 160.007 58.3977 160.007 57.8978V50.3991C159.982 50.1241 160.107 49.8742 160.307 49.6992C160.507 49.5242 160.807 49.4742 161.057 49.5992C161.307 49.6992 161.482 49.9242 161.507 50.1991V57.3479C161.507 58.0228 161.607 58.7227 161.807 59.3726C162.182 60.4974 163.157 61.2972 164.331 61.4972C165.206 61.6722 166.131 61.5722 166.956 61.2473C168.131 60.7223 169.031 59.6725 169.331 58.4227C169.381 58.2978 169.38 58.1978 169.38 58.0728V50.0991C169.48 49.7492 169.83 49.4992 170.18 49.5492C170.53 49.5992 170.805 49.8992 170.83 50.2491V50.3991C170.83 54.1984 170.83 58.0728 170.83 61.8971Z" fill="#24B4A6"/>
<path d="M56.0988 49.4995C52.7494 49.4995 50.0498 52.1991 50.0498 55.5485C50.0498 58.8979 52.7494 61.5975 56.0988 61.5975C59.4482 61.5975 62.1478 58.8979 62.1478 55.5485C62.1228 52.2241 59.4232 49.5245 56.0988 49.4995ZM56.0988 60.2477C53.4992 60.2227 51.3996 58.1231 51.3996 55.4985C51.4246 52.8989 53.5242 50.7993 56.1488 50.7993C58.7483 50.8243 60.848 52.9239 60.848 55.5485C60.798 58.1481 58.6983 60.2477 56.0988 60.2477Z" fill="#24B4A6"/>
<path d="M182.878 62.1463C182.278 62.5462 181.578 62.7962 180.853 62.8962C180.553 62.9462 180.203 62.9462 180.053 62.9961C179.003 63.0461 177.978 62.7712 177.079 62.2463C176.404 61.8463 175.879 61.2714 175.529 60.5716C175.429 60.3466 175.379 60.0966 175.429 59.8717C175.529 59.4717 175.929 59.2218 176.329 59.3218C176.454 59.3468 176.554 59.3968 176.654 59.4717C176.804 59.5467 176.904 59.6717 176.954 59.8217C177.453 60.7965 178.428 61.4464 179.528 61.5464C180.278 61.6464 181.028 61.4964 181.703 61.1465C181.928 61.0465 182.153 60.8965 182.303 60.6965C182.903 60.1466 183.077 59.2718 182.703 58.5219C182.528 58.147 182.253 57.822 181.903 57.5721C181.403 57.2221 180.828 56.9472 180.228 56.7722C179.778 56.6222 179.378 56.5222 178.928 56.3723C178.228 56.1223 177.578 55.7474 177.029 55.2724C176.404 54.6725 176.029 53.8727 175.979 52.9978C175.929 52.4979 175.979 51.998 176.129 51.5481C176.454 50.7232 177.104 50.0483 177.953 49.7234C178.728 49.3734 179.578 49.2485 180.428 49.3734C181.128 49.4234 181.803 49.6734 182.403 50.0733C182.953 50.4732 183.402 50.9732 183.702 51.5731C183.802 51.748 183.802 51.948 183.752 52.123C183.677 52.3979 183.452 52.6229 183.152 52.6729C182.853 52.6979 182.553 52.5729 182.403 52.3229C182.353 52.2729 182.353 52.223 182.303 52.173C181.928 51.4481 181.203 50.9232 180.403 50.8232C179.828 50.7482 179.278 50.7982 178.728 51.0232C177.828 51.3231 177.303 52.2729 177.603 53.1978C177.603 53.2228 177.603 53.2228 177.628 53.2478C177.753 53.7227 178.003 54.1476 178.378 54.4476C178.803 54.7975 179.303 55.0475 179.828 55.1975C180.278 55.3474 180.728 55.4474 181.178 55.5974C181.828 55.7974 182.428 56.0973 182.953 56.4972C183.702 57.0222 184.177 57.822 184.302 58.7219C184.627 60.0466 184.052 61.4464 182.878 62.1463Z" fill="#24B4A6"/>
<path d="M73.7721 50.524C73.6721 50.924 73.2721 51.1739 72.8722 51.1239C72.4723 51.049 72.0723 50.999 71.6724 51.024C70.3476 51.1239 69.1978 51.8988 68.5479 53.0486C68.298 53.4486 68.198 53.8985 68.198 54.3484V61.8971C68.198 62.0221 68.198 62.1471 68.148 62.2471C68.023 62.572 67.7231 62.772 67.3981 62.747C67.0482 62.747 66.7482 62.497 66.6982 62.1471V50.3741C66.6982 50.2491 66.6982 50.1241 66.7482 50.0241C66.8482 49.6742 67.1982 49.4742 67.5481 49.5242C67.898 49.5742 68.173 49.8742 68.198 50.2241V51.3739H68.248L68.398 51.2239C69.0728 50.3991 70.0227 49.7992 71.0725 49.5492C71.7974 49.4242 72.5223 49.4242 73.2471 49.5992C73.6221 49.6992 73.872 50.0991 73.7721 50.524Z" fill="#24B4A6"/>
<path d="M62.1988 47.9498C62.1988 48.6497 61.6239 49.1996 60.949 49.1996C60.2741 49.1996 59.6992 48.6247 59.6992 47.9498C59.6992 47.2499 60.2741 46.7 60.949 46.7C61.6239 46.675 62.1738 47.2249 62.1988 47.9498C62.1988 47.9248 62.1988 47.9248 62.1988 47.9498Z" fill="#24B4A6"/>
<defs>
<filter id="filter0_d" x="0" y="0" width="250" height="122" filterUnits="userSpaceOnUse" color-interpolation-filters="sRGB">
<feFlood flood-opacity="0" result="BackgroundImageFix"/>
<feColorMatrix in="SourceAlpha" type="matrix" values="0 0 0 0 0 0 0 0 0 0 0 0 0 0 0 0 0 0 127 0"/>
<feOffset dy="4"/>
<feGaussianBlur stdDeviation="10"/>
<feColorMatrix type="matrix" values="0 0 0 0 0.0313726 0 0 0 0 0.141176 0 0 0 0 0.243137 0 0 0 0.2 0"/>
<feBlend mode="normal" in2="BackgroundImageFix" result="effect1_dropShadow"/>
<feBlend mode="normal" in="SourceGraphic" in2="effect1_dropShadow" result="shape"/>
</filter>
</defs>
</svg>
