<svg width="40" height="39" viewBox="0 0 40 39" fill="none" xmlns="http://www.w3.org/2000/svg">
<rect y="0.27002" width="40" height="37.8378" rx="5" fill="#F5F9FD"/>
<g clip-path="url(#clip0)">
<path d="M15 20.135C16.3807 20.135 17.5 19.0762 17.5 17.7701C17.5 16.4641 16.3807 15.4053 15 15.4053C13.6193 15.4053 12.5 16.4641 12.5 17.7701C12.5 19.0762 13.6193 20.135 15 20.135Z" fill="#FFA726"/>
<path d="M10 24.2502C10 24.2502 11.4 21.2705 15 21.2705C18.6 21.2705 20 24.2502 20 24.2502V25.811H10V24.2502Z" fill="#D0CDFF"/>
<path d="M32 24.2502C32 24.2502 30.6 21.2705 27 21.2705C23.4 21.2705 22 24.2502 22 24.2502V25.811H32V24.2502Z" fill="#D0CDFF"/>
<path d="M21 18.7162C22.6569 18.7162 24 17.4457 24 15.8784C24 14.3111 22.6569 13.0405 21 13.0405C19.3431 13.0405 18 14.3111 18 15.8784C18 17.4457 19.3431 18.7162 21 18.7162Z" fill="#FFAD62"/>
<path d="M27 23.9662C27 23.9662 25.35 20.4189 21 20.4189C16.65 20.4189 15 23.9662 15 23.9662V25.8108H27V23.9662Z" fill="#5348FE"/>
<path d="M27 20.135C28.3807 20.135 29.5 19.0762 29.5 17.7701C29.5 16.4641 28.3807 15.4053 27 15.4053C25.6193 15.4053 24.5 16.4641 24.5 17.7701C24.5 19.0762 25.6193 20.135 27 20.135Z" fill="#FFA726"/>
<path d="M15 20.135C16.3807 20.135 17.5 19.0762 17.5 17.7701C17.5 16.4641 16.3807 15.4053 15 15.4053C13.6193 15.4053 12.5 16.4641 12.5 17.7701C12.5 19.0762 13.6193 20.135 15 20.135Z" fill="#FFDCBB"/>
<path d="M27 20.135C28.3807 20.135 29.5 19.0762 29.5 17.7701C29.5 16.4641 28.3807 15.4053 27 15.4053C25.6193 15.4053 24.5 16.4641 24.5 17.7701C24.5 19.0762 25.6193 20.135 27 20.135Z" fill="#FFDCBB"/>
</g>
<defs>
<clipPath id="clip0">
<rect width="24" height="22.7027" fill="white" transform="translate(8.96582 7.83789)"/>
</clipPath>
</defs>
</svg>
