<?xml version="1.0" encoding="utf-8"?>
<!-- Generator: Adobe Illustrator 18.0.0, SVG Export Plug-In . SVG Version: 6.00 Build 0)  -->
<svg version="1.2" baseProfile="tiny" id="Capa_1" xmlns="http://www.w3.org/2000/svg" xmlns:xlink="http://www.w3.org/1999/xlink"
	 x="0px" y="0px" viewBox="0 0 84 74" xml:space="preserve">
<g>
	<circle fill="#C7EEFB" cx="42" cy="36.751" r="36.628"/>
</g>
<g>
	<g>
		<path fill="#C7EEFB" d="M70.006,57.161H53.994c-0.436,0-0.793-0.357-0.793-0.793V39.746c0-0.436,0.357-0.793,0.793-0.793h16.011
			c0.436,0,0.793,0.357,0.793,0.793v16.622C70.798,56.804,70.442,57.161,70.006,57.161z"/>
		<path fill="#5FD8FF" d="M70.006,57.451H53.994c-0.597,0-1.082-0.486-1.082-1.083V39.746c0-0.597,0.485-1.083,1.082-1.083h16.012
			c0.597,0,1.082,0.486,1.082,1.083v16.622C71.088,56.965,70.603,57.451,70.006,57.451z M53.994,39.243
			c-0.277,0-0.502,0.226-0.502,0.503v16.622c0,0.277,0.225,0.503,0.502,0.503h16.012c0.277,0,0.502-0.226,0.502-0.503V39.746
			c0-0.277-0.225-0.503-0.502-0.503H53.994z"/>
	</g>
	<g>
		<g>
			<path fill="#C7EEFB" d="M60.222,43.418c0-1.592-1.291-2.883-2.883-2.883s-2.883,1.291-2.883,2.883
				c0,0.921,0.434,1.739,1.106,2.267c0.355-0.648,1.036-1.095,1.823-1.095c0.759,0,1.413,0.463,1.699,1.12
				C59.774,45.184,60.222,44.354,60.222,43.418z M57.339,44.253c-0.721,0-1.305-0.584-1.305-1.305c0-0.721,0.584-1.305,1.305-1.305
				c0.721,0,1.305,0.584,1.305,1.305C58.644,43.668,58.06,44.253,57.339,44.253z"/>
			<path fill="#5FD8FF" d="M59.082,46c-0.024,0-0.049-0.003-0.073-0.01c-0.086-0.022-0.157-0.083-0.192-0.165
				c-0.25-0.573-0.812-0.944-1.433-0.944c-0.648,0-1.249,0.361-1.568,0.944c-0.041,0.074-0.112,0.127-0.195,0.145
				c-0.085,0.017-0.171-0.003-0.237-0.057c-0.773-0.607-1.218-1.517-1.218-2.495c0-1.749,1.424-3.173,3.174-3.173
				c1.749,0,3.173,1.424,3.173,3.173c0,0.996-0.457,1.916-1.254,2.522C59.207,45.979,59.145,46,59.082,46z M58.009,44.395
				c0.47,0.145,0.879,0.448,1.155,0.862c0.491-0.485,0.768-1.139,0.768-1.839c0-1.43-1.163-2.593-2.593-2.593
				c-1.431,0-2.594,1.163-2.594,2.593c0,0.692,0.272,1.344,0.757,1.828c0.304-0.401,0.722-0.694,1.191-0.84
				c-0.56-0.249-0.95-0.809-0.95-1.459c0-0.88,0.716-1.596,1.596-1.596c0.879,0,1.595,0.716,1.595,1.596
				C58.934,43.588,58.555,44.141,58.009,44.395z M57.339,41.932c-0.561,0-1.016,0.455-1.016,1.016s0.455,1.016,1.016,1.016
				c0.56,0,1.015-0.455,1.015-1.016S57.898,41.932,57.339,41.932z"/>
		</g>
		<g>
			<circle fill="#C7EEFB" cx="57.339" cy="42.947" r="1.305"/>
			<path fill="#5FD8FF" d="M57.339,44.543c-0.88,0-1.596-0.716-1.596-1.596s0.716-1.596,1.596-1.596
				c0.879,0,1.595,0.716,1.595,1.596S58.218,44.543,57.339,44.543z M57.339,41.932c-0.561,0-1.016,0.455-1.016,1.016
				s0.455,1.016,1.016,1.016c0.56,0,1.015-0.455,1.015-1.016S57.898,41.932,57.339,41.932z"/>
		</g>
		<g>
			<path fill="#C7EEFB" d="M57.384,44.591c-0.787,0-1.468,0.447-1.823,1.095c0.49,0.385,1.106,0.616,1.777,0.616
				c0.656,0,1.259-0.222,1.744-0.591C58.797,45.054,58.142,44.591,57.384,44.591z"/>
			<path fill="#5FD8FF" d="M57.339,46.592c-0.715,0-1.391-0.234-1.956-0.679c-0.111-0.087-0.144-0.242-0.075-0.367
				c0.42-0.768,1.216-1.245,2.076-1.245c0.852,0,1.623,0.508,1.964,1.294c0.054,0.122,0.017,0.265-0.09,0.346
				C58.7,46.366,58.037,46.592,57.339,46.592z M55.954,45.609c0.824,0.522,1.925,0.527,2.753,0.009
				c-0.283-0.454-0.781-0.737-1.323-0.737C56.819,44.881,56.292,45.154,55.954,45.609z"/>
		</g>
	</g>
	<g>
		<path fill="#5FD8FF" d="M69,49H55c-0.276,0-0.5-0.224-0.5-0.5S54.724,48,55,48h14c0.276,0,0.5,0.224,0.5,0.5S69.276,49,69,49z"/>
	</g>
	<g>
		<g>
			<path fill="#C7EEFB" d="M60.359,51.749c0,0.036-0.012,0.076-0.036,0.105l-2.709,3.397c-0.032,0.04-0.08,0.065-0.132,0.065
				c-0.048,0-0.101-0.024-0.133-0.064l-2.732-3.374c-0.024-0.028-0.036-0.064-0.037-0.1c0-0.036,0.012-0.068,0.036-0.101l1.02-1.346
				c0.032-0.044,0.084-0.04,0.136-0.041l3.388-0.012c0.052,0,0.1,0.004,0.133,0.04l1.033,1.327
				C60.347,51.677,60.359,51.713,60.359,51.749z"/>
		</g>
		<g>
			<path fill="#5FD8FF" d="M60.361,51.748c0-0.035-0.012-0.072-0.035-0.102l-1.032-1.351c-0.032-0.042-0.083-0.067-0.135-0.067
				l-3.387,0.012c-0.052,0-0.103,0.025-0.135,0.067l-1.023,1.358c-0.023,0.03-0.034,0.066-0.034,0.102
				c0,0.039,0.014,0.077,0.038,0.106l2.733,3.377c0.033,0.041,0.082,0.063,0.132,0.063c0.051,0,0.1-0.023,0.132-0.064l2.709-3.396
				C60.347,51.825,60.361,51.786,60.361,51.748L60.361,51.748z M55.744,50.728l0.436,0.865l-1.09,0.004L55.744,50.728z
				 M58.26,51.924l-0.779,2.631l-0.798-2.625L58.26,51.924z M56.793,51.591l0.674-0.906l0.681,0.901L56.793,51.591z M57.805,50.571
				l1.081-0.004l-0.429,0.866L57.805,50.571z M56.483,51.44l-0.435-0.863l1.081-0.004L56.483,51.44z M56.329,51.931l0.739,2.432
				l-1.964-2.428L56.329,51.931z M58.614,51.923l1.225-0.004l-1.947,2.442L58.614,51.923z M58.76,51.584l0.43-0.868l0.66,0.864
				L58.76,51.584z"/>
		</g>
	</g>
	<g>
		<path fill="#5FD8FF" d="M69,42h-7c-0.276,0-0.5-0.224-0.5-0.5S61.724,41,62,41h7c0.276,0,0.5,0.224,0.5,0.5S69.276,42,69,42z"/>
	</g>
	<g>
		<path fill="#5FD8FF" d="M69,44h-7c-0.276,0-0.5-0.224-0.5-0.5S61.724,43,62,43h7c0.276,0,0.5,0.224,0.5,0.5S69.276,44,69,44z"/>
	</g>
	<g>
		<path fill="#5FD8FF" d="M69,46h-7c-0.276,0-0.5-0.224-0.5-0.5S61.724,45,62,45h7c0.276,0,0.5,0.224,0.5,0.5S69.276,46,69,46z"/>
	</g>
</g>
<g>
	<g>
		<path fill="#C7EEFB" d="M30.006,58.161H13.994c-0.436,0-0.793-0.357-0.793-0.793V40.746c0-0.436,0.357-0.793,0.793-0.793h16.011
			c0.436,0,0.793,0.357,0.793,0.793v16.622C30.798,57.804,30.442,58.161,30.006,58.161z"/>
		<path fill="#5FD8FF" d="M30.006,58.451H13.994c-0.597,0-1.082-0.486-1.082-1.083V40.746c0-0.597,0.485-1.083,1.082-1.083h16.012
			c0.597,0,1.082,0.486,1.082,1.083v16.622C31.088,57.965,30.603,58.451,30.006,58.451z M13.994,40.243
			c-0.277,0-0.502,0.226-0.502,0.503v16.622c0,0.277,0.225,0.503,0.502,0.503h16.012c0.277,0,0.502-0.226,0.502-0.503V40.746
			c0-0.277-0.225-0.503-0.502-0.503H13.994z"/>
	</g>
	<g>
		<g>
			<path fill="#C7EEFB" d="M20.222,44.418c0-1.592-1.291-2.883-2.883-2.883c-1.592,0-2.883,1.291-2.883,2.883
				c0,0.921,0.434,1.739,1.106,2.267c0.355-0.648,1.036-1.095,1.823-1.095c0.759,0,1.413,0.463,1.699,1.12
				C19.774,46.184,20.222,45.354,20.222,44.418z M17.339,45.253c-0.721,0-1.305-0.584-1.305-1.305c0-0.721,0.584-1.305,1.305-1.305
				c0.721,0,1.305,0.584,1.305,1.305C18.644,44.668,18.06,45.253,17.339,45.253z"/>
			<path fill="#5FD8FF" d="M19.082,47c-0.024,0-0.049-0.003-0.073-0.01c-0.086-0.022-0.157-0.083-0.192-0.165
				c-0.25-0.573-0.812-0.944-1.433-0.944c-0.648,0-1.249,0.361-1.568,0.944c-0.041,0.074-0.112,0.127-0.195,0.145
				c-0.085,0.018-0.171-0.004-0.237-0.057c-0.773-0.607-1.218-1.517-1.218-2.495c0-1.749,1.424-3.173,3.174-3.173
				c1.749,0,3.173,1.424,3.173,3.173c0,0.996-0.457,1.916-1.254,2.522C19.207,46.979,19.145,47,19.082,47z M18.009,45.395
				c0.47,0.145,0.879,0.448,1.155,0.862c0.491-0.485,0.768-1.139,0.768-1.839c0-1.43-1.163-2.593-2.593-2.593
				c-1.431,0-2.594,1.163-2.594,2.593c0,0.692,0.272,1.344,0.757,1.828c0.304-0.401,0.722-0.694,1.191-0.84
				c-0.56-0.249-0.95-0.809-0.95-1.459c0-0.88,0.716-1.596,1.596-1.596c0.879,0,1.595,0.716,1.595,1.596
				C18.934,44.588,18.555,45.141,18.009,45.395z M17.339,42.932c-0.561,0-1.016,0.455-1.016,1.016s0.455,1.016,1.016,1.016
				c0.56,0,1.015-0.455,1.015-1.016S17.898,42.932,17.339,42.932z"/>
		</g>
		<g>
			<circle fill="#C7EEFB" cx="17.339" cy="43.947" r="1.305"/>
			<path fill="#5FD8FF" d="M17.339,45.543c-0.88,0-1.596-0.716-1.596-1.596s0.716-1.596,1.596-1.596
				c0.879,0,1.595,0.716,1.595,1.596S18.218,45.543,17.339,45.543z M17.339,42.932c-0.561,0-1.016,0.455-1.016,1.016
				s0.455,1.016,1.016,1.016c0.56,0,1.015-0.455,1.015-1.016S17.898,42.932,17.339,42.932z"/>
		</g>
		<g>
			<path fill="#C7EEFB" d="M17.384,45.591c-0.787,0-1.468,0.447-1.823,1.095c0.49,0.385,1.106,0.616,1.777,0.616
				c0.656,0,1.259-0.222,1.744-0.591C18.797,46.054,18.142,45.591,17.384,45.591z"/>
			<path fill="#5FD8FF" d="M17.339,47.592c-0.715,0-1.391-0.234-1.956-0.679c-0.111-0.087-0.144-0.242-0.075-0.367
				c0.42-0.768,1.216-1.245,2.076-1.245c0.852,0,1.623,0.508,1.964,1.294c0.054,0.122,0.017,0.265-0.09,0.346
				C18.7,47.366,18.037,47.592,17.339,47.592z M15.954,46.609c0.824,0.523,1.924,0.527,2.753,0.009
				c-0.283-0.454-0.781-0.737-1.323-0.737C16.819,45.881,16.292,46.154,15.954,46.609z"/>
		</g>
	</g>
	<g>
		<path fill="#5FD8FF" d="M29,50H15c-0.276,0-0.5-0.224-0.5-0.5S14.724,49,15,49h14c0.276,0,0.5,0.224,0.5,0.5S29.276,50,29,50z"/>
	</g>
	<g>
		<g>
			<path fill="#C7EEFB" d="M20.359,52.749c0,0.036-0.012,0.076-0.036,0.105l-2.709,3.397c-0.032,0.04-0.08,0.065-0.132,0.065
				c-0.048,0-0.101-0.024-0.133-0.064l-2.732-3.374c-0.024-0.028-0.036-0.064-0.037-0.1c0-0.036,0.012-0.068,0.036-0.101l1.02-1.346
				c0.032-0.044,0.084-0.04,0.136-0.041l3.388-0.012c0.052,0,0.1,0.004,0.133,0.04l1.033,1.327
				C20.347,52.677,20.359,52.713,20.359,52.749z"/>
		</g>
		<g>
			<path fill="#5FD8FF" d="M20.361,52.748c0-0.035-0.012-0.072-0.035-0.102l-1.032-1.351c-0.032-0.042-0.083-0.067-0.135-0.067
				l-3.387,0.012c-0.052,0-0.103,0.025-0.135,0.067l-1.023,1.358c-0.023,0.03-0.034,0.066-0.034,0.102
				c0,0.039,0.014,0.077,0.038,0.106l2.733,3.377c0.033,0.041,0.082,0.063,0.132,0.063c0.051,0,0.1-0.023,0.132-0.064l2.709-3.396
				C20.347,52.825,20.361,52.786,20.361,52.748L20.361,52.748z M15.744,51.728l0.436,0.865l-1.09,0.004L15.744,51.728z
				 M18.26,52.924l-0.779,2.631l-0.798-2.625L18.26,52.924z M16.793,52.591l0.674-0.906l0.681,0.901L16.793,52.591z M17.805,51.571
				l1.081-0.004l-0.429,0.866L17.805,51.571z M16.483,52.44l-0.435-0.863l1.081-0.004L16.483,52.44z M16.329,52.931l0.739,2.432
				l-1.964-2.428L16.329,52.931z M18.614,52.923l1.225-0.004l-1.947,2.442L18.614,52.923z M18.76,52.584l0.43-0.868l0.66,0.864
				L18.76,52.584z"/>
		</g>
	</g>
	<g>
		<path fill="#5FD8FF" d="M29,43h-7c-0.276,0-0.5-0.224-0.5-0.5S21.724,42,22,42h7c0.276,0,0.5,0.224,0.5,0.5S29.276,43,29,43z"/>
	</g>
	<g>
		<path fill="#5FD8FF" d="M29,45h-7c-0.276,0-0.5-0.224-0.5-0.5S21.724,44,22,44h7c0.276,0,0.5,0.224,0.5,0.5S29.276,45,29,45z"/>
	</g>
	<g>
		<path fill="#5FD8FF" d="M29,47h-7c-0.276,0-0.5-0.224-0.5-0.5S21.724,46,22,46h7c0.276,0,0.5,0.224,0.5,0.5S29.276,47,29,47z"/>
	</g>
</g>
<g>
	<g>
		<path fill="#C7EEFB" d="M47.006,25.161H30.994c-0.436,0-0.793-0.357-0.793-0.793V7.746c0-0.436,0.357-0.793,0.793-0.793h16.011
			c0.436,0,0.793,0.357,0.793,0.793v16.622C47.798,24.804,47.442,25.161,47.006,25.161z"/>
		<path fill="#5FD8FF" d="M47.006,25.451H30.994c-0.597,0-1.082-0.486-1.082-1.083V7.746c0-0.597,0.485-1.083,1.082-1.083h16.012
			c0.597,0,1.082,0.486,1.082,1.083v16.622C48.088,24.965,47.603,25.451,47.006,25.451z M30.994,7.243
			c-0.277,0-0.502,0.226-0.502,0.503v16.622c0,0.277,0.225,0.503,0.502,0.503h16.012c0.277,0,0.502-0.226,0.502-0.503V7.746
			c0-0.277-0.225-0.503-0.502-0.503H30.994z"/>
	</g>
	<g>
		<g>
			<path fill="#C7EEFB" d="M37.222,11.418c0-1.592-1.291-2.883-2.883-2.883s-2.883,1.291-2.883,2.883
				c0,0.921,0.434,1.739,1.106,2.267c0.355-0.648,1.036-1.095,1.823-1.095c0.759,0,1.413,0.463,1.699,1.12
				C36.774,13.184,37.222,12.354,37.222,11.418z M34.339,12.253c-0.721,0-1.305-0.584-1.305-1.305c0-0.721,0.584-1.305,1.305-1.305
				c0.721,0,1.305,0.584,1.305,1.305C35.644,11.668,35.06,12.253,34.339,12.253z"/>
			<path fill="#5FD8FF" d="M36.082,14c-0.024,0-0.049-0.003-0.073-0.01c-0.086-0.022-0.157-0.083-0.192-0.165
				c-0.25-0.573-0.812-0.944-1.433-0.944c-0.648,0-1.249,0.361-1.568,0.944c-0.041,0.074-0.112,0.127-0.195,0.145
				c-0.084,0.016-0.171-0.003-0.237-0.057c-0.773-0.607-1.218-1.517-1.218-2.495c0-1.749,1.424-3.173,3.174-3.173
				c1.749,0,3.173,1.424,3.173,3.173c0,0.996-0.457,1.916-1.254,2.522C36.207,13.979,36.145,14,36.082,14z M35.009,12.395
				c0.47,0.145,0.879,0.448,1.155,0.862c0.491-0.485,0.768-1.139,0.768-1.839c0-1.43-1.163-2.593-2.593-2.593
				c-1.431,0-2.594,1.163-2.594,2.593c0,0.692,0.272,1.344,0.757,1.828c0.304-0.401,0.722-0.694,1.191-0.84
				c-0.56-0.249-0.95-0.809-0.95-1.459c0-0.88,0.716-1.596,1.596-1.596c0.879,0,1.595,0.716,1.595,1.596
				C35.934,11.588,35.555,12.141,35.009,12.395z M34.339,9.932c-0.561,0-1.016,0.455-1.016,1.016s0.455,1.016,1.016,1.016
				c0.56,0,1.015-0.455,1.015-1.016S34.898,9.932,34.339,9.932z"/>
		</g>
		<g>
			<circle fill="#C7EEFB" cx="34.339" cy="10.947" r="1.305"/>
			<path fill="#5FD8FF" d="M34.339,12.543c-0.88,0-1.596-0.716-1.596-1.596s0.716-1.596,1.596-1.596
				c0.879,0,1.595,0.716,1.595,1.596S35.218,12.543,34.339,12.543z M34.339,9.932c-0.561,0-1.016,0.455-1.016,1.016
				s0.455,1.016,1.016,1.016c0.56,0,1.015-0.455,1.015-1.016S34.898,9.932,34.339,9.932z"/>
		</g>
		<g>
			<path fill="#C7EEFB" d="M34.384,12.591c-0.787,0-1.468,0.447-1.823,1.095c0.49,0.385,1.106,0.616,1.777,0.616
				c0.656,0,1.259-0.222,1.744-0.591C35.797,13.054,35.142,12.591,34.384,12.591z"/>
			<path fill="#5FD8FF" d="M34.339,14.592c-0.715,0-1.391-0.234-1.956-0.679c-0.111-0.087-0.144-0.242-0.075-0.367
				c0.42-0.768,1.216-1.245,2.076-1.245c0.852,0,1.623,0.508,1.964,1.294c0.054,0.122,0.017,0.265-0.09,0.346
				C35.7,14.366,35.037,14.592,34.339,14.592z M32.954,13.609c0.824,0.523,1.924,0.527,2.753,0.009
				c-0.283-0.454-0.781-0.737-1.323-0.737C33.819,12.881,33.292,13.154,32.954,13.609z"/>
		</g>
	</g>
	<g>
		<path fill="#5FD8FF" d="M46,17H32c-0.276,0-0.5-0.224-0.5-0.5S31.724,16,32,16h14c0.276,0,0.5,0.224,0.5,0.5S46.276,17,46,17z"/>
	</g>
	<g>
		<g>
			<path fill="#C7EEFB" d="M37.359,19.749c0,0.036-0.012,0.076-0.036,0.105l-2.709,3.397c-0.032,0.04-0.08,0.065-0.132,0.065
				c-0.048,0-0.101-0.024-0.133-0.064l-2.732-3.374c-0.024-0.028-0.036-0.064-0.037-0.1c0-0.036,0.012-0.068,0.036-0.101l1.02-1.346
				c0.032-0.044,0.084-0.04,0.136-0.041l3.388-0.012c0.052,0,0.1,0.004,0.133,0.04l1.033,1.327
				C37.347,19.677,37.359,19.713,37.359,19.749z"/>
		</g>
		<g>
			<path fill="#5FD8FF" d="M37.361,19.748c0-0.035-0.012-0.072-0.035-0.102l-1.032-1.351c-0.032-0.042-0.083-0.067-0.135-0.067
				l-3.387,0.012c-0.052,0-0.103,0.025-0.135,0.067l-1.023,1.358c-0.023,0.03-0.034,0.066-0.034,0.102
				c0,0.039,0.014,0.077,0.038,0.106l2.733,3.377c0.033,0.041,0.082,0.063,0.132,0.063c0.051,0,0.1-0.023,0.132-0.064l2.709-3.396
				C37.347,19.825,37.361,19.786,37.361,19.748L37.361,19.748z M32.744,18.728l0.436,0.865l-1.09,0.004L32.744,18.728z
				 M35.26,19.924l-0.779,2.631l-0.798-2.625L35.26,19.924z M33.793,19.591l0.674-0.906l0.681,0.901L33.793,19.591z M34.805,18.571
				l1.081-0.004l-0.429,0.866L34.805,18.571z M33.483,19.44l-0.435-0.863l1.081-0.004L33.483,19.44z M33.329,19.931l0.739,2.432
				l-1.964-2.428L33.329,19.931z M35.614,19.923l1.225-0.004l-1.947,2.442L35.614,19.923z M35.76,19.584l0.43-0.868l0.66,0.864
				L35.76,19.584z"/>
		</g>
	</g>
	<g>
		<path fill="#5FD8FF" d="M46,10h-7c-0.276,0-0.5-0.224-0.5-0.5S38.724,9,39,9h7c0.276,0,0.5,0.224,0.5,0.5S46.276,10,46,10z"/>
	</g>
	<g>
		<path fill="#5FD8FF" d="M46,12h-7c-0.276,0-0.5-0.224-0.5-0.5S38.724,11,39,11h7c0.276,0,0.5,0.224,0.5,0.5S46.276,12,46,12z"/>
	</g>
	<g>
		<path fill="#5FD8FF" d="M46,14h-7c-0.276,0-0.5-0.224-0.5-0.5S38.724,13,39,13h7c0.276,0,0.5,0.224,0.5,0.5S46.276,14,46,14z"/>
	</g>
</g>
<g>
	<g>
		<path fill="#C7EEFB" d="M28.006,37.161H11.994c-0.436,0-0.793-0.357-0.793-0.793V19.746c0-0.436,0.357-0.793,0.793-0.793h16.011
			c0.436,0,0.793,0.357,0.793,0.793v16.622C28.798,36.804,28.442,37.161,28.006,37.161z"/>
		<path fill="#5FD8FF" d="M28.006,37.451H11.994c-0.597,0-1.082-0.486-1.082-1.083V19.746c0-0.597,0.485-1.083,1.082-1.083h16.012
			c0.597,0,1.082,0.486,1.082,1.083v16.622C29.088,36.965,28.603,37.451,28.006,37.451z M11.994,19.243
			c-0.277,0-0.502,0.226-0.502,0.503v16.622c0,0.277,0.225,0.503,0.502,0.503h16.012c0.277,0,0.502-0.226,0.502-0.503V19.746
			c0-0.277-0.225-0.503-0.502-0.503H11.994z"/>
	</g>
	<g>
		<g>
			<path fill="#C7EEFB" d="M18.222,23.418c0-1.592-1.291-2.883-2.883-2.883s-2.883,1.291-2.883,2.883
				c0,0.921,0.434,1.739,1.106,2.267c0.355-0.648,1.036-1.095,1.823-1.095c0.759,0,1.413,0.463,1.699,1.12
				C17.774,25.184,18.222,24.354,18.222,23.418z M15.339,24.253c-0.721,0-1.305-0.584-1.305-1.305c0-0.721,0.584-1.305,1.305-1.305
				c0.721,0,1.305,0.584,1.305,1.305C16.644,23.668,16.06,24.253,15.339,24.253z"/>
			<path fill="#5FD8FF" d="M17.082,26c-0.024,0-0.049-0.003-0.073-0.01c-0.086-0.022-0.157-0.083-0.192-0.165
				c-0.25-0.573-0.812-0.944-1.433-0.944c-0.648,0-1.249,0.361-1.568,0.944c-0.041,0.074-0.112,0.127-0.195,0.145
				s-0.171-0.003-0.237-0.057c-0.773-0.607-1.218-1.517-1.218-2.495c0-1.749,1.424-3.173,3.174-3.173
				c1.749,0,3.173,1.424,3.173,3.173c0,0.996-0.457,1.916-1.254,2.522C17.207,25.979,17.145,26,17.082,26z M16.009,24.395
				c0.47,0.145,0.879,0.448,1.155,0.862c0.491-0.485,0.768-1.139,0.768-1.839c0-1.43-1.163-2.593-2.593-2.593
				c-1.431,0-2.594,1.163-2.594,2.593c0,0.692,0.272,1.344,0.757,1.828c0.304-0.401,0.722-0.694,1.191-0.84
				c-0.56-0.249-0.95-0.809-0.95-1.459c0-0.88,0.716-1.596,1.596-1.596c0.879,0,1.595,0.716,1.595,1.596
				C16.934,23.588,16.555,24.141,16.009,24.395z M15.339,21.932c-0.561,0-1.016,0.455-1.016,1.016s0.455,1.016,1.016,1.016
				c0.56,0,1.015-0.455,1.015-1.016S15.898,21.932,15.339,21.932z"/>
		</g>
		<g>
			<circle fill="#C7EEFB" cx="15.339" cy="22.947" r="1.305"/>
			<path fill="#5FD8FF" d="M15.339,24.543c-0.88,0-1.596-0.716-1.596-1.596s0.716-1.596,1.596-1.596
				c0.879,0,1.595,0.716,1.595,1.596S16.218,24.543,15.339,24.543z M15.339,21.932c-0.561,0-1.016,0.455-1.016,1.016
				s0.455,1.016,1.016,1.016c0.56,0,1.015-0.455,1.015-1.016S15.898,21.932,15.339,21.932z"/>
		</g>
		<g>
			<path fill="#C7EEFB" d="M15.384,24.591c-0.787,0-1.468,0.447-1.823,1.095c0.49,0.385,1.106,0.616,1.777,0.616
				c0.656,0,1.259-0.222,1.744-0.591C16.797,25.054,16.142,24.591,15.384,24.591z"/>
			<path fill="#5FD8FF" d="M15.339,26.592c-0.715,0-1.391-0.234-1.956-0.679c-0.111-0.087-0.144-0.242-0.075-0.367
				c0.42-0.768,1.216-1.245,2.076-1.245c0.852,0,1.623,0.508,1.964,1.294c0.054,0.122,0.017,0.265-0.09,0.346
				C16.7,26.366,16.037,26.592,15.339,26.592z M13.954,25.609c0.824,0.522,1.924,0.527,2.753,0.009
				c-0.283-0.454-0.781-0.737-1.323-0.737C14.819,24.881,14.292,25.154,13.954,25.609z"/>
		</g>
	</g>
	<g>
		<path fill="#5FD8FF" d="M27,29H13c-0.276,0-0.5-0.224-0.5-0.5S12.724,28,13,28h14c0.276,0,0.5,0.224,0.5,0.5S27.276,29,27,29z"/>
	</g>
	<g>
		<g>
			<path fill="#C7EEFB" d="M18.359,31.749c0,0.036-0.012,0.076-0.036,0.105l-2.709,3.397c-0.032,0.04-0.08,0.065-0.132,0.065
				c-0.048,0-0.101-0.024-0.133-0.064l-2.732-3.374c-0.024-0.028-0.036-0.064-0.037-0.1c0-0.036,0.012-0.068,0.036-0.101l1.02-1.346
				c0.032-0.044,0.084-0.04,0.136-0.041l3.388-0.012c0.052,0,0.1,0.004,0.133,0.04l1.033,1.327
				C18.347,31.677,18.359,31.713,18.359,31.749z"/>
		</g>
		<g>
			<path fill="#5FD8FF" d="M18.361,31.748c0-0.035-0.012-0.072-0.035-0.102l-1.032-1.351c-0.032-0.042-0.083-0.067-0.135-0.067
				l-3.387,0.012c-0.052,0-0.103,0.025-0.135,0.067l-1.023,1.358c-0.023,0.03-0.034,0.066-0.034,0.102
				c0,0.039,0.014,0.077,0.038,0.106l2.733,3.377c0.033,0.041,0.082,0.063,0.132,0.063c0.051,0,0.1-0.023,0.132-0.064l2.709-3.396
				C18.347,31.825,18.361,31.786,18.361,31.748L18.361,31.748z M13.744,30.728l0.436,0.865l-1.09,0.004L13.744,30.728z
				 M16.26,31.924l-0.779,2.631l-0.798-2.625L16.26,31.924z M14.793,31.591l0.674-0.906l0.681,0.901L14.793,31.591z M15.805,30.571
				l1.081-0.004l-0.429,0.866L15.805,30.571z M14.483,31.44l-0.435-0.863l1.081-0.004L14.483,31.44z M14.329,31.931l0.739,2.432
				l-1.964-2.428L14.329,31.931z M16.614,31.923l1.225-0.004l-1.947,2.442L16.614,31.923z M16.76,31.584l0.43-0.868l0.66,0.864
				L16.76,31.584z"/>
		</g>
	</g>
	<g>
		<path fill="#5FD8FF" d="M27,22h-7c-0.276,0-0.5-0.224-0.5-0.5S19.724,21,20,21h7c0.276,0,0.5,0.224,0.5,0.5S27.276,22,27,22z"/>
	</g>
	<g>
		<path fill="#5FD8FF" d="M27,24h-7c-0.276,0-0.5-0.224-0.5-0.5S19.724,23,20,23h7c0.276,0,0.5,0.224,0.5,0.5S27.276,24,27,24z"/>
	</g>
	<g>
		<path fill="#5FD8FF" d="M27,26h-7c-0.276,0-0.5-0.224-0.5-0.5S19.724,25,20,25h7c0.276,0,0.5,0.224,0.5,0.5S27.276,26,27,26z"/>
	</g>
</g>
<g>
	<g>
		<path fill="#FFFFFF" d="M55.812,59.764H28.188c-0.752,0-1.368-0.615-1.368-1.368V29.718c0-0.752,0.615-1.368,1.368-1.368h27.624
			c0.752,0,1.368,0.615,1.368,1.368v28.678C57.18,59.148,56.564,59.764,55.812,59.764z"/>
		<path fill="#08243E" d="M55.812,60.264H28.188c-1.029,0-1.867-0.838-1.867-1.867V29.718c0-1.029,0.838-1.867,1.867-1.867h27.625
			c1.029,0,1.867,0.838,1.867,1.867v28.679C57.68,59.426,56.842,60.264,55.812,60.264z M28.188,28.851
			c-0.479,0-0.867,0.389-0.867,0.867v28.679c0,0.479,0.389,0.867,0.867,0.867h27.625c0.479,0,0.867-0.389,0.867-0.867V29.718
			c0-0.479-0.389-0.867-0.867-0.867H28.188z"/>
	</g>
	<g>
		<g>
			<path fill="#FFFFFF" d="M38.932,36.054c0-2.747-2.227-4.975-4.975-4.975s-4.975,2.227-4.975,4.975
				c0,1.589,0.748,3.001,1.908,3.912c0.612-1.118,1.787-1.889,3.145-1.889c1.309,0,2.438,0.799,2.931,1.932
				C38.159,39.1,38.932,37.669,38.932,36.054z M33.958,37.493c-1.244,0-2.252-1.008-2.252-2.252c0-1.244,1.008-2.252,2.252-2.252
				c1.244,0,2.252,1.008,2.252,2.252C36.21,36.485,35.201,37.493,33.958,37.493z"/>
			<path fill="#08243E" d="M36.967,40.509c-0.042,0-0.084-0.005-0.126-0.017c-0.148-0.038-0.271-0.144-0.333-0.284
				c-0.431-0.991-1.401-1.632-2.472-1.632c-1.118,0-2.155,0.624-2.706,1.63c-0.07,0.129-0.194,0.22-0.338,0.25
				c-0.145,0.029-0.294-0.007-0.409-0.097c-1.334-1.048-2.1-2.617-2.1-4.306c0-3.019,2.456-5.475,5.475-5.475
				s5.475,2.456,5.475,5.475c0,1.718-0.788,3.305-2.163,4.353C37.182,40.474,37.075,40.509,36.967,40.509z M35.114,37.738
				c0.81,0.249,1.517,0.772,1.993,1.487c0.849-0.837,1.325-1.965,1.325-3.172c0-2.468-2.007-4.475-4.475-4.475
				s-4.475,2.007-4.475,4.475c0,1.195,0.47,2.317,1.305,3.153c0.524-0.692,1.246-1.197,2.056-1.449
				c-0.965-0.429-1.639-1.396-1.639-2.517c0-1.518,1.235-2.753,2.753-2.753s2.752,1.235,2.752,2.753
				C36.71,36.346,36.056,37.301,35.114,37.738z M33.958,33.488c-0.967,0-1.753,0.786-1.753,1.753c0,0.966,0.786,1.752,1.753,1.752
				c0.966,0,1.752-0.786,1.752-1.752C35.71,34.274,34.924,33.488,33.958,33.488z"/>
		</g>
		<g>
			<circle fill="#FFFFFF" cx="33.958" cy="35.241" r="2.252"/>
			<path fill="#08243E" d="M33.958,37.993c-1.518,0-2.753-1.234-2.753-2.752s1.235-2.753,2.753-2.753s2.752,1.235,2.752,2.753
				S35.476,37.993,33.958,37.993z M33.958,33.488c-0.967,0-1.753,0.786-1.753,1.753c0,0.966,0.786,1.752,1.753,1.752
				c0.966,0,1.752-0.786,1.752-1.752C35.71,34.274,34.924,33.488,33.958,33.488z"/>
		</g>
		<g>
			<path fill="#FFFFFF" d="M34.036,38.077c-1.358,0-2.532,0.771-3.145,1.889c0.845,0.664,1.908,1.063,3.066,1.063
				c1.132,0,2.173-0.383,3.009-1.02C36.474,38.875,35.345,38.077,34.036,38.077z"/>
			<path fill="#08243E" d="M33.958,41.528c-1.233,0-2.4-0.404-3.375-1.169c-0.192-0.151-0.247-0.419-0.13-0.634
				c0.726-1.326,2.099-2.149,3.583-2.149c1.469,0,2.799,0.877,3.39,2.233c0.092,0.211,0.027,0.458-0.156,0.597
				C36.305,41.141,35.16,41.528,33.958,41.528z M31.568,39.834c1.419,0.902,3.317,0.914,4.751,0.016
				c-0.489-0.785-1.349-1.273-2.283-1.273C33.062,38.576,32.151,39.049,31.568,39.834z"/>
		</g>
	</g>
	<g>
		<path fill="#08243E" d="M54,46H29c-0.276,0-0.5-0.224-0.5-0.5S28.724,45,29,45h25c0.276,0,0.5,0.224,0.5,0.5S54.276,46,54,46z"/>
	</g>
	<g>
		<g>
			<path fill="#FFFFFF" d="M40.809,51.073c0,0.073-0.024,0.153-0.072,0.21l-5.441,6.824c-0.064,0.081-0.161,0.13-0.266,0.13
				c-0.097,0-0.202-0.048-0.267-0.128l-5.488-6.777c-0.049-0.056-0.073-0.129-0.073-0.202c0-0.073,0.024-0.137,0.072-0.202
				l2.049-2.703c0.064-0.089,0.169-0.081,0.274-0.082l6.804-0.024c0.105,0,0.202,0.007,0.267,0.08l2.076,2.664
				C40.784,50.927,40.808,51,40.809,51.073z"/>
		</g>
		<g>
			<path fill="#08243E" d="M40.812,51.069c0-0.07-0.024-0.145-0.07-0.205l-2.073-2.714c-0.064-0.084-0.166-0.134-0.271-0.134
				l-6.803,0.024c-0.104,0-0.206,0.05-0.271,0.136l-2.054,2.728c-0.045,0.06-0.069,0.133-0.068,0.206
				c0,0.078,0.029,0.155,0.076,0.213l5.489,6.784c0.066,0.082,0.165,0.127,0.266,0.126c0.101,0,0.2-0.047,0.265-0.128l5.441-6.822
				C40.784,51.224,40.812,51.147,40.812,51.069L40.812,51.069z M31.538,49.022l0.876,1.736l-2.189,0.008L31.538,49.022z
				 M36.591,51.424l-1.565,5.284l-1.602-5.273L36.591,51.424z M33.645,50.754l1.354-1.819l1.367,1.809L33.645,50.754z
				 M35.678,48.706l2.171-0.008l-0.862,1.74L35.678,48.706z M33.022,50.452l-0.874-1.734l2.171-0.008L33.022,50.452z M32.714,51.438
				l1.484,4.885l-3.946-4.876L32.714,51.438z M37.302,51.422l2.461-0.009l-3.911,4.904L37.302,51.422z M37.597,50.74l0.864-1.743
				l1.325,1.735L37.597,50.74z"/>
		</g>
	</g>
	<g>
		<g>
			<path fill="#FFFFFF" d="M53.614,51.073c0,0.073-0.024,0.153-0.072,0.21l-5.441,6.824c-0.064,0.081-0.161,0.13-0.266,0.13
				c-0.097,0-0.202-0.048-0.267-0.128l-5.488-6.777c-0.049-0.056-0.073-0.129-0.073-0.202c0-0.073,0.024-0.137,0.072-0.202
				l2.049-2.703c0.064-0.089,0.169-0.081,0.274-0.082l6.804-0.024c0.105,0,0.202,0.007,0.267,0.08l2.076,2.664
				C53.589,50.927,53.614,51,53.614,51.073z"/>
		</g>
		<g>
			<path fill="#08243E" d="M53.617,51.069c0-0.07-0.024-0.145-0.07-0.205l-2.073-2.714c-0.064-0.084-0.166-0.134-0.271-0.134
				L44.4,48.04c-0.104,0-0.206,0.05-0.271,0.136l-2.054,2.728c-0.045,0.06-0.069,0.133-0.068,0.206c0,0.078,0.029,0.155,0.076,0.213
				l5.489,6.784c0.066,0.082,0.165,0.127,0.266,0.126c0.101,0,0.2-0.047,0.265-0.128l5.441-6.822
				C53.59,51.224,53.617,51.147,53.617,51.069L53.617,51.069z M44.344,49.022l0.876,1.736l-2.189,0.008L44.344,49.022z
				 M49.397,51.424l-1.565,5.284l-1.602-5.273L49.397,51.424z M46.45,50.754l1.354-1.819l1.367,1.809L46.45,50.754z M48.484,48.706
				l2.171-0.008l-0.862,1.74L48.484,48.706z M45.827,50.452l-0.874-1.734l2.171-0.008L45.827,50.452z M45.52,51.438l1.484,4.885
				l-3.946-4.876L45.52,51.438z M50.107,51.422l2.461-0.009l-3.911,4.904L50.107,51.422z M50.402,50.74l0.864-1.743l1.325,1.735
				L50.402,50.74z"/>
		</g>
	</g>
	<g>
		<path fill="#08243E" d="M54,33H41c-0.276,0-0.5-0.224-0.5-0.5S40.724,32,41,32h13c0.276,0,0.5,0.224,0.5,0.5S54.276,33,54,33z"/>
	</g>
	<g>
		<path fill="#08243E" d="M54,36H41c-0.276,0-0.5-0.224-0.5-0.5S40.724,35,41,35h13c0.276,0,0.5,0.224,0.5,0.5S54.276,36,54,36z"/>
	</g>
	<g>
		<path fill="#08243E" d="M54,39H41c-0.276,0-0.5-0.224-0.5-0.5S40.724,38,41,38h13c0.276,0,0.5,0.224,0.5,0.5S54.276,39,54,39z"/>
	</g>
	<g>
		<path fill="#08243E" d="M54,42H41c-0.276,0-0.5-0.224-0.5-0.5S40.724,41,41,41h13c0.276,0,0.5,0.224,0.5,0.5S54.276,42,54,42z"/>
	</g>
</g>
<g>
	<g>
		<path fill="#FFFFFF" d="M47.109,32.282c0.532,0.037,0.324,1.002,0.565,1.444c0.272,0.498,0.647,0.962,1.155,1.214
			c2.015,0.996,2.407-1.468,2.455-2.807c0.082-2.259,1.062-4.457,2.624-6.081c1.753-1.822,3.993-2.117,6.345-1.105
			c1.213,0.522,2.294,1.457,2.751,2.696c0.352,0.955,0.305,2.05-0.128,2.972c-1.162,2.471-4.608,3.017-6.129,5.279
			c-0.393,0.584-0.611,1.326-0.416,2.003c0.222,0.773,0.945,1.321,1.716,1.554c2.468,0.747,5.776-0.085,7.872-1.466
			c3.35-2.207,4.584-6.566,6.154-10.048c0.893-1.981,2.037-3.726,3.09-5.606c2.063-3.683,4.261-7.229,7.208-10.314L65.796,1.493
			c-1.918,2.35-3.49,5.119-5.669,7.234c-2.131,2.068-4.821,3.511-7.603,4.5c-0.895,0.318-1.881,0.464-2.756,0.813
			c-0.78,0.311-1.57,0.789-2.322,1.178c-1.659,0.859-3.326,1.853-4.576,3.267c-0.431,0.487-0.808,1.023-1.093,1.608
			c-1.488,3.052-0.879,6.922,1.919,9.005l1.618,2.074C45.314,31.172,45.916,32.199,47.109,32.282z"/>
	</g>
	<g>
		<path fill="#08243E" d="M60.109,40.235c-0.755,0-1.501-0.094-2.207-0.308c-1.034-0.313-1.801-1.022-2.051-1.896
			c-0.219-0.756-0.043-1.638,0.481-2.419c0.77-1.146,1.958-1.864,3.107-2.56c1.248-0.756,2.427-1.469,2.984-2.653
			c0.373-0.795,0.415-1.762,0.111-2.586c-0.375-1.014-1.278-1.892-2.479-2.409c-2.238-0.962-4.238-0.62-5.788,0.992
			c-1.503,1.563-2.409,3.66-2.484,5.753c-0.043,1.182-0.298,2.713-1.274,3.296c-0.369,0.221-0.995,0.39-1.902-0.059
			c-0.541-0.268-1.003-0.746-1.372-1.422c-1.534-2.809-0.871-6.961-0.515-8.616c0.619-2.875,1.948-5.514,3.846-7.629
			c0.186-0.206,0.501-0.222,0.706-0.038c0.205,0.185,0.223,0.5,0.038,0.706c-1.781,1.986-3.03,4.466-3.611,7.172
			c-0.261,1.206-0.998,5.342,0.413,7.926c0.27,0.491,0.585,0.83,0.938,1.005c0.604,0.299,0.862,0.147,0.946,0.097
			c0.44-0.263,0.742-1.211,0.787-2.474c0.085-2.336,1.093-4.672,2.764-6.41c1.836-1.911,4.287-2.345,6.903-1.217
			c1.452,0.625,2.554,1.711,3.022,2.981c0.401,1.085,0.349,2.309-0.145,3.357c-0.686,1.458-2.051,2.284-3.371,3.083
			c-1.105,0.669-2.148,1.3-2.795,2.262c-0.359,0.534-0.487,1.112-0.351,1.585c0.185,0.644,0.833,1.049,1.38,1.215
			c2.388,0.724,5.56-0.158,7.451-1.405c2.59-1.705,3.865-4.791,5.098-7.775c0.291-0.705,0.578-1.398,0.876-2.061
			c0.635-1.406,1.402-2.713,2.145-3.976c0.323-0.551,0.648-1.104,0.965-1.669c1.966-3.508,4.208-7.197,7.283-10.416
			c0.189-0.199,0.508-0.207,0.707-0.016c0.199,0.19,0.207,0.507,0.016,0.707c-2.998,3.138-5.2,6.763-7.133,10.213
			c-0.32,0.571-0.648,1.131-0.976,1.688c-0.763,1.297-1.482,2.522-2.095,3.88c-0.295,0.653-0.577,1.337-0.863,2.031
			c-1.23,2.979-2.626,6.354-5.472,8.229C64.679,39.398,62.359,40.235,60.109,40.235z"/>
	</g>
	<g>
		<path fill="#08243E" d="M47.128,33c-1.234,0-2.321-1.432-3.132-2.583c-0.812-1.154-1.352-2.537-1.562-3.892
			c-0.395-2.544,0.354-5.27,2.001-7.246c0.177-0.212,0.493-0.253,0.704-0.078c0.212,0.177,0.24,0.485,0.063,0.697
			c-1.466,1.759-2.132,4.157-1.78,6.419c0.187,1.204,0.669,2.496,1.393,3.525C45.77,31.201,46.548,32,47.128,32
			c0.004,0,0.009,0,0.011,0c0.274,0,0.497,0.221,0.5,0.495C47.642,32.771,47.419,33,47.144,33C47.138,33,47.133,33,47.128,33z"/>
	</g>
	<g>
		<path fill="#08243E" d="M43.696,29.598c-0.104,0-0.209-0.032-0.299-0.099c-2.876-2.14-3.747-6.188-2.07-9.625
			c0.289-0.592,0.683-1.171,1.168-1.721c1.347-1.521,3.142-2.562,4.721-3.38c0.217-0.112,0.438-0.232,0.661-0.354
			c0.554-0.301,1.127-0.613,1.706-0.844c0.505-0.201,1.036-0.337,1.551-0.469c0.413-0.105,0.827-0.21,1.223-0.351
			c3.038-1.081,5.535-2.557,7.422-4.388c1.33-1.29,2.458-2.872,3.549-4.401c0.664-0.932,1.352-1.896,2.081-2.79
			c0.175-0.214,0.49-0.244,0.704-0.071c0.214,0.175,0.245,0.49,0.071,0.704c-0.709,0.868-1.387,1.819-2.043,2.738
			c-1.116,1.565-2.271,3.185-3.665,4.537c-1.991,1.932-4.61,3.483-7.783,4.612c-0.425,0.151-0.868,0.265-1.312,0.378
			c-0.505,0.13-0.983,0.252-1.428,0.43c-0.524,0.208-1.07,0.505-1.598,0.793c-0.229,0.124-0.456,0.248-0.68,0.364
			c-1.497,0.774-3.194,1.755-4.432,3.153c-0.426,0.482-0.769,0.986-1.019,1.497c-1.466,3.005-0.722,6.531,1.77,8.384
			c0.221,0.165,0.268,0.479,0.103,0.7C43.999,29.528,43.849,29.598,43.696,29.598z"/>
	</g>
	<g>
		<path fill="#08243E" d="M47.892,17.671c-0.059,0-0.118-0.01-0.176-0.032c-0.259-0.097-0.39-0.385-0.292-0.644
			c0.186-0.495,0.508-0.886,0.82-1.265l0.146-0.179c0.174-0.215,0.488-0.249,0.703-0.074c0.215,0.174,0.248,0.488,0.074,0.703
			l-0.152,0.187c-0.272,0.329-0.528,0.641-0.656,0.979C48.284,17.547,48.094,17.671,47.892,17.671z"/>
	</g>
	<g>
		<path fill="#08243E" d="M51.67,17.255c-0.054,0-0.109-0.009-0.163-0.027c-0.261-0.09-0.399-0.375-0.31-0.636
			c0.019-0.055,0.467-1.329,1.283-1.629c0.258-0.092,0.547,0.037,0.642,0.298c0.095,0.259-0.038,0.546-0.298,0.642
			c-0.191,0.07-0.529,0.573-0.682,1.016C52.071,17.125,51.877,17.255,51.67,17.255z"/>
	</g>
</g>
<g>
	<path fill="#FFFFFF" d="M54.812,28.35c0.047,0,1.093,0.002,1.139,0.007c0.687,0.07,1.228,0.655,1.228,1.361v28.678
		c0,0.688-0.515,1.262-1.179,1.355c-0.142,0.02-1.697,0.014-1.697,0.014"/>
	<path fill="#08243E" d="M54.851,60.266c-0.185,0-0.372,0-0.549-0.001l0.004-1c0.712,0.003,1.522-0.001,1.639-0.011
		c0.414-0.058,0.735-0.427,0.735-0.857V29.718c0-0.439-0.343-0.818-0.779-0.863c-0.088-0.002-1.044-0.004-1.088-0.004v-1
		c0.049,0,1.144,0.005,1.191,0.01c0.954,0.098,1.676,0.896,1.676,1.857v28.679c0,0.926-0.692,1.722-1.609,1.85
		C55.959,60.262,55.42,60.266,54.851,60.266z"/>
</g>
<g>
	<path fill="#08243E" d="M24.768,25.609c-0.137,0-0.273-0.056-0.372-0.166l-2.474-2.759c-0.185-0.206-0.167-0.521,0.038-0.706
		s0.521-0.169,0.706,0.038l2.474,2.759c0.185,0.206,0.167,0.521-0.038,0.706C25.006,25.567,24.887,25.609,24.768,25.609z"/>
</g>
<g>
	<path fill="#08243E" d="M23.381,28c-0.009,0-0.018,0-0.027,0l-3.7-0.037c-0.275-0.015-0.487-0.168-0.472-0.444
		c0.015-0.275,0.234-0.454,0.526-0.431l3.7,0.222c0.275,0.015,0.487,0.095,0.472,0.372C23.865,27.949,23.645,28,23.381,28z"/>
</g>
</svg>
