<?xml version="1.0" encoding="utf-8"?>
<!-- Generator: Adobe Illustrator 18.0.0, SVG Export Plug-In . SVG Version: 6.00 Build 0)  -->
<svg version="1.2" baseProfile="tiny" id="Capa_1" xmlns="http://www.w3.org/2000/svg" xmlns:xlink="http://www.w3.org/1999/xlink"
	 x="0px" y="0px" viewBox="0 0 84 74" xml:space="preserve">
<g>
	<circle fill="#FCEBF6" cx="42" cy="36.751" r="36.628"/>
</g>
<g>
	<g>
		<path fill="none" d="M17.421,63.906l-0.107-0.098C17.35,63.841,17.385,63.874,17.421,63.906z"/>
	</g>
	<g>
		<polygon fill="none" points="63,51.159 62.721,43 62.706,50.893 		"/>
	</g>
	<g>
		<polygon fill="none" points="62.721,43 62.793,43 30,13.051 30,21.29 62.706,50.893 		"/>
	</g>
	<g>
		<polygon fill="none" points="49,51.329 17,22.104 17,30 16.624,30 49,59.568 		"/>
	</g>
	<g>
		<polygon fill="none" points="77,43 77,35.049 44.166,5.063 43.711,5.073 43.959,13 43.836,13 76.685,43 		"/>
	</g>
	<g>
		<path fill="none" d="M35.497,60h0.085L5.609,32.626c-0.152,1.355-0.237,2.729-0.237,4.125c0,1.392,0.085,2.763,0.236,4.114
			l29.634,27.064l0.055-0.002L35.497,60z"/>
	</g>
	<g>
		<path fill="#FFC2E6" d="M23.716,68.407l11.526-0.478L5.608,40.865c1.013,9.056,5.322,17.115,11.707,22.944l0.107,0.098
			c1.927,1.745,4.045,3.28,6.311,4.587L23.716,68.407z"/>
	</g>
	<g>
		<path fill="#FFC2E6" d="M35.582,60H49v-0.432L16.624,30H6.003c-0.161,0.865-0.295,1.74-0.394,2.626L35.582,60z"/>
	</g>
	<g>
		<polygon fill="#FFC2E6" points="49,51.326 63,51.297 63,51.159 63,50.893 63,51.159 30,21.29 30,22 17,22 17,22.104 49,51.329 		
			"/>
	</g>
	<g>
		<polygon fill="#FFC2E6" points="63,50.893 30.294,21.29 63,51.159 		"/>
	</g>
	<g>
		<path fill="#FFC2E6" d="M44.166,5.063L77,35.049V35h1.584c-0.227-4.826-1.394-9.403-3.312-13.564L56.79,4.778L44.166,5.063z"/>
	</g>
	<g>
		<polygon fill="#FFC2E6" points="76.685,43 43.836,13 30,13 30,13.051 62.793,43 		"/>
	</g>
	<g>
		<path fill="#FFDCF1" d="M77,35.049V43h-0.315H62.793h-0.072L63,51.159v0.138l-14,0.029v0.004v8.239V60H35.582h-0.085l-0.201,7.927
			l-0.055,0.002l-11.526,0.478l0.017,0.087c5.378,3.102,11.613,4.886,18.268,4.886c20.229,0,36.628-16.399,36.628-36.628
			c0-0.587-0.017-1.17-0.044-1.751H77V35.049z"/>
	</g>
	<g>
		<path fill="#FFDCF1" d="M42,0.122C24.078,0.122,9.173,12.997,6.003,30h10.621H17v-7.896V22h13v-0.71v-8.239V13h13.836h0.123
			l-0.248-7.927l0.455-0.01L56.79,4.778l18.482,16.658C69.473,8.858,56.76,0.122,42,0.122z"/>
	</g>
</g>
<g>
	<g>
		<path fill="#FFFFFF" d="M44.373,25.86c2.051,1.597,3.791,3.575,4.761,5.984c1.026,2.547,0.904,5.727,0.322,8.362
			c-0.324,1.468-0.956,3.028-2.299,3.705c-1.201,0.606-2.802,0.267-3.655-0.773c-1.516-1.848,0.111-3.927,0.547-5.828
			c0.226-0.984-0.096-1.762-0.595-2.605c-1.057-1.787-2.627-2.548-4.455-3.328l-0.595-0.205c0.136,2.568-0.227,5.167-1.033,7.604
			c-1.36,4.113-4.324,9.373-9.013,10.247c-0.763,0.142-1.626-0.008-2.157-0.575c-0.661-0.706-0.614-1.861-0.152-2.711
			c0.502-0.924,1.427-1.444,2.019-2.27c0.69-0.963,1.282-2.073,1.822-3.129c1.615-3.163,2.625-6.897,2.889-10.441
			c-1.625,2.856-4.726,5.448-7.594,2.572c-1.959-1.964-2.304-5.124-2.7-7.727c-0.424-2.793-1.425-5.497-2.917-7.895
			c-2.059-3.311-5.266-5.556-8.012-8.255l10.43-4.053c5.423,0.769,10.577,3.155,14.765,6.67c4.548,3.818,7.56,8.189,7.56,14.271
			L44.373,25.86z"/>
	</g>
</g>
<g>
	<g>
		<path fill="#08243E" d="M27.845,34.223c-1.073,0-2.085-0.47-3.014-1.4c-1.94-1.945-2.375-4.876-2.759-7.463l-0.081-0.543
			c-0.411-2.707-1.396-5.372-2.848-7.707c-1.418-2.28-3.367-4.017-5.431-5.854c-0.833-0.741-1.694-1.509-2.507-2.307
			c-0.197-0.193-0.199-0.51-0.006-0.707s0.51-0.199,0.707-0.006c0.795,0.78,1.646,1.539,2.471,2.273
			c2.025,1.804,4.12,3.67,5.615,6.073c1.522,2.448,2.556,5.244,2.986,8.084l0.082,0.547c0.361,2.434,0.771,5.191,2.477,6.902
			c0.843,0.844,1.748,1.21,2.68,1.082c1.684-0.226,3.235-1.98,4.127-3.547c0.136-0.24,0.44-0.323,0.682-0.188
			c0.24,0.137,0.324,0.441,0.188,0.682c-1.308,2.299-3.126,3.811-4.863,4.044C28.181,34.212,28.012,34.223,27.845,34.223z"/>
	</g>
	<g>
		<path fill="#08243E" d="M27.822,49.573c-0.787,0-1.514-0.278-1.986-0.783c-0.875-0.937-0.73-2.362-0.226-3.292
			c0.321-0.591,0.775-1.018,1.215-1.431c0.312-0.293,0.607-0.57,0.837-0.891c0.693-0.969,1.284-2.091,1.783-3.066
			c1.59-3.114,2.565-6.571,2.82-9.998c0.081-1.086-0.014-2.481-0.924-2.956c-0.245-0.128-0.34-0.43-0.212-0.675
			s0.432-0.336,0.675-0.212c0.769,0.401,1.646,1.406,1.459,3.917c-0.266,3.559-1.277,7.147-2.928,10.379
			c-0.516,1.008-1.127,2.169-1.861,3.193c-0.286,0.4-0.631,0.724-0.965,1.037c-0.399,0.375-0.776,0.729-1.021,1.18
			c-0.35,0.645-0.436,1.583,0.077,2.131c0.436,0.466,1.163,0.522,1.7,0.426c5.291-0.986,7.943-7.837,8.631-9.913
			c1.467-4.436,1.358-9.294-0.296-13.328c-0.104-0.255,0.018-0.547,0.273-0.652c0.253-0.104,0.547,0.019,0.652,0.273
			c1.743,4.251,1.859,9.362,0.319,14.021c-0.73,2.207-3.567,9.495-9.396,10.581C28.239,49.555,28.028,49.573,27.822,49.573z"/>
	</g>
	<g>
		<path fill="#08243E" d="M45.87,44.706c-1.041,0-2.092-0.445-2.754-1.251c-1.294-1.577-0.637-3.271-0.058-4.764
			c0.203-0.523,0.395-1.019,0.504-1.494c0.183-0.797-0.07-1.447-0.539-2.237c-0.969-1.64-2.422-2.356-4.221-3.123
			c-0.254-0.108-0.372-0.402-0.264-0.656c0.108-0.253,0.401-0.372,0.656-0.264c1.901,0.811,3.567,1.637,4.689,3.533
			c0.577,0.975,0.908,1.854,0.652,2.971c-0.125,0.547-0.339,1.099-0.546,1.632c-0.55,1.418-1.025,2.643-0.102,3.768
			c0.708,0.864,2.044,1.146,3.044,0.645c0.964-0.486,1.648-1.619,2.034-3.366c0.664-3.009,0.557-5.949-0.297-8.068
			c-1.646-4.089-5.603-6.763-8.63-8.287c-0.247-0.124-0.346-0.425-0.222-0.671c0.124-0.248,0.425-0.348,0.671-0.222
			c3.182,1.601,7.345,4.428,9.108,8.807c1.269,3.15,0.761,6.775,0.346,8.656c-0.454,2.056-1.315,3.416-2.562,4.044
			C46.915,44.594,46.394,44.706,45.87,44.706z"/>
	</g>
	<g>
		<path fill="#08243E" d="M44.312,25.98c-0.276,0-0.5-0.224-0.5-0.5c0-5.319-2.276-9.604-7.382-13.889
			c-4.221-3.543-9.24-5.811-14.514-6.558c-0.273-0.039-0.464-0.292-0.425-0.565c0.039-0.272,0.285-0.454,0.565-0.425
			c5.459,0.773,10.651,3.119,15.016,6.782c5.28,4.432,7.739,9.089,7.739,14.654C44.812,25.757,44.588,25.98,44.312,25.98z"/>
	</g>
	<g>
		<path fill="#08243E" d="M34.17,23.289c-0.154,0-0.308-0.072-0.405-0.207l-1.284-1.778c-0.162-0.225-0.111-0.537,0.112-0.698
			c0.223-0.163,0.536-0.111,0.698,0.112l1.284,1.778c0.162,0.224,0.111,0.536-0.112,0.698C34.374,23.258,34.271,23.289,34.17,23.289
			z"/>
	</g>
	<g>
		<path fill="#08243E" d="M37.431,21.609c-0.182,0-0.357-0.1-0.445-0.273c-0.066-0.131-0.128-0.261-0.188-0.389
			c-0.211-0.447-0.393-0.834-0.763-1.125c-0.217-0.17-0.254-0.484-0.083-0.702c0.172-0.216,0.486-0.253,0.702-0.083
			c0.555,0.437,0.806,0.969,1.048,1.483c0.057,0.119,0.113,0.24,0.175,0.362c0.126,0.246,0.027,0.547-0.219,0.672
			C37.585,21.592,37.508,21.609,37.431,21.609z"/>
	</g>
	<g>
		<path fill="#08243E" d="M40.691,20.721c-0.146,0-0.29-0.063-0.389-0.186c-0.187-0.23-0.314-0.48-0.438-0.722
			c-0.163-0.319-0.304-0.595-0.546-0.763c-0.227-0.158-0.283-0.47-0.126-0.696c0.158-0.228,0.47-0.281,0.696-0.126
			c0.448,0.312,0.671,0.747,0.866,1.131c0.104,0.204,0.203,0.397,0.324,0.547c0.174,0.215,0.141,0.529-0.074,0.703
			C40.913,20.685,40.802,20.721,40.691,20.721z"/>
	</g>
</g>
<g>
	<path fill="#08243E" d="M46.911,17.77c-0.233,0-0.442-0.164-0.489-0.402c-0.054-0.271,0.122-0.534,0.393-0.588l3.635-0.724
		c0.265-0.055,0.534,0.12,0.588,0.393c0.054,0.271-0.122,0.534-0.393,0.588L47.01,17.76C46.977,17.767,46.944,17.77,46.911,17.77z"
		/>
</g>
<g>
	<path fill="#08243E" d="M45.277,15.189c-0.096,0-0.192-0.027-0.277-0.084c-0.23-0.153-0.292-0.464-0.139-0.693l2.059-3.081
		c0.154-0.23,0.465-0.29,0.693-0.139c0.23,0.153,0.292,0.464,0.139,0.693l-2.059,3.081C45.597,15.111,45.438,15.189,45.277,15.189z"
		/>
</g>
<g>
	<path fill="#FFFFFF" d="M62.714,34.215L62.714,34.215c-2.72,0-4.945-2.225-4.945-4.945v-4.292c0-0.359,0.294-0.653,0.653-0.653
		h8.584c0.359,0,0.653,0.294,0.653,0.653v4.292C67.659,31.99,65.434,34.215,62.714,34.215z"/>
	<path fill="#08243E" d="M62.714,34.715c-3.003,0-5.445-2.442-5.445-5.444v-4.292c0-0.636,0.518-1.153,1.153-1.153h8.584
		c0.636,0,1.153,0.518,1.153,1.153v4.292C68.159,32.272,65.717,34.715,62.714,34.715z M58.422,24.825
		c-0.083,0-0.153,0.07-0.153,0.153v4.292c0,2.45,1.994,4.444,4.445,4.444s4.445-1.994,4.445-4.444v-4.292
		c0-0.083-0.07-0.153-0.153-0.153H58.422z"/>
</g>
<g>
	<path fill="#FFFFFF" d="M59.89,34.545h5.649c0.71,0,1.291,0.581,1.291,1.291v0.329c0,0.094-0.077,0.17-0.17,0.17H58.77
		c-0.094,0-0.17-0.077-0.17-0.17v-0.329C58.599,35.126,59.18,34.545,59.89,34.545z"/>
	<path fill="#08243E" d="M66.658,36.835H58.77c-0.37,0-0.671-0.301-0.671-0.67v-0.329c0-0.987,0.804-1.79,1.791-1.79h5.648
		c0.987,0,1.791,0.803,1.791,1.79v0.329C67.329,36.534,67.028,36.835,66.658,36.835z M59.099,35.835h7.23
		c-0.001-0.436-0.355-0.789-0.791-0.789H59.89C59.454,35.046,59.1,35.399,59.099,35.835z"/>
</g>
<g>
	<path fill="#08243E" d="M57.635,29.771h-0.818c-0.837,0-1.519-0.682-1.519-1.52v-1.16c0-0.837,0.682-1.519,1.519-1.519h0.818
		c0.35,0,0.634,0.284,0.634,0.634v2.93C58.269,29.485,57.984,29.771,57.635,29.771z M56.816,26.572
		c-0.286,0-0.519,0.232-0.519,0.519v1.16c0,0.286,0.232,0.52,0.519,0.52h0.452v-2.198H56.816z"/>
</g>
<g>
	<path fill="#08243E" d="M68.612,29.771h-0.818c-0.35,0-0.635-0.285-0.635-0.635v-2.93c0-0.35,0.285-0.634,0.635-0.634h0.818
		c0.837,0,1.519,0.682,1.519,1.519v1.16C70.131,29.089,69.449,29.771,68.612,29.771z M68.159,28.771h0.453
		c0.286,0,0.519-0.233,0.519-0.52v-1.16c0-0.286-0.232-0.519-0.519-0.519h-0.453V28.771z"/>
</g>
<g>
	<path fill="#08243E" d="M62.714,32.612c-1.716,0-3.112-1.396-3.112-3.112c0-0.276,0.224-0.5,0.5-0.5s0.5,0.224,0.5,0.5
		c0,1.165,0.947,2.112,2.112,2.112s2.112-0.947,2.112-2.112c0-0.276,0.224-0.5,0.5-0.5s0.5,0.224,0.5,0.5
		C65.826,31.216,64.43,32.612,62.714,32.612z"/>
</g>
<g>
	<path fill="#08243E" d="M61.5,28.5c-0.276,0-0.5-0.224-0.5-0.5v-1c0-0.276,0.224-0.5,0.5-0.5S62,26.724,62,27v1
		C62,28.276,61.776,28.5,61.5,28.5z"/>
</g>
<g>
	<path fill="#08243E" d="M63.5,28.5c-0.276,0-0.5-0.224-0.5-0.5v-1c0-0.276,0.224-0.5,0.5-0.5S64,26.724,64,27v1
		C64,28.276,63.776,28.5,63.5,28.5z"/>
</g>
</svg>
