<svg width="40" height="39" viewBox="0 0 40 39" fill="none" xmlns="http://www.w3.org/2000/svg">
<rect y="0.27002" width="40" height="37.8378" rx="5" fill="#F5F9FD"/>
<g clip-path="url(#clip0)">
<path d="M21.5477 18H28.0727L31.0843 21V12.5C31.0843 11.4 30.1808 10.5 29.0766 10.5H21.5477C20.4435 10.5 19.54 11.4 19.54 12.5V16C19.54 17.1 20.4435 18 21.5477 18Z" fill="#FF5DBE"/>
<path d="M20.5444 16.5H14.0194L11.0078 19.5V11C11.0078 9.9 11.9113 9 13.0155 9H20.5444C21.6486 9 22.552 9.9 22.552 11V14.5C22.552 15.6 21.6486 16.5 20.5444 16.5Z" fill="#FFDCF1"/>
<path d="M15.0233 25C16.4093 25 17.5329 23.8807 17.5329 22.5C17.5329 21.1193 16.4093 20 15.0233 20C13.6373 20 12.5137 21.1193 12.5137 22.5C12.5137 23.8807 13.6373 25 15.0233 25Z" fill="#FFAD62"/>
<path d="M27.0692 25C28.4552 25 29.5788 23.8807 29.5788 22.5C29.5788 21.1193 28.4552 20 27.0692 20C25.6832 20 24.5596 21.1193 24.5596 22.5C24.5596 23.8807 25.6832 25 27.0692 25Z" fill="#FFAD62"/>
<path d="M19.0386 28C19.0386 28 17.9344 26 15.0232 26C12.112 26 11.0078 28 11.0078 28V29H19.0386V28Z" fill="#8BA0C0"/>
<path d="M31.0845 28C31.0845 28 29.9803 26 27.0691 26C24.1579 26 23.0537 28 23.0537 28V29H31.0845V28Z" fill="#8BA0C0"/>
</g>
<defs>
<clipPath id="clip0">
<rect width="24" height="22.7027" fill="white" transform="translate(8.96582 7.83789)"/>
</clipPath>
</defs>
</svg>
