<?xml version="1.0" encoding="utf-8"?>
<!-- Generator: Adobe Illustrator 18.0.0, SVG Export Plug-In . SVG Version: 6.00 Build 0)  -->
<svg version="1.2" baseProfile="tiny" id="Capa_1" xmlns="http://www.w3.org/2000/svg" xmlns:xlink="http://www.w3.org/1999/xlink"
	 x="0px" y="0px" viewBox="0 0 84 74" xml:space="preserve">
<g>
	<path fill="#D0CDFF" d="M58.52,19.6l-0.27-4.3C58.51,16.69,58.64,18.23,58.52,19.6z"/>
	<path fill="#D0CDFF" d="M66.396,42.923c-3.246,0-4.868-1.557-6.437-3.062c-1.492-1.432-2.901-2.784-5.746-2.784
		c-2.843,0-4.25,1.353-5.74,2.783c-1.568,1.506-3.188,3.062-6.433,3.062c-0.944,0-1.739-0.143-2.447-0.367l-4.258,2.527
		c-0.11,0.065-0.243,0.08-0.365,0.034c-0.112-0.042-0.213-0.144-0.253-0.266l-2.425-7.354c-0.689-0.257-1.474-0.42-2.43-0.42
		c-2.842,0-4.25,1.353-5.741,2.783c-1.567,1.506-3.188,3.062-6.433,3.062s-4.624-1.557-6.191-3.062C10.008,38.429,8,37.077,6,37.077
		v-1c3,0,4.624,1.557,6.191,3.062c1.49,1.431,2.778,2.783,5.619,2.783c2.842,0,4.189-1.352,5.68-2.783
		c1.567-1.506,3.158-3.062,6.403-3.062c0.754,0,1.413,0.091,2.01,0.239l-0.569-1.726c-0.032-0.087-0.028-0.181,0.003-0.266
		c0.002-0.004,0.007-0.006,0.008-0.01c0.001-0.004-0.001-0.009,0-0.013c0.032-0.084,0.09-0.158,0.17-0.208l3.577-2.259
		c0.112-0.07,0.252-0.083,0.373-0.038l7.892,2.959c0.122,0.046,0.218,0.149,0.256,0.274l1.147,3.843l0.065,0.211
		c0.005,0.027-0.006,0.052-0.005,0.08c0.006,0.065,0.015,0.132-0.006,0.189c-0.002,0.006-0.009,0.008-0.011,0.013
		c-0.032,0.079-0.091,0.155-0.166,0.198c-0.001,0.001-0.001,0.002-0.002,0.003l-2.497,1.481l-1.304,0.774
		c0.377,0.06,0.773,0.102,1.214,0.102c2.842,0,4.246-1.352,5.736-2.783c1.568-1.506,3.187-3.062,6.432-3.062
		c3.247,0,4.868,1.557,6.438,3.062c1.491,1.432,2.9,2.783,5.744,2.783c2.845,0,4.464-1.353,5.955-2.783
		c1.516-1.455,2.583-2.953,6.26-3.053C78.349,21.358,69.399,8.756,56.663,3.184c0.059,1.298,0.305,2.65,0.536,3.894l0.138,0.755
		c0.225,1.25,0.591,2.469,0.945,3.646c0.25,0.83,0.509,1.688,0.721,2.564c0.264,1.091,1.47,6.663-0.746,9.233
		c-0.721,0.836-1.708,1.259-2.94,1.259c-0.17,0-0.345-0.009-0.524-0.024c-0.026-0.002-0.048-0.016-0.073-0.022
		c-0.434,0.503-0.926,0.938-1.453,1.266c-0.886,0.55-2.308,1.085-3.394,1.092c-0.082,0.086-0.152,0.178-0.237,0.262
		c-1.13,1.112-2.234,1.681-3.222,1.681c-0.495,0-0.961-0.143-1.387-0.431c-1.56-1.057-0.765-3.532-0.127-4.693
		c0.16-0.291,0.348-0.556,0.535-0.818c0.263-0.368,0.511-0.717,0.651-1.126c0.218-0.633,0.263-1.303,0.13-1.937
		c-0.234-1.113-1.017-2.176-2.202-2.992c-0.909-0.627-1.964-1.062-2.968-1.438l-0.468-0.181c-0.446-0.175-0.858-0.33-1.276-0.427
		l-1.087-0.08c-1.047,0.106-2.066,0.546-2.873,1.25c-1.36,1.186-2.044,3.095-1.83,5.105c0.03,0.28,0.083,0.562,0.136,0.846
		c0.08,0.431,0.163,0.875,0.175,1.328c0.015,0.579-0.156,1.099-0.484,1.465c-0.348,0.389-0.814,0.576-1.337,0.56
		c-1.867-0.081-3.941-2.777-3.961-2.805c-0.424-0.565-0.761-1.222-1.021-1.927L27,20.47v-0.026
		c-0.292-0.808-0.477-1.682-0.527-2.588c-0.085-1.563,0.137-3.05,0.527-4.488V13l0.262-0.518c0.597-1.848,1.444-3.619,2.283-5.356
		l0.412-0.855c0.611-1.278,1.287-2.9,1.456-4.588C16.347,6.225,5.372,20.204,5.372,36.751C5.372,56.98,21.771,73.379,42,73.379
		c20.112,0,36.432-16.212,36.62-36.28c-2.736,0.114-4.151,1.395-5.575,2.761C71.476,41.366,69.643,42.923,66.396,42.923z
		 M50.85,35.616c0.007,0.275-0.211,0.394-0.487,0.401L46.658,36c-0.004,0-0.009,0-0.013,0c-0.271,0-0.493-0.096-0.5-0.368
		c-0.007-0.275,0.211-0.446,0.487-0.453l3.704-0.066C50.63,35.12,50.843,35.341,50.85,35.616z M46.111,32.752l3.407-1.457
		c0.253-0.108,0.548,0.009,0.656,0.264c0.108,0.254-0.01,0.548-0.264,0.656l-3.407,1.457c-0.063,0.027-0.131,0.04-0.196,0.04
		c-0.194,0-0.379-0.113-0.46-0.304C45.739,33.154,45.857,32.86,46.111,32.752z M27.96,27.979c0.205-0.185,0.521-0.169,0.706,0.038
		l2.474,2.759c0.185,0.206,0.167,0.521-0.038,0.706c-0.096,0.086-0.215,0.128-0.334,0.128c-0.137,0-0.273-0.056-0.372-0.166
		l-2.474-2.759C27.737,28.479,27.754,28.163,27.96,27.979z M25.708,33.089l3.7,0.222c0.275,0.015,0.487,0.095,0.472,0.372
		C29.866,33.949,29.646,34,29.382,34c-0.009,0-0.019,0-0.028,0l-3.7-0.037c-0.275-0.015-0.487-0.168-0.472-0.444
		C25.197,33.243,25.429,33.059,25.708,33.089z M32.904,53.442l5.274-0.759l-1.879,4.123l-6.41,1.187l3.238-1.825l-5.352-2.438
		L32.904,53.442z M39,59v5h-5v-5H39z M14.816,57.438l5.05-6.135c0,0,4.192-0.511,5.293,5.239L14.816,57.438z M29.798,64.414
		c-2.002,1.759-5.787,0.907-7.765-0.48c-0.82-0.575-1.488-1.443-1.593-2.439c-0.139-1.315,0.766-2.597,1.965-3.154
		c1.199-0.557,2.616-0.481,3.873-0.069c0.487,0.159,0.998,0.355,1.494,0.595c1.03,0.497,1.995,1.183,2.546,2.123
		C31.017,62.182,30.85,63.49,29.798,64.414z M53.886,59.325l-7.146,1.69l6.104,1.895l-10.087,4.014l9.095,2.178L30.74,67.365
		l15.999-4.067l-6.068-3.588l8.424-1.54l-4.792-3.567l9.584-2.848l-3.75,3.3L53.886,59.325z M60,63.37l-2.511,1.482L54,63.569
		v-2.834l6-2.198V63.37z M65.532,61.986L58.55,53.2l10.321,1.631L65.532,61.986z"/>
	<path fill="#08243E" d="M79,36.077c-0.135,0-0.259,0.006-0.388,0.01c-3.677,0.1-4.744,1.598-6.26,3.053
		c-1.491,1.431-3.11,2.783-5.955,2.783c-2.844,0-4.253-1.352-5.744-2.783c-1.569-1.506-3.19-3.062-6.438-3.062
		c-3.245,0-4.863,1.557-6.432,3.062c-1.49,1.432-2.894,2.783-5.736,2.783c-0.441,0-0.837-0.042-1.214-0.102l-1.24,0.736
		c0.708,0.224,1.503,0.367,2.447,0.367c3.245,0,4.865-1.557,6.433-3.062c1.49-1.431,2.897-2.783,5.74-2.783
		c2.845,0,4.254,1.353,5.746,2.784c1.568,1.505,3.19,3.062,6.437,3.062s5.079-1.557,6.648-3.062
		c1.424-1.366,2.839-2.647,5.575-2.761c0.129-0.005,0.245-0.022,0.38-0.022V36.077z"/>
	<path fill="#08243E" d="M29.893,36.077c-3.245,0-4.836,1.557-6.403,3.062c-1.491,1.432-2.838,2.783-5.68,2.783
		c-2.841,0-4.129-1.353-5.619-2.783C10.624,37.634,9,36.077,6,36.077v1c2,0,4.008,1.352,5.498,2.783
		c1.567,1.506,2.947,3.062,6.191,3.062s4.865-1.557,6.433-3.062c1.491-1.431,2.898-2.783,5.741-2.783c0.956,0,1.74,0.162,2.43,0.42
		l-0.389-1.181C31.306,36.168,30.647,36.077,29.893,36.077z"/>
	<path fill="#FFFFFF" d="M27,13v0.368c0.081-0.297,0.167-0.593,0.262-0.886L27,13z"/>
	<path fill="#FFFFFF" d="M27,20.47l0.02,0.02c-0.006-0.016-0.014-0.03-0.02-0.047V20.47z"/>
	<path fill="#FFFFFF" d="M38.214,14.668l1.087,0.08c-0.336-0.078-0.674-0.121-1.04-0.088C38.245,14.662,38.229,14.667,38.214,14.668
		z"/>
	<path fill="none" d="M58.25,15.3c-0.07-0.35-0.14-0.69-0.22-1.02c-0.21-0.85-0.46-1.7-0.71-2.51c-0.36-1.21-0.73-2.45-0.97-3.76
		l-0.14-0.75c-0.36-1.96-0.77-4.18-0.45-6.17c0.02-0.09,0.06-0.17,0.11-0.23L55.53-1H33l-0.58,1.55c0.02,0.04,0.03,0.09,0.04,0.14
		c0,0.13-0.01,0.26-0.01,0.39c-0.05,2.1-0.86,4.09-1.59,5.62l-0.41,0.86c-1.56,3.23-3.18,6.57-2.98,10.24
		c0.08,1.52,0.57,2.95,1.37,4.02c0.61,0.81,2.18,2.36,3.2,2.4c0.24,0.01,0.4-0.06,0.55-0.22c0.21-0.24,0.24-0.59,0.23-0.78
		c-0.01-0.37-0.08-0.76-0.16-1.17c-0.05-0.31-0.11-0.61-0.14-0.92c-0.25-2.34,0.56-4.57,2.16-5.97c0.98-0.85,2.22-1.38,3.49-1.5
		c1.05-0.1,1.93,0.25,2.77,0.58l0.46,0.18c1.06,0.4,2.18,0.86,3.18,1.55c1.4,0.96,2.33,2.24,2.61,3.61
		c0.17,0.81,0.12,1.66-0.16,2.47c-0.19,0.54-0.49,0.97-0.78,1.38c-0.17,0.23-0.33,0.46-0.47,0.72c-0.46,0.83-1.11,2.76-0.19,3.38
		c1.07,0.73,2.41-0.21,3.34-1.13c1.24-1.22,2.11-2.62,2.5-4.04c0.52-1.89,0.31-4-0.59-5.94l-0.06-0.14
		c-0.13-0.28-0.33-0.72-0.55-1.01c-0.14-0.18-0.13-0.43,0.01-0.6c0.02-0.03,0.05-0.07,0.08-0.1c0.22-0.17,0.54-0.13,0.7,0.1
		c0.29,0.37,0.52,0.87,0.67,1.2L51.75,16c1,2.15,1.23,4.5,0.64,6.62c-0.29,1.06-0.83,2.09-1.54,3.06c0.67-0.17,1.39-0.47,1.89-0.77
		c0.91-0.57,1.72-1.53,2.2-2.62c1.11-2.47,0.28-5.49-0.46-8.15l-0.09-0.34c-0.07-0.26,0.08-0.54,0.35-0.61s0.54,0.08,0.62,0.35
		l0.09,0.34c0.74,2.68,1.66,6.02,0.41,8.82c-0.13,0.28-0.28,0.55-0.44,0.82c0.88-0.02,1.57-0.31,2.08-0.9
		c0.61-0.71,0.91-1.8,1.02-3.02L58.25,15.3z M49.24,10.9c0.26-0.07,0.54,0.09,0.61,0.35l0.33,1.21c0.08,0.27-0.08,0.54-0.35,0.62
		c-0.04,0.01-0.08,0.01-0.13,0.01c-0.22,0-0.42-0.14-0.48-0.36l-0.33-1.21C48.81,11.25,48.97,10.98,49.24,10.9z M52.81,12.58
		c-0.04,0.02-0.09,0.02-0.13,0.02c-0.22,0-0.42-0.14-0.48-0.36c-0.03-0.1-0.04-0.19-0.05-0.29c-0.05-0.32-0.15-0.56-0.25-0.81
		l-0.08-0.2c-0.1-0.25,0.02-0.55,0.28-0.65c0.25-0.1,0.54,0.03,0.65,0.28l0.07,0.18c0.12,0.3,0.25,0.61,0.3,0.97l0.02,0.13
		c0.01,0.04,0.01,0.08,0.02,0.12C53.23,12.24,53.08,12.51,52.81,12.58z M56,11.79C55.97,12.05,55.76,12,55.51,12h-0.06
		c-0.28,0-0.47-0.06-0.44-0.33c0.06-0.44-0.02-0.795-0.2-1.195c-0.12-0.25-0.01-0.492,0.24-0.602c0.25-0.12,0.55-0.096,0.66,0.154
		C55.98,10.606,56.08,11.16,56,11.79z"/>
	<path fill="#08243E" d="M52.39,22.62c-0.29,1.06-0.83,2.09-1.54,3.06c-0.39,0.11-0.78,0.18-1.08,0.17
		c-0.27,0-0.51,0.275-0.52,0.555C49.24,26.685,49.46,27,49.73,27h0.12c0,0,0.01,0,0.02,0c-0.08,0-0.15,0.105-0.24,0.185
		c-1.13,1.11-2.23,1.642-3.22,1.642c-0.49,0-0.96-0.159-1.38-0.449c-1.56-1.06-0.77-3.539-0.13-4.699
		c0.16-0.29,0.35-0.565,0.53-0.825c0.27-0.37,0.51-0.722,0.65-1.132c0.22-0.63,0.27-1.301,0.13-1.931
		c-0.23-1.12-1.01-2.181-2.2-3.001c-0.91-0.62-1.96-1.06-2.97-1.43l-0.46-0.19c-0.45-0.17-0.86-0.33-1.28-0.42
		c-0.33-0.08-0.67-0.12-1.04-0.09c-0.02,0-0.03,0.01-0.05,0.01c-1.04,0.1-2.06,0.54-2.87,1.25c-1.36,1.18-2.04,3.09-1.83,5.1
		c0.03,0.28,0.08,0.57,0.14,0.85c0.08,0.43,0.16,0.87,0.17,1.33c0.02,0.58-0.15,1.1-0.48,1.46c-0.35,0.39-0.82,0.58-1.34,0.56
		c-1.86-0.08-3.94-2.78-3.96-2.8c-0.42-0.57-0.76-1.22-1.02-1.93c-0.01-0.02-0.01-0.03-0.02-0.05c-0.29-0.8-0.48-1.68-0.53-2.58
		c-0.08-1.57,0.14-3.05,0.53-4.49c0.08-0.3,0.17-0.59,0.26-0.89c0.6-1.85,1.45-3.62,2.28-5.35l0.42-0.86
		c0.61-1.28,1.28-2.9,1.45-4.59c0.03-0.32,0.06-0.64,0.05-0.97c-0.01-0.27,0.21-0.5,0.48-0.51c0.2-0.01,0.41,0.14,0.48,0.35
		c0.02,0.04,0.03,0.09,0.04,0.14c0,0.13-0.01,0.26-0.01,0.39c-0.05,2.1-0.86,4.09-1.59,5.62l-0.41,0.86
		c-1.56,3.23-3.18,6.57-2.98,10.24c0.08,1.52,0.57,2.95,1.37,4.02c0.61,0.81,2.18,2.36,3.2,2.4c0.24,0.01,0.4-0.06,0.55-0.22
		c0.21-0.24,0.24-0.59,0.23-0.78c-0.01-0.37-0.08-0.76-0.16-1.17c-0.05-0.31-0.11-0.61-0.14-0.92c-0.25-2.34,0.56-4.57,2.16-5.97
		c0.98-0.85,2.22-1.38,3.49-1.5c1.05-0.1,1.93,0.25,2.77,0.58l0.46,0.18c1.06,0.4,2.18,0.86,3.18,1.55c1.4,0.96,2.33,2.24,2.61,3.61
		c0.17,0.81,0.12,1.66-0.16,2.47c-0.19,0.54-0.49,0.97-0.78,1.38c-0.17,0.23-0.33,0.46-0.47,0.72c-0.46,0.83-1.11,2.76-0.19,3.38
		c1.07,0.73,2.41-0.21,3.34-1.13c1.24-1.22,2.11-2.62,2.5-4.04c0.52-1.89,0.31-4-0.59-5.94l-0.06-0.14
		c-0.13-0.28-0.33-0.72-0.55-1.01c-0.14-0.18-0.13-0.43,0.01-0.6c0.02-0.03,0.05-0.07,0.08-0.1c0.22-0.17,0.54-0.13,0.7,0.1
		c0.29,0.37,0.52,0.87,0.67,1.2L51.75,16C52.75,18.15,52.98,20.5,52.39,22.62z"/>
	<path fill="#08243E" d="M49.83,13.08c-0.04,0.01-0.08,0.01-0.13,0.01c-0.22,0-0.42-0.14-0.48-0.36l-0.33-1.21
		c-0.08-0.27,0.08-0.54,0.35-0.62c0.26-0.07,0.54,0.09,0.61,0.35l0.33,1.21C50.26,12.73,50.1,13,49.83,13.08z"/>
	<path fill="#08243E" d="M55.86,22.7c-0.13,0.28-0.28,0.55-0.44,0.82c-0.18,0-0.35,0.01-0.54,0c-0.28-0.03-0.52,0.17-0.54,0.45
		c-0.02,0.25,0.14,0.46,0.38,0.52c-0.44,0.5-0.93,1.015-1.46,1.345C52.38,26.385,50.96,27,49.87,27c-0.01,0-0.02,0-0.02,0h-0.12
		c-0.27,0-0.49-0.315-0.48-0.595c0.01-0.28,0.25-0.517,0.52-0.517c0.3,0.01,0.69-0.079,1.08-0.189c0.67-0.17,1.39-0.479,1.89-0.779
		c0.91-0.57,1.72-1.535,2.2-2.625c1.11-2.47,0.28-5.492-0.46-8.152l-0.09-0.341c-0.07-0.26,0.08-0.541,0.35-0.611
		s0.54,0.08,0.62,0.35l0.09,0.34C56.19,16.56,57.11,19.9,55.86,22.7z"/>
	<path fill="#08243E" d="M58.26,23.28c-0.72,0.83-1.71,1.26-2.94,1.26c-0.17,0-0.35-0.01-0.53-0.03c-0.03,0-0.05-0.01-0.07-0.02
		c-0.24-0.06-0.4-0.27-0.38-0.52c0.02-0.28,0.26-0.48,0.54-0.45c0.19,0.01,0.36,0,0.54,0c0.88-0.02,1.57-0.31,2.08-0.9
		c0.61-0.71,0.91-1.8,1.02-3.02c0.12-1.37-0.01-2.91-0.27-4.3c-0.07-0.35-0.14-0.69-0.22-1.02c-0.21-0.85-0.46-1.7-0.71-2.51
		c-0.36-1.21-0.73-2.45-0.97-3.76l-0.14-0.75c-0.36-1.96-0.77-4.18-0.45-6.17c0.02-0.09,0.06-0.17,0.11-0.23
		c0.11-0.13,0.28-0.21,0.46-0.18c0.28,0.04,0.46,0.3,0.42,0.57c-0.1,0.62-0.12,1.27-0.09,1.93c0.06,1.3,0.31,2.65,0.54,3.9
		l0.14,0.75c0.22,1.25,0.59,2.47,0.94,3.65c0.25,0.83,0.51,1.69,0.72,2.56C59.27,15.13,60.47,20.71,58.26,23.28z"/>
	<path fill="#08243E" d="M52.81,12.58c-0.04,0.02-0.09,0.02-0.13,0.02c-0.22,0-0.42-0.14-0.48-0.36c-0.03-0.1-0.04-0.19-0.05-0.29
		c-0.05-0.32-0.15-0.56-0.25-0.81l-0.08-0.2c-0.1-0.25,0.02-0.55,0.28-0.65c0.25-0.1,0.54,0.03,0.65,0.28l0.07,0.18
		c0.12,0.3,0.25,0.61,0.3,0.97l0.02,0.13c0.01,0.04,0.01,0.08,0.02,0.12C53.23,12.24,53.08,12.51,52.81,12.58z"/>
	<path fill="#08243E" d="M56,11.79C55.97,12.05,55.76,12,55.51,12h-0.06c-0.28,0-0.47-0.06-0.44-0.33
		c0.06-0.44-0.02-0.795-0.2-1.195c-0.12-0.25-0.01-0.492,0.24-0.602c0.25-0.12,0.55-0.096,0.66,0.154
		C55.98,10.606,56.08,11.16,56,11.79z"/>
	<polygon fill="#FFFFFF" points="40.661,36.942 42.423,35.305 39.905,34.361 	"/>
	<polygon fill="#FFFFFF" points="38.327,33.769 35.809,32.825 36.061,35.217 	"/>
	<path fill="#FFFFFF" d="M35.337,45.081c-0.11,0.065-0.245,0.076-0.363,0.032c-0.116-0.044-0.211-0.139-0.252-0.263l-3.381-10.268
		c-0.028-0.084-0.024-0.179,0.005-0.267c-0.002,0.004-0.007,0.006-0.008,0.01c-0.032,0.084-0.035,0.179-0.003,0.266l0.569,1.726
		l0.389,1.181l2.425,7.354c0.04,0.122,0.141,0.224,0.253,0.266c0.122,0.046,0.255,0.032,0.365-0.034l4.258-2.527l1.24-0.736
		l1.304-0.774L35.337,45.081z"/>
	<polygon fill="#FFFFFF" points="39.807,37.024 39.017,34.328 36.65,35.84 	"/>
	<polygon fill="#FFFFFF" points="40.594,38.219 36.765,43.254 43.449,39.29 	"/>
	<polygon fill="#FFFFFF" points="43,35.92 41.234,37.559 43.773,38.511 	"/>
	<path fill="#FFFFFF" d="M44.803,39.365c-0.035,0.082-0.093,0.154-0.166,0.198C44.713,39.52,44.771,39.444,44.803,39.365z"/>
	<polygon fill="#FFFFFF" points="34.97,32.909 32.683,34.353 35.222,35.305 	"/>
	<path fill="#FFFFFF" d="M44.821,39.162c-0.002-0.027,0.01-0.052,0.005-0.08l-0.065-0.211l0.063,0.211
		C44.832,39.11,44.819,39.135,44.821,39.162z"/>
	<polygon fill="#FFFFFF" points="35.271,36.224 32.416,35.153 34.846,42.535 	"/>
	<polygon fill="#FFFFFF" points="39.77,37.91 36.095,36.533 35.636,43.345 	"/>
	<path fill="#08243E" d="M34.721,44.85c0.041,0.123,0.136,0.219,0.252,0.263c0.118,0.044,0.252,0.033,0.363-0.032l6.801-4.034
		l2.497-1.481c0.001-0.001,0.001-0.002,0.002-0.003c0.073-0.044,0.131-0.117,0.166-0.198c0.002-0.005,0.009-0.008,0.011-0.013
		c0.022-0.058,0.012-0.124,0.006-0.189c-0.002-0.027,0.011-0.053,0.003-0.079l-0.063-0.211l-1.147-3.843
		c-0.037-0.125-0.134-0.228-0.256-0.274l-7.892-2.959c-0.121-0.045-0.261-0.032-0.373,0.038l-3.577,2.259
		c-0.079,0.05-0.138,0.124-0.17,0.208c-0.002,0.004,0.001,0.009,0,0.013c-0.029,0.087-0.033,0.183-0.005,0.267L34.721,44.85z
		 M34.846,42.535l-2.43-7.382l2.855,1.07L34.846,42.535z M34.97,32.909l0.252,2.396l-2.539-0.952L34.97,32.909z M43,35.92
		l0.774,2.592l-2.539-0.952L43,35.92z M40.661,36.942l-0.756-2.581l2.518,0.944L40.661,36.942z M39.807,37.024L36.65,35.84
		l2.367-1.513L39.807,37.024z M38.327,33.769l-2.266,1.448l-0.252-2.392L38.327,33.769z M36.095,36.533l3.674,1.378l-4.133,5.435
		L36.095,36.533z M36.765,43.254l3.829-5.035l2.855,1.071L36.765,43.254z"/>
	<polygon fill="#9191ED" points="54,63.569 57.489,64.852 60,63.37 60,58.536 54,60.734 	"/>
	<path fill="#9191ED" d="M27.773,58.866c-0.496-0.24-1.007-0.435-1.494-0.595c-1.257-0.411-2.674-0.488-3.873,0.069
		c-1.199,0.557-2.105,1.839-1.965,3.154c0.106,0.996,0.773,1.865,1.593,2.439c1.978,1.386,5.762,2.239,7.765,0.48
		c1.051-0.924,1.219-2.232,0.52-3.424C29.768,60.049,28.802,59.363,27.773,58.866z"/>
	<polygon fill="#9191ED" points="29.888,57.993 36.298,56.807 38.177,52.683 32.904,53.442 27.774,53.73 33.126,56.169 	"/>
	<path fill="#9191ED" d="M19.866,51.303l-5.05,6.135l10.343-0.896C24.058,50.792,19.866,51.303,19.866,51.303z"/>
	<polygon fill="#9191ED" points="65.532,61.986 68.871,54.832 58.55,53.2 	"/>
	<polygon fill="#9191ED" points="44.303,54.603 49.095,58.171 40.671,59.71 46.739,63.298 30.74,67.365 51.852,69.101 
		42.758,66.923 52.845,62.91 46.741,61.015 53.886,59.325 50.136,55.056 53.886,51.756 	"/>
	<rect x="34" y="59" fill="#9191ED" width="5" height="5"/>
	<path fill="#08243E" d="M30.396,31.443c0.099,0.11,0.235,0.166,0.372,0.166c0.119,0,0.238-0.042,0.334-0.128
		c0.206-0.185,0.223-0.5,0.038-0.706l-2.474-2.759c-0.185-0.207-0.501-0.223-0.706-0.038c-0.206,0.185-0.223,0.5-0.038,0.706
		L30.396,31.443z"/>
	<path fill="#08243E" d="M25.654,33.963l3.7,0.037c0.009,0,0.019,0,0.028,0c0.264,0,0.484-0.051,0.499-0.318
		c0.015-0.276-0.196-0.357-0.472-0.372l-3.7-0.222c-0.28-0.029-0.512,0.154-0.526,0.431C25.167,33.796,25.378,33.949,25.654,33.963z
		"/>
	<path fill="#08243E" d="M46.146,35.632c0.007,0.271,0.229,0.368,0.5,0.368c0.004,0,0.009,0,0.013,0l3.704,0.016
		c0.276-0.007,0.494-0.125,0.487-0.401s-0.22-0.496-0.513-0.502l-3.704,0.066C46.356,35.186,46.139,35.357,46.146,35.632z"/>
	<path fill="#08243E" d="M46.308,33.712c0.065,0,0.133-0.013,0.196-0.04l3.407-1.457c0.254-0.108,0.372-0.402,0.264-0.656
		c-0.108-0.255-0.403-0.372-0.656-0.264l-3.407,1.457c-0.254,0.108-0.372,0.402-0.264,0.656
		C45.929,33.599,46.113,33.712,46.308,33.712z"/>
</g>
</svg>
