<?xml version="1.0" encoding="utf-8"?>
<!-- Generator: Adobe Illustrator 18.0.0, SVG Export Plug-In . SVG Version: 6.00 Build 0)  -->
<svg version="1.2" baseProfile="tiny" id="Capa_1" xmlns="http://www.w3.org/2000/svg" xmlns:xlink="http://www.w3.org/1999/xlink"
	 x="0px" y="0px" viewBox="0 0 84 74" xml:space="preserve">
<g>
	<path fill="#FFDCBB" d="M75.744,27.704c-0.434,0.432-0.882,0.851-1.33,1.271c-1.103,1.034-2.243,2.103-3.133,3.324
		c-1.247,1.714-1.757,3.467-1.76,6.05c-0.001,1.234-0.119,2.64-0.991,3.708c-0.695,0.853-1.796,1.296-2.935,1.296
		c-0.88,0-1.782-0.264-2.537-0.808c-3.433-2.465-2.343-8.281-0.773-11.589c0.356-0.749,0.775-1.463,1.247-2.122
		c0.14-0.195,0.308-0.388,0.479-0.581c0.28-0.316,0.544-0.615,0.64-0.911c0.183-0.563,0.145-1.036-0.115-1.443
		c-0.59-0.928-2.268-1.443-3.643-1.616c-2.276-0.287-4.663-0.082-6.972,0.116c-0.868,0.074-1.734,0.149-2.594,0.198
		c-2.739,0.159-6.337,0.229-9.831-0.637c-0.627-0.154-1.287-0.351-1.865-0.74c-0.702-0.472-1.149-1.159-1.226-1.884
		c-0.111-1.034,0.52-2.08,1.688-2.797c1.675-1.028,3.507-1.076,5.278-1.122l0.782-0.023c0.78-0.029,1.559-0.079,2.338-0.129
		c1.415-0.09,2.873-0.189,4.34-0.152c0.947,0.019,1.905,0.021,2.859,0.008c-0.641-0.529-1.173-1.188-1.418-1.901
		c-0.531-1.545,0.133-3.296,0.932-4.42c0.372-0.524,0.834-0.987,1.362-1.374c-0.399-0.154-0.707-0.365-0.935-0.57
		c-0.887-0.797-1.144-1.966-1.088-2.795c0.075-1.138,0.644-2.253,1.542-3.126C51.75,1.125,46.993,0.122,42,0.122
		c-20.229,0-36.628,16.399-36.628,36.628c0,3.386,0.469,6.66,1.329,9.772c0.273-0.269,0.544-0.54,0.82-0.807
		c1.089-1.051,2.215-2.138,3.087-3.374c1.222-1.733,1.705-3.493,1.668-6.075c-0.018-1.234,0.079-2.642,0.935-3.723
		c1.21-1.529,3.713-1.792,5.466-0.57c3.469,2.414,2.466,8.245,0.946,11.576c-0.343,0.75-0.751,1.471-1.215,2.141
		c-0.136,0.196-0.302,0.391-0.47,0.587c-0.275,0.321-0.536,0.624-0.628,0.922c-0.173,0.565-0.128,1.037,0.138,1.441
		c0.604,0.918,2.29,1.409,3.667,1.562c2.278,0.251,4.658,0.012,6.959-0.221c0.871-0.088,1.738-0.176,2.601-0.238
		c2.737-0.2,6.332-0.323,9.839,0.488c0.631,0.146,1.294,0.334,1.876,0.712c0.709,0.462,1.167,1.142,1.255,1.865
		c0.127,1.033-0.488,2.089-1.646,2.822c-1.659,1.053-3.49,1.129-5.26,1.201l-0.783,0.036c-0.781,0.041-1.561,0.103-2.34,0.164
		c-1.412,0.111-2.908,0.247-4.331,0.218c-0.952,0.001-1.907,0.008-2.859,0.035c0.647,0.52,1.189,1.17,1.445,1.88
		c0.554,1.534-0.083,3.296-0.863,4.433c-0.365,0.529-0.82,1-1.343,1.394c0.401,0.148,0.711,0.354,0.941,0.556
		c0.898,0.783,1.174,1.949,1.132,2.779c-0.034,0.658-0.235,1.311-0.562,1.918c4.534,2.01,9.546,3.135,14.825,3.135
		c20.229,0,36.628-16.399,36.628-36.628c0-3.688-0.551-7.247-1.565-10.604C76.668,26.695,76.232,27.22,75.744,27.704z
		 M59.096,44.845l3.699,0.204c0.275,0.015,0.487,0.226,0.472,0.502C63.252,45.818,63.031,46,62.768,46c-0.009,0-0.018,0-0.027,0
		l-3.699-0.176c-0.275-0.015-0.487-0.237-0.472-0.514C58.585,45.035,58.795,44.825,59.096,44.845z M31,10.22
		c0-0.2,0.183-0.381,0.317-0.515l2.44-2.388l0.41,0.381c0.098,0.098,0.173,0.236,0.173,0.385c0,0.04,0.003,0.151-0.004,0.188
		L33.994,10h2.294c0.193,0,0.37,0.005,0.506,0.141C36.93,10.277,37,10.39,37,10.583v0.726c0,0.094-0.011,0.181-0.044,0.265
		l-1.093,2.771C35.754,14.606,35.5,15,35.199,15h-3.267c-0.193,0-0.48-0.289-0.616-0.425C31.18,14.439,31,14.042,31,13.849V10.22z
		 M29,10h1v5h-1V10z M19,18.951V22h-1v-7.676c0-0.123,0.119-0.24,0.206-0.327s0.24-0.135,0.363-0.135
		c0.123,0,0.225,0.049,0.312,0.135c0.087,0.087,0.12,0.204,0.12,0.327v0.407c1-0.204,1.19-0.407,1.884-0.407
		c1.388,0,1.364,0.925,2.289,0.925c1.388,0,1.827-0.925,1.827-0.925v3.702c0,0-0.422,0.925-1.81,0.925s-1.401-0.925-2.326-0.925
		C19.476,18.025,19,18.951,19,18.951z M24.381,28c-0.009,0-0.018,0-0.027,0l-3.7-0.037c-0.275-0.015-0.487-0.168-0.472-0.444
		c0.016-0.275,0.227-0.454,0.526-0.431l3.7,0.222c0.275,0.015,0.487,0.095,0.472,0.372C24.865,27.949,24.645,28,24.381,28z
		 M25.396,25.443l-2.474-2.759c-0.185-0.206-0.167-0.521,0.038-0.706s0.521-0.169,0.706,0.038l2.474,2.759
		c0.185,0.206,0.167,0.521-0.038,0.706c-0.096,0.086-0.215,0.128-0.334,0.128C25.631,25.609,25.494,25.554,25.396,25.443z M27.5,46
		c-0.828,0-1.5-0.672-1.5-1.5v-15c0-0.828,0.672-1.5,1.5-1.5h28c0.828,0,1.5,0.672,1.5,1.5V43v1v0.5c0,0.828-0.672,1.5-1.5,1.5H27.5
		z M61.865,65H42.727c-0.659,0-1.196-0.341-1.196-1s0.537-1,1.196-1h19.139c0.659,0,1.195,0.34,1.195,1S62.524,65,61.865,65z
		 M65.844,61H46.705c-0.659,0-1.195-0.341-1.195-1s0.536-1,1.195-1h19.139c0.659,0,1.196,0.341,1.196,1S66.503,61,65.844,61z
		 M69.618,57H50.479c-0.659,0-1.195-0.34-1.195-1s0.536-1,1.195-1h19.139c0.659,0,1.196,0.341,1.196,1S70.277,57,69.618,57z
		 M71.523,53H52.385c-0.659,0-1.195-0.341-1.195-1s0.536-1,1.195-1h7.251l-2.327-2.595c-0.185-0.206-0.167-0.521,0.038-0.706
		c0.205-0.186,0.521-0.169,0.706,0.038l2.475,2.759c0.128,0.143,0.152,0.336,0.091,0.504h10.905c0.659,0,1.196,0.34,1.196,1
		S72.183,53,71.523,53z"/>
	<path fill="#FFFFFF" d="M59.921,2.267C58.765,2.51,57.81,2.95,57.082,3.574c-0.812,0.696-1.312,1.631-1.375,2.563
		c-0.035,0.529,0.128,1.333,0.705,1.851c0.511,0.46,1.25,0.611,2.198,0.443c0.305-0.053,0.597,0.141,0.668,0.44
		c0.07,0.3-0.104,0.604-0.4,0.691c-1.12,0.336-2.088,1.015-2.723,1.91c-0.603,0.848-1.169,2.237-0.78,3.366
		c0.33,0.96,1.51,1.873,2.521,2.229c1.98-0.066,3.902-0.178,5.656-0.29c0.322-0.019,0.598,0.223,0.618,0.544
		c0.021,0.32-0.223,0.598-0.544,0.618c-0.017,0.001-0.033,0.002-0.05,0.004l-5.508,0.354c-0.057,0.005-0.122-0.002-0.181-0.017
		c-0.052-0.013-0.104-0.027-0.156-0.043c-1.623,0.052-3.282,0.07-4.924,0.037c-1.418-0.03-2.851,0.063-4.241,0.15
		c-0.789,0.051-1.578,0.101-2.367,0.131l-0.797,0.024c-1.692,0.044-3.29,0.086-4.699,0.95c-0.599,0.367-1.212,1.001-1.139,1.68
		c0.04,0.377,0.309,0.766,0.718,1.041c0.404,0.272,0.89,0.427,1.494,0.576c3.343,0.828,6.825,0.757,9.485,0.605
		c0.848-0.05,1.703-0.123,2.561-0.197c2.367-0.203,4.815-0.414,7.218-0.111c1.018,0.129,3.492,0.595,4.479,2.147
		c0.451,0.708,0.532,1.524,0.241,2.426c-0.171,0.528-0.546,0.952-0.877,1.326c-0.144,0.162-0.287,0.322-0.404,0.486
		c-0.432,0.604-0.815,1.258-1.142,1.944c-1.349,2.842-2.433,8.108,0.4,10.144c1.23,0.883,3.047,0.754,3.89-0.279
		c0.641-0.785,0.729-1.943,0.729-2.972c0.002-2.815,0.595-4.829,1.982-6.735c0.954-1.311,2.136-2.418,3.278-3.488
		c0.439-0.412,0.879-0.824,1.306-1.247c3.833-3.805,4.457-10.299,4.557-12.198c0.005-0.105,0.049-0.195,0.105-0.276L60.29,2.01
		C60.209,2.137,60.08,2.233,59.921,2.267z M65.871,12.859c-0.285,0.002-0.596-0.102-0.924,0.028C64.567,13.039,64.137,13,63.652,13
		c-0.008,0-0.016,0-0.022,0c-0.325,0-0.594-0.087-0.605-0.414c-0.012-0.335,0.249-0.531,0.583-0.543
		c0.276-0.01,0.575,0.148,0.893,0.022C64.897,11.907,65.35,12,65.861,12c0.002,0,0.004,0,0.005,0c0.332,0,0.604,0.033,0.605,0.366
		C66.475,12.701,66.205,12.857,65.871,12.859z M68.269,18.543c-0.321,0.195-0.58,0.389-0.791,0.591
		c-0.117,0.112-0.269,0.168-0.419,0.168c-0.159,0-0.318-0.062-0.438-0.187c-0.231-0.242-0.223-0.625,0.019-0.856
		c0.275-0.264,0.602-0.509,0.998-0.751c0.287-0.173,0.658-0.084,0.833,0.202C68.645,17.995,68.554,18.368,68.269,18.543z
		 M64.076,4.753c0.327-0.049,0.635,0.192,0.676,0.525c0.042,0.332-0.193,0.635-0.525,0.676c-0.466,0.059-0.931,0.134-1.396,0.209
		l-0.17-0.586l-0.023-0.609C63.116,4.89,63.596,4.812,64.076,4.753z"/>
	<path fill="#08243E" d="M55.633,8.854c0.228,0.205,0.535,0.416,0.935,0.57c-0.528,0.387-0.99,0.85-1.362,1.374
		c-0.799,1.124-1.463,2.875-0.932,4.42c0.245,0.713,0.777,1.372,1.418,1.901c-0.954,0.013-1.912,0.011-2.859-0.008
		c-1.467-0.037-2.925,0.062-4.34,0.152c-0.779,0.05-1.558,0.1-2.338,0.129l-0.782,0.023c-1.771,0.046-3.604,0.094-5.278,1.122
		c-1.168,0.717-1.799,1.763-1.688,2.797c0.076,0.725,0.523,1.412,1.226,1.884c0.578,0.39,1.238,0.586,1.865,0.74
		c3.494,0.865,7.092,0.796,9.831,0.637c0.859-0.049,1.726-0.124,2.594-0.198c2.309-0.198,4.695-0.403,6.972-0.116
		c1.375,0.173,3.053,0.688,3.643,1.616c0.26,0.407,0.298,0.88,0.115,1.443c-0.096,0.296-0.359,0.595-0.64,0.911
		c-0.172,0.193-0.34,0.386-0.479,0.581c-0.472,0.659-0.891,1.373-1.247,2.122c-1.569,3.308-2.659,9.124,0.773,11.589
		c0.755,0.544,1.657,0.808,2.537,0.808c1.139,0,2.239-0.443,2.935-1.296c0.872-1.068,0.99-2.474,0.991-3.708
		c0.003-2.583,0.513-4.336,1.76-6.05c0.89-1.222,2.03-2.29,3.133-3.324c0.448-0.42,0.896-0.839,1.33-1.271
		c0.488-0.484,0.924-1.009,1.319-1.557c2.956-4.096,3.488-9.638,3.581-11.407c0.017-0.321-0.23-0.595-0.552-0.612
		c-0.194-0.005-0.391,0.107-0.507,0.276c-0.056,0.081-0.099,0.171-0.105,0.276c-0.1,1.899-0.724,8.394-4.557,12.198
		c-0.427,0.423-0.866,0.835-1.306,1.247c-1.143,1.07-2.324,2.178-3.278,3.488c-1.388,1.906-1.98,3.92-1.982,6.735
		c-0.001,1.028-0.089,2.187-0.729,2.972c-0.843,1.033-2.659,1.162-3.89,0.279c-2.833-2.035-1.749-7.302-0.4-10.144
		c0.326-0.687,0.71-1.341,1.142-1.944c0.117-0.164,0.261-0.324,0.404-0.486c0.331-0.374,0.706-0.798,0.877-1.326
		c0.291-0.901,0.21-1.718-0.241-2.426c-0.987-1.553-3.462-2.019-4.479-2.147c-2.402-0.303-4.851-0.092-7.218,0.111
		c-0.857,0.074-1.713,0.147-2.561,0.197c-2.66,0.151-6.143,0.223-9.485-0.605c-0.604-0.149-1.09-0.304-1.494-0.576
		c-0.409-0.275-0.678-0.664-0.718-1.041c-0.073-0.679,0.54-1.312,1.139-1.68c1.409-0.864,3.007-0.906,4.699-0.95l0.797-0.024
		c0.789-0.03,1.578-0.08,2.367-0.131c1.391-0.087,2.823-0.181,4.241-0.15c1.642,0.033,3.301,0.015,4.924-0.037
		c0.053,0.016,0.104,0.03,0.156,0.043c0.059,0.015,0.124,0.021,0.181,0.017l5.508-0.354c0.017-0.002,0.033-0.003,0.05-0.004
		c0.321-0.021,0.564-0.298,0.544-0.618c-0.021-0.321-0.296-0.562-0.618-0.544c-1.754,0.112-3.676,0.224-5.656,0.29
		c-1.011-0.355-2.19-1.269-2.521-2.229c-0.389-1.129,0.178-2.519,0.78-3.366c0.635-0.896,1.603-1.574,2.723-1.91
		c0.296-0.088,0.471-0.392,0.4-0.691c-0.071-0.3-0.363-0.493-0.668-0.44c-0.948,0.168-1.688,0.017-2.198-0.443
		c-0.577-0.518-0.74-1.321-0.705-1.851c0.062-0.933,0.563-1.867,1.375-2.563c0.728-0.624,1.683-1.064,2.839-1.308
		c0.159-0.034,0.288-0.129,0.37-0.256c0.08-0.124,0.114-0.279,0.081-0.434c-0.067-0.315-0.38-0.509-0.69-0.45
		c-1.35,0.285-2.479,0.811-3.356,1.563c-0.088,0.075-0.155,0.165-0.237,0.244c-0.899,0.873-1.467,1.987-1.542,3.126
		C54.489,6.889,54.746,8.058,55.633,8.854z"/>
	<path fill="#08243E" d="M65.872,11.953c-0.384-0.046-0.842,0.006-1.02,0.018c-0.495,0.035-1.853-0.089-1.828,0.615
		c0.022,0.607,1.247,0.451,1.607,0.42c0.442-0.038,1.846-0.009,1.841-0.64C66.469,12.102,66.197,11.993,65.872,11.953z"/>
	<path fill="#08243E" d="M62.939,6.044c0.252,0.133,0.557,0.134,0.833,0.064c0.407-0.103,1.045-0.311,0.979-0.83
		c-0.072-0.57-0.707-0.552-1.145-0.499C63.3,4.817,62.892,4.836,62.681,5.1C62.421,5.426,62.582,5.848,62.939,6.044z"/>
	<path fill="#08243E" d="M67.638,17.508c-0.396,0.242-0.723,0.487-0.998,0.751c-0.241,0.231-0.25,0.614-0.019,0.856
		c0.119,0.124,0.278,0.187,0.438,0.187c0.15,0,0.302-0.056,0.419-0.168c0.211-0.202,0.47-0.396,0.791-0.591
		c0.285-0.175,0.376-0.548,0.202-0.833C68.296,17.424,67.925,17.335,67.638,17.508z"/>
	<path fill="#FFFFFF" d="M22.418,72.201c1.153-0.262,2.102-0.716,2.819-1.351c0.801-0.709,1.288-1.65,1.336-2.584
		c0.027-0.531-0.148-1.332-0.733-1.842c-0.518-0.451-1.258-0.588-2.203-0.409c-0.308,0.058-0.599-0.131-0.674-0.43
		c-0.076-0.299,0.095-0.604,0.389-0.698c1.115-0.353,2.072-1.045,2.695-1.95c0.588-0.857,1.133-2.256,0.728-3.377
		c-0.345-0.956-1.538-1.851-2.554-2.19c-1.98,0.096-3.9,0.235-5.651,0.375c-0.32,0.017-0.602-0.214-0.627-0.535
		c-0.025-0.32,0.214-0.601,0.535-0.627l5.552-0.441c0.056-0.004,0.121,0,0.181,0.015c0.052,0.012,0.104,0.025,0.157,0.04
		c1.621-0.075,3.289-0.119,4.923-0.11c1.423,0.004,2.846-0.105,4.233-0.215c0.79-0.062,1.579-0.125,2.369-0.167l0.798-0.036
		c1.69-0.069,3.288-0.135,4.684-1.021c0.593-0.375,1.196-1.019,1.113-1.696c-0.046-0.376-0.32-0.761-0.734-1.03
		c-0.406-0.265-0.895-0.412-1.503-0.554c-3.354-0.775-6.832-0.653-9.492-0.461c-0.851,0.062-1.707,0.148-2.567,0.235
		c-2.36,0.238-4.8,0.487-7.205,0.22c-1.02-0.113-3.501-0.543-4.512-2.08c-0.462-0.702-0.555-1.517-0.277-2.423
		c0.163-0.53,0.532-0.96,0.857-1.34c0.142-0.164,0.281-0.325,0.396-0.491c0.424-0.612,0.798-1.271,1.111-1.96
		c1.307-2.862,2.312-8.145-0.552-10.137c-1.243-0.869-3.06-0.708-3.886,0.337c-0.629,0.795-0.698,1.954-0.685,2.983
		c0.041,2.812-0.521,4.836-1.881,6.764c-0.935,1.326-2.101,2.452-3.229,3.541c-0.433,0.417-0.865,0.835-1.284,1.263
		C3.271,51.68,2.745,58.182,2.674,60.082c-0.004,0.105-0.044,0.197-0.098,0.28l19.477,12.1
		C22.132,72.334,22.26,72.237,22.418,72.201z M13.825,56.053c0.322-0.204,0.578-0.402,0.784-0.604
		c0.239-0.234,0.621-0.23,0.856,0.007c0.234,0.238,0.231,0.621-0.007,0.856c-0.268,0.264-0.59,0.514-0.985,0.765
		c-0.101,0.063-0.213,0.094-0.323,0.094c-0.201,0-0.397-0.1-0.513-0.281C13.459,56.606,13.543,56.232,13.825,56.053z M16.325,63
		c-0.328,0-0.598-0.249-0.605-0.578c-0.008-0.335,0.257-0.606,0.591-0.614c0.285-0.007,0.593-0.131,0.919-0.266
		c0.378-0.157,0.807-0.333,1.292-0.358c0.289-0.037,0.618,0.239,0.635,0.575c0.018,0.334-0.24,0.619-0.574,0.635
		c-0.275,0.015-0.573,0.125-0.888,0.256C17.299,62.815,16.851,63,16.34,63C16.335,63,16.33,63,16.325,63z M19.734,69.527
		c-0.502,0.089-1.004,0.178-1.508,0.249c-0.029,0.004-0.058,0.006-0.086,0.006c-0.297,0-0.556-0.218-0.599-0.521
		c-0.047-0.331,0.184-0.638,0.515-0.685c0.49-0.069,0.979-0.156,1.467-0.243c0.321-0.057,0.643,0.161,0.702,0.491
		C20.284,69.154,20.064,69.469,19.734,69.527z"/>
	<path fill="#08243E" d="M26.605,65.547c-0.23-0.201-0.54-0.407-0.941-0.556c0.522-0.394,0.978-0.864,1.343-1.394
		c0.78-1.137,1.417-2.898,0.863-4.433c-0.256-0.71-0.798-1.36-1.445-1.88c0.952-0.027,1.907-0.034,2.859-0.035
		c1.423,0.029,2.919-0.106,4.331-0.218c0.779-0.062,1.559-0.123,2.34-0.164l0.783-0.036c1.77-0.072,3.601-0.148,5.26-1.201
		c1.157-0.733,1.772-1.789,1.646-2.822c-0.088-0.724-0.546-1.403-1.255-1.865c-0.582-0.378-1.245-0.565-1.876-0.712
		c-3.507-0.812-7.102-0.688-9.839-0.488c-0.862,0.062-1.729,0.15-2.601,0.238c-2.301,0.232-4.681,0.472-6.959,0.221
		c-1.377-0.152-3.063-0.644-3.667-1.562c-0.266-0.404-0.311-0.876-0.138-1.441c0.092-0.298,0.353-0.601,0.628-0.922
		c0.168-0.196,0.334-0.391,0.47-0.587c0.464-0.67,0.872-1.391,1.215-2.141c1.52-3.331,2.522-9.162-0.946-11.576
		c-1.753-1.222-4.256-0.959-5.466,0.57c-0.855,1.081-0.952,2.488-0.935,3.723c0.037,2.582-0.446,4.342-1.668,6.075
		c-0.872,1.236-1.998,2.323-3.087,3.374c-0.276,0.267-0.547,0.538-0.82,0.807c-0.162,0.16-0.328,0.317-0.487,0.48
		C2.146,51.164,1.585,58.032,1.51,60.039c-0.012,0.321,0.238,0.592,0.561,0.604c0.208,0.006,0.396-0.11,0.506-0.281
		c0.053-0.083,0.094-0.175,0.098-0.28c0.071-1.9,0.597-8.402,4.372-12.265c0.419-0.428,0.852-0.846,1.284-1.263
		c1.128-1.089,2.294-2.215,3.229-3.541c1.359-1.928,1.922-3.951,1.881-6.764c-0.014-1.029,0.056-2.188,0.685-2.983
		c0.826-1.045,2.643-1.206,3.886-0.337c2.863,1.992,1.858,7.274,0.552,10.137c-0.313,0.688-0.688,1.348-1.111,1.96
		c-0.115,0.166-0.255,0.327-0.396,0.491c-0.325,0.38-0.694,0.81-0.857,1.34c-0.277,0.906-0.185,1.721,0.277,2.423
		c1.011,1.537,3.492,1.967,4.512,2.08c2.405,0.268,4.845,0.019,7.205-0.22c0.86-0.087,1.717-0.174,2.567-0.235
		c2.66-0.192,6.139-0.314,9.492,0.461c0.608,0.142,1.097,0.289,1.503,0.554c0.414,0.27,0.688,0.654,0.734,1.03
		c0.083,0.678-0.521,1.321-1.113,1.696c-1.396,0.887-2.993,0.952-4.684,1.021l-0.798,0.036c-0.79,0.042-1.579,0.104-2.369,0.167
		c-1.388,0.109-2.811,0.219-4.233,0.215c-1.634-0.009-3.302,0.035-4.923,0.11c-0.053-0.015-0.105-0.028-0.157-0.04
		c-0.06-0.015-0.125-0.019-0.181-0.015l-5.552,0.441c-0.321,0.026-0.561,0.307-0.535,0.627c0.025,0.321,0.307,0.552,0.627,0.535
		c1.751-0.14,3.671-0.279,5.651-0.375c1.016,0.34,2.209,1.234,2.554,2.19c0.405,1.121-0.14,2.52-0.728,3.377
		c-0.623,0.905-1.58,1.598-2.695,1.95c-0.294,0.094-0.465,0.399-0.389,0.698c0.075,0.299,0.366,0.487,0.674,0.43
		c0.945-0.179,1.686-0.042,2.203,0.409c0.585,0.51,0.761,1.311,0.733,1.842c-0.048,0.934-0.535,1.875-1.336,2.584
		c-0.718,0.635-1.666,1.089-2.819,1.351c-0.158,0.036-0.286,0.133-0.365,0.261c-0.078,0.126-0.11,0.281-0.074,0.436
		c0.062,0.271,0.302,0.454,0.567,0.454c0.043,0,0.087-0.005,0.13-0.015c1.347-0.307,2.468-0.85,3.333-1.614
		c0.487-0.432,0.876-0.938,1.167-1.479c0.327-0.608,0.528-1.26,0.562-1.918C27.779,67.496,27.504,66.33,26.605,65.547z"/>
	<path fill="#08243E" d="M17.694,62.651c0.314-0.131,0.612-0.241,0.888-0.256c0.334-0.017,0.592-0.301,0.574-0.635
		c-0.017-0.336-0.346-0.612-0.635-0.575c-0.485,0.024-0.914,0.201-1.292,0.358c-0.326,0.135-0.634,0.259-0.919,0.266
		c-0.334,0.008-0.599,0.279-0.591,0.614C15.728,62.751,15.997,63,16.325,63c0.005,0,0.01,0,0.015,0
		C16.851,63,17.299,62.815,17.694,62.651z"/>
	<path fill="#08243E" d="M19.523,68.334c-0.488,0.087-0.977,0.174-1.467,0.243c-0.331,0.047-0.562,0.354-0.515,0.685
		c0.043,0.303,0.302,0.521,0.599,0.521c0.028,0,0.057-0.002,0.086-0.006c0.504-0.071,1.006-0.16,1.508-0.249
		c0.33-0.059,0.55-0.373,0.491-0.702C20.166,68.495,19.845,68.277,19.523,68.334z"/>
	<path fill="#08243E" d="M14.15,57.17c0.11,0,0.223-0.03,0.323-0.094c0.396-0.251,0.718-0.501,0.985-0.765
		c0.238-0.235,0.241-0.618,0.007-0.856c-0.235-0.237-0.617-0.241-0.856-0.007c-0.206,0.202-0.462,0.4-0.784,0.604
		c-0.282,0.18-0.366,0.554-0.188,0.836C13.753,57.07,13.949,57.17,14.15,57.17z"/>
	<path fill="#FFFFFF" d="M37,41.864c0-2.713,1.76-4.968,4.348-5.414c-1.603-0.376-2.911-1.81-2.911-3.525
		c0-2.002,1.574-3.63,3.576-3.63c2.001,0,3.602,1.628,3.602,3.63c0,1.704-1.201,3.127-2.787,3.515
		C45.193,36.805,47,38.837,47,41.304V43h9V29.5c0-0.276-0.224-0.5-0.5-0.5h-28c-0.276,0-0.5,0.224-0.5,0.5V43h10V41.864z"/>
	<path fill="#FFFFFF" d="M56,44.5V44h-9.446c-0.017,0.002-0.031,0-0.048,0h-9.439c-0.017,0-0.032,0.002-0.048,0H27v0.5
		c0,0.276,0.224,0.5,0.5,0.5h28C55.776,45,56,44.776,56,44.5z"/>
	<path fill="#08243E" d="M57,44.5V44v-1V29.5c0-0.828-0.672-1.5-1.5-1.5h-28c-0.828,0-1.5,0.672-1.5,1.5v15
		c0,0.828,0.672,1.5,1.5,1.5h28C56.328,46,57,45.328,57,44.5z M27,29.5c0-0.276,0.224-0.5,0.5-0.5h28c0.276,0,0.5,0.224,0.5,0.5V43
		h-9v-1.696c0-2.467-1.82-4.499-4.187-4.864c1.586-0.388,2.772-1.811,2.772-3.515c0-2.002-1.627-3.63-3.628-3.63
		c-2.002,0-3.63,1.628-3.63,3.63c0,1.716,1.417,3.149,3.02,3.525C38.76,36.896,37,39.151,37,41.864V43H27V29.5z M41.958,35.554
		c-1.45,0-2.63-1.18-2.63-2.629c0-1.45,1.18-2.63,2.63-2.63c1.449,0,2.629,1.18,2.629,2.63
		C44.587,34.374,43.407,35.554,41.958,35.554z M46,43h-8v-1.136c0-2.481,1.799-4.5,4.28-4.5c2.172,0,3.72,1.768,3.72,3.939V43z
		 M27,44.5V44h10.018c0.017,0.002,0.031,0,0.048,0h9.439c0.017,0,0.032,0.002,0.048,0H56v0.5c0,0.276-0.224,0.5-0.5,0.5h-28
		C27.224,45,27,44.776,27,44.5z"/>
	<path fill="#FFFFFF" d="M41.958,30.295c-1.45,0-2.63,1.18-2.63,2.63c0,1.449,1.18,2.629,2.63,2.629c1.449,0,2.629-1.18,2.629-2.629
		C44.587,31.475,43.407,30.295,41.958,30.295z"/>
	<path fill="#FFFFFF" d="M42.28,37.364c-2.481,0-4.28,2.019-4.28,4.5V43h8v-1.696C46,39.132,44.452,37.364,42.28,37.364z"/>
	<path fill="#F4CD7F" d="M71.523,51H60.618c-0.027,0.075-0.066,0.145-0.129,0.202c-0.096,0.086-0.215,0.128-0.334,0.128
		c-0.137,0-0.273-0.056-0.372-0.166L59.636,51h-7.251c-0.659,0-1.195,0.34-1.195,1s0.536,1,1.195,1h19.139
		c0.659,0,1.196-0.341,1.196-1S72.183,51,71.523,51z"/>
	<path fill="#F4CD7F" d="M69.618,55H50.479c-0.659,0-1.195,0.341-1.195,1s0.536,1,1.195,1h19.139c0.659,0,1.196-0.34,1.196-1
		S70.277,55,69.618,55z"/>
	<path fill="#F4CD7F" d="M65.844,59H46.705c-0.659,0-1.195,0.341-1.195,1s0.536,1,1.195,1h19.139c0.659,0,1.196-0.341,1.196-1
		S66.503,59,65.844,59z"/>
	<path fill="#F4CD7F" d="M61.865,63H42.727c-0.659,0-1.196,0.34-1.196,1s0.537,1,1.196,1h19.139c0.659,0,1.195-0.341,1.195-1
		S62.524,63,61.865,63z"/>
	<path fill="#08243E" d="M26.14,24.775l-2.474-2.759c-0.186-0.207-0.501-0.223-0.706-0.038s-0.223,0.5-0.038,0.706l2.474,2.759
		c0.099,0.11,0.235,0.166,0.372,0.166c0.119,0,0.238-0.042,0.334-0.128C26.307,25.297,26.324,24.981,26.14,24.775z"/>
	<path fill="#08243E" d="M24.408,27.31l-3.7-0.222c-0.3-0.023-0.511,0.155-0.526,0.431c-0.016,0.276,0.196,0.429,0.472,0.444
		l3.7,0.037c0.01,0,0.019,0,0.027,0c0.264,0,0.484-0.051,0.499-0.318C24.896,27.406,24.684,27.325,24.408,27.31z"/>
	<path fill="#08243E" d="M60.155,51.33c0.119,0,0.238-0.042,0.334-0.128c0.063-0.057,0.102-0.128,0.129-0.202
		c0.061-0.168,0.037-0.361-0.091-0.504l-2.475-2.759c-0.185-0.207-0.501-0.224-0.706-0.038c-0.205,0.185-0.223,0.5-0.038,0.706
		L59.636,51l0.147,0.164C59.882,51.274,60.019,51.33,60.155,51.33z"/>
	<path fill="#08243E" d="M59.041,45.824L62.74,46c0.01,0,0.019,0,0.027,0c0.264,0,0.484-0.182,0.499-0.448
		c0.016-0.276-0.196-0.487-0.472-0.502l-3.699-0.204c-0.301-0.021-0.511,0.19-0.526,0.465C58.554,45.587,58.766,45.81,59.041,45.824
		z"/>
	<rect x="29" y="10" fill="#F4CD7F" width="1" height="5"/>
	<path fill="#F4CD7F" d="M31.932,15h3.267c0.301,0,0.559-0.394,0.668-0.655l1.089-2.665C36.989,11.596,37,11.403,37,11.309v-0.726
		c0-0.193-0.07-0.306-0.206-0.442C36.658,10.005,36.48,10,36.288,10h-2.294l0.348-1.73c0.007-0.036,0.011-0.112,0.011-0.152
		c0-0.149-0.062-0.305-0.16-0.403l-0.385-0.39l-2.491,2.384C31.183,9.843,31,10.02,31,10.22v3.63c0,0.193,0.18,0.589,0.316,0.726
		C31.452,14.711,31.74,15,31.932,15z"/>
	<path fill="#F4CD7F" d="M23.19,18.951c1.388,0,1.81-0.925,1.81-0.925v-3.702c0,0-0.422,0.925-1.81,0.925
		c-0.925,0-0.938-0.925-2.326-0.925c-0.694,0-0.864,0.204-1.864,0.407v-0.407c0-0.123-0.015-0.24-0.102-0.327
		c-0.087-0.087-0.188-0.135-0.311-0.135c-0.123,0-0.303,0.049-0.39,0.135S18,14.201,18,14.324V22h1v-3.049
		c0,0,0.476-0.925,1.864-0.925C21.789,18.025,21.802,18.951,23.19,18.951z"/>
</g>
</svg>
