<svg width="96" height="90" viewBox="0 0 96 90" fill="none" xmlns="http://www.w3.org/2000/svg">
<path d="M46 90H33.6977C33.6977 84.1163 28.8837 79.3023 23 79.3023C17.1163 79.3023 12.3023 84.1163 12.3023 90H0C0 77.3411 10.3411 67 23 67C35.6589 67 46 77.3411 46 90Z" fill="#C7EEFB"/>
<path d="M73 23C60.3411 23 50 12.6589 50 0H62.3023C62.3023 5.88372 67.1163 10.6977 73 10.6977C78.8837 10.6977 83.6977 5.88372 83.6977 0H96C96 12.6589 85.6589 23 73 23Z" fill="#C7EEFB"/>
<path d="M23 68C10.3411 68 0 57.6589 0 45C0 32.3411 10.3411 22 23 22C35.6589 22 46 32.3411 46 45C46 57.6589 35.6589 68 23 68ZM23 34.124C17.1163 34.124 12.3023 38.938 12.3023 44.8217C12.3023 50.7054 17.1163 55.5194 23 55.5194C28.8837 55.5194 33.6977 50.7054 33.6977 44.8217C33.6977 38.938 28.8837 34.124 23 34.124Z" fill="#C7EEFB"/>
<path d="M72.5 68C59.5659 68 49 57.6589 49 45C49 32.3411 59.5659 22 72.5 22C85.4341 22 96 32.3411 96 45C96 57.6589 85.4341 68 72.5 68ZM72.5 34.124C66.4884 34.124 61.5698 38.938 61.5698 44.8217C61.5698 50.7054 66.4884 55.5194 72.5 55.5194C78.5116 55.5194 83.4302 50.7054 83.4302 44.8217C83.4302 38.938 78.5116 34.124 72.5 34.124Z" fill="#C7EEFB"/>
</svg>
