<svg id="eP9OveAIk1f1" xmlns="http://www.w3.org/2000/svg" xmlns:xlink="http://www.w3.org/1999/xlink" viewBox="0 0 463.13 445.94" shape-rendering="geometricPrecision" text-rendering="geometricPrecision"><style><![CDATA[#eP9OveAIk1f15_ts {animation: eP9OveAIk1f15_ts__ts 3000ms linear infinite normal forwards}@keyframes eP9OveAIk1f15_ts__ts { 0% {transform: translate(233.450005px,215.169991px) scale(1,1);animation-timing-function: cubic-bezier(0.455,0.03,0.515,0.955)} 16.666667% {transform: translate(233.450005px,215.169991px) scale(1.12383,1.12383);animation-timing-function: cubic-bezier(0.455,0.03,0.515,0.955)} 33.333333% {transform: translate(233.450005px,215.169991px) scale(1,1)} 100% {transform: translate(233.450005px,215.169991px) scale(1,1)}} #eP9OveAIk1f19_ts {animation: eP9OveAIk1f19_ts__ts 3000ms linear infinite normal forwards}@keyframes eP9OveAIk1f19_ts__ts { 0% {transform: translate(120.820004px,44.099998px) scale(1,1)} 16.666667% {transform: translate(120.820004px,44.099998px) scale(1,1);animation-timing-function: cubic-bezier(0.455,0.03,0.515,0.955)} 33.333333% {transform: translate(120.820004px,44.099998px) scale(1.2,1.2);animation-timing-function: cubic-bezier(0.455,0.03,0.515,0.955)} 50% {transform: translate(120.820004px,44.099998px) scale(1,1)} 100% {transform: translate(120.820004px,44.099998px) scale(1,1)}} #eP9OveAIk1f23_ts {animation: eP9OveAIk1f23_ts__ts 3000ms linear infinite normal forwards}@keyframes eP9OveAIk1f23_ts__ts { 0% {transform: translate(32.049999px,188.589996px) scale(1,1)} 43.333333% {transform: translate(32.049999px,188.589996px) scale(1,1);animation-timing-function: cubic-bezier(0.455,0.03,0.515,0.955)} 60% {transform: translate(32.049999px,188.589996px) scale(1.2,1.2);animation-timing-function: cubic-bezier(0.455,0.03,0.515,0.955)} 76.666667% {transform: translate(32.049999px,188.589996px) scale(1,1)} 100% {transform: translate(32.049999px,188.589996px) scale(1,1)}} #eP9OveAIk1f27_ts {animation: eP9OveAIk1f27_ts__ts 3000ms linear infinite normal forwards}@keyframes eP9OveAIk1f27_ts__ts { 0% {transform: translate(95.040001px,365.130005px) scale(1,1)} 26.666667% {transform: translate(95.040001px,365.130005px) scale(1,1);animation-timing-function: cubic-bezier(0.455,0.03,0.515,0.955)} 43.333333% {transform: translate(95.040001px,365.130005px) scale(1.2,1.2);animation-timing-function: cubic-bezier(0.455,0.03,0.515,0.955)} 60% {transform: translate(95.040001px,365.130005px) scale(1,1)} 100% {transform: translate(95.040001px,365.130005px) scale(1,1)}} #eP9OveAIk1f31_ts {animation: eP9OveAIk1f31_ts__ts 3000ms linear infinite normal forwards}@keyframes eP9OveAIk1f31_ts__ts { 0% {transform: translate(323.619995px,32.049999px) scale(1,1)} 33.333333% {transform: translate(323.619995px,32.049999px) scale(1,1);animation-timing-function: cubic-bezier(0.455,0.03,0.515,0.955)} 50% {transform: translate(323.619995px,32.049999px) scale(1.2,1.2);animation-timing-function: cubic-bezier(0.455,0.03,0.515,0.955)} 66.666667% {transform: translate(323.619995px,32.049999px) scale(1,1)} 100% {transform: translate(323.619995px,32.049999px) scale(1,1)}} #eP9OveAIk1f35_ts {animation: eP9OveAIk1f35_ts__ts 3000ms linear infinite normal forwards}@keyframes eP9OveAIk1f35_ts__ts { 0% {transform: translate(277.339996px,413.890015px) scale(1,1)} 33.333333% {transform: translate(277.339996px,413.890015px) scale(1,1);animation-timing-function: cubic-bezier(0.455,0.03,0.515,0.955)} 50% {transform: translate(277.339996px,413.890015px) scale(1.2,1.2);animation-timing-function: cubic-bezier(0.455,0.03,0.515,0.955)} 66.666667% {transform: translate(277.339996px,413.890015px) scale(1,1)} 100% {transform: translate(277.339996px,413.890015px) scale(1,1)}} #eP9OveAIk1f39_ts {animation: eP9OveAIk1f39_ts__ts 3000ms linear infinite normal forwards}@keyframes eP9OveAIk1f39_ts__ts { 0% {transform: translate(431.079987px,157.309998px) scale(1,1)} 33.333333% {transform: translate(431.079987px,157.309998px) scale(1,1);animation-timing-function: cubic-bezier(0.455,0.03,0.515,0.955)} 50% {transform: translate(431.079987px,157.309998px) scale(1.152158,1.152158);animation-timing-function: cubic-bezier(0.455,0.03,0.515,0.955)} 66.666667% {transform: translate(431.079987px,157.309998px) scale(1,1)} 100% {transform: translate(431.079987px,157.309998px) scale(1,1)}} #eP9OveAIk1f43_ts {animation: eP9OveAIk1f43_ts__ts 3000ms linear infinite normal forwards}@keyframes eP9OveAIk1f43_ts__ts { 0% {transform: translate(407.410004px,321.559998px) scale(1,1)} 16.666667% {transform: translate(407.410004px,321.559998px) scale(1,1);animation-timing-function: cubic-bezier(0.455,0.03,0.515,0.955)} 33.333333% {transform: translate(407.410004px,321.559998px) scale(1.2,1.2);animation-timing-function: cubic-bezier(0.455,0.03,0.515,0.955)} 50% {transform: translate(407.410004px,321.559998px) scale(1,1)} 100% {transform: translate(407.410004px,321.559998px) scale(1,1)}} #eP9OveAIk1f46_to {animation: eP9OveAIk1f46_to__to 3000ms linear infinite normal forwards}@keyframes eP9OveAIk1f46_to__to { 0% {offset-distance: 0%} 23.333333% {offset-distance: 25.646868%} 50% {offset-distance: 50.0708%} 76.666667% {offset-distance: 75.028863%} 100% {offset-distance: 100%}} #eP9OveAIk1f46_tr {animation: eP9OveAIk1f46_tr__tr 3000ms linear infinite normal forwards}@keyframes eP9OveAIk1f46_tr__tr { 0% {transform: rotate(45deg)} 23.333333% {transform: rotate(135deg)} 50% {transform: rotate(225.000003deg)} 76.666667% {transform: rotate(315.000003deg)} 100% {transform: rotate(405.000003deg)}}]]></style><g id="eP9OveAIk1f2"><path id="eP9OveAIk1f3" d="" transform="matrix(1 0 0 1 -516.599976 -170.210007)" fill="none" stroke="rgb(194,198,204)" stroke-width="2" stroke-miterlimit="10"/><path id="eP9OveAIk1f4" d="M664.08,198.78C710.436752,177.505995,763.031457,174.160711,811.71,189.39" transform="matrix(1 0 0 1 -516.599976 -170.210007)" fill="none" stroke="rgb(201,197,255)" stroke-width="1" stroke-miterlimit="10"/><path id="eP9OveAIk1f5" d="M552.61,328.55C563.253346,291.623588,584.040657,258.422789,612.61,232.72" transform="matrix(1 0 0 1 -516.599976 -170.210007)" fill="none" stroke="rgb(201,197,255)" stroke-width="1" stroke-miterlimit="10"/><path id="eP9OveAIk1f6" d="M589.39,513.37C561.395977,478.340605,545.693311,435.080093,544.7,390.25" transform="matrix(1 0 0 1 -516.599976 -170.210007)" fill="none" stroke="rgb(201,197,255)" stroke-width="1" stroke-miterlimit="10"/><path id="eP9OveAIk1f7" d="M763.29,590.36Q756.72,590.78,750.05,590.78C709.121349,590.8469,669.114979,578.626215,635.21,555.7" transform="matrix(1 0 0 1 -516.599976 -170.210007)" fill="none" stroke="rgb(201,197,255)" stroke-width="1" stroke-miterlimit="10"/><path id="eP9OveAIk1f8" d="" transform="matrix(1 0 0 1 -516.599976 -170.210007)" fill="none" stroke="rgb(194,198,204)" stroke-width="2" stroke-miterlimit="10"/><path id="eP9OveAIk1f9" d="M907.42,517.39C885.191572,543.888664,856.646887,564.361738,824.42,576.92" transform="matrix(1 0 0 1 -516.599976 -170.210007)" fill="none" stroke="rgb(201,197,255)" stroke-width="1" stroke-miterlimit="10"/><path id="eP9OveAIk1f10" d="M953.67,358.23C958.46337,394.536351,953.517778,431.464365,939.34,465.23" transform="matrix(1 0 0 1 -516.599976 -170.210007)" fill="none" stroke="rgb(201,197,255)" stroke-width="1" stroke-miterlimit="10"/><path id="eP9OveAIk1f11" d="M867.79,217.05C897.3084,237.734834,920.891557,265.793273,936.19,298.43" transform="matrix(1 0 0 1 -516.599976 -170.210007)" fill="none" stroke="rgb(201,197,255)" stroke-width="1" stroke-miterlimit="10"/></g><g id="eP9OveAIk1f12"><circle id="eP9OveAIk1f13" r="62.549999" transform="matrix(1 0 0 1 233.449997 215.169998)" fill="none" stroke="rgb(194,198,204)" stroke-width="1.2" stroke-miterlimit="10"/><circle id="eP9OveAIk1f14" r="62.549999" transform="matrix(2.110472 0 0 2.110472 233.449997 215.169998)" fill="none" stroke="rgb(201,197,255)" stroke-width="0.5" stroke-miterlimit="10"/><g id="eP9OveAIk1f15_ts" transform="translate(233.450005,215.169991) scale(1,1)"><circle id="eP9OveAIk1f15" r="47" transform="translate(-0.000008,0.000007)" fill="rgb(255,214,239)" stroke="none" stroke-width="1"/></g><circle id="eP9OveAIk1f16" r="17.299999" transform="matrix(1 0 0 1 233.449997 206.820007)" fill="none" stroke="rgb(89,90,91)" stroke-width="3" stroke-miterlimit="10"/><path id="eP9OveAIk1f17" d="M720.47,409.84C727.588954,400.742496,738.4982,395.426862,750.05,395.426862C761.6018,395.426862,772.511046,400.742496,779.63,409.84" transform="matrix(1 0 0 1 -516.599976 -170.210007)" fill="none" stroke="rgb(89,90,91)" stroke-width="3" stroke-miterlimit="10"/><circle id="eP9OveAIk1f18" r="31.280001" transform="matrix(1 0 0 1 120.82 44.099998)" fill="none" stroke="rgb(194,198,204)" stroke-width="1.2" stroke-miterlimit="10"/><g id="eP9OveAIk1f19_ts" transform="translate(120.820004,44.099998) scale(1,1)"><circle id="eP9OveAIk1f19" r="23.5" transform="translate(-0.000004,0)" fill="rgb(188,236,250)" stroke="none" stroke-width="1"/></g><circle id="eP9OveAIk1f20" r="8.77" transform="matrix(1 0 0 1 120.82 39.869999)" fill="none" stroke="rgb(89,90,91)" stroke-width="2.13" stroke-miterlimit="10"/><path id="eP9OveAIk1f21" d="M622.41,226.73C626.020762,222.117844,631.552561,219.42319,637.41,219.42319C643.267439,219.42319,648.799238,222.117844,652.41,226.73" transform="matrix(1 0 0 1 -516.599976 -170.210007)" fill="none" stroke="rgb(89,90,91)" stroke-width="2.13" stroke-miterlimit="10"/><circle id="eP9OveAIk1f22" r="31.280001" transform="matrix(1 0 0 1 32.049999 188.589996)" fill="none" stroke="rgb(194,198,204)" stroke-width="1.2" stroke-miterlimit="10"/><g id="eP9OveAIk1f23_ts" transform="translate(32.049999,188.589996) scale(1,1)"><circle id="eP9OveAIk1f23" r="23.5" transform="translate(0,0)" fill="rgb(201,197,255)" stroke="none" stroke-width="1"/></g><circle id="eP9OveAIk1f24" r="8.77" transform="matrix(1 0 0 1 32.049999 183.860001)" fill="none" stroke="rgb(89,90,91)" stroke-width="2.13" stroke-miterlimit="10"/><path id="eP9OveAIk1f25" d="M533.64,370.72C537.239562,366.090101,542.775461,363.381904,548.64,363.381904C554.504539,363.381904,560.040438,366.090101,563.64,370.72" transform="matrix(1 0 0 1 -516.599976 -170.210007)" fill="none" stroke="rgb(89,90,91)" stroke-width="2.13" stroke-miterlimit="10"/><circle id="eP9OveAIk1f26" r="31.280001" transform="matrix(1 0 0 1 95.040001 365.130005)" fill="none" stroke="rgb(194,198,204)" stroke-width="1.2" stroke-miterlimit="10"/><g id="eP9OveAIk1f27_ts" transform="translate(95.040001,365.130005) scale(1,1)"><circle id="eP9OveAIk1f27" r="23.5" transform="translate(0,0)" fill="rgb(188,236,250)" stroke="none" stroke-width="1"/></g><circle id="eP9OveAIk1f28" r="8.77" transform="matrix(1 0 0 1 95.040001 360.179993)" fill="none" stroke="rgb(89,90,91)" stroke-width="2.13" stroke-miterlimit="10"/><path id="eP9OveAIk1f29" d="M596.63,547C600.240762,542.387844,605.772561,539.69319,611.63,539.69319C617.487439,539.69319,623.019238,542.387844,626.63,547" transform="matrix(1 0 0 1 -516.599976 -170.210007)" fill="none" stroke="rgb(89,90,91)" stroke-width="2.13" stroke-miterlimit="10"/><circle id="eP9OveAIk1f30" r="31.280001" transform="matrix(1 0 0 1 323.619995 32.049999)" fill="none" stroke="rgb(194,198,204)" stroke-width="1.2" stroke-miterlimit="10"/><g id="eP9OveAIk1f31_ts" transform="translate(323.619995,32.049999) scale(1,1)"><circle id="eP9OveAIk1f31" r="23.5" transform="translate(0,0)" fill="rgb(255,215,179)" stroke="none" stroke-width="1"/></g><circle id="eP9OveAIk1f32" r="8.77" transform="matrix(1 0 0 1 323.619995 28.110001)" fill="none" stroke="rgb(89,90,91)" stroke-width="2.13" stroke-miterlimit="10"/><path id="eP9OveAIk1f33" d="M825.22,215C828.830762,210.387844,834.362561,207.69319,840.22,207.69319C846.077439,207.69319,851.609238,210.387844,855.22,215" transform="matrix(1 0 0 1 -516.599976 -170.210007)" fill="none" stroke="rgb(89,90,91)" stroke-width="2.13" stroke-miterlimit="10"/><circle id="eP9OveAIk1f34" r="31.280001" transform="matrix(1 0 0 1 277.339996 413.890015)" fill="none" stroke="rgb(194,198,204)" stroke-width="1.2" stroke-miterlimit="10"/><g id="eP9OveAIk1f35_ts" transform="translate(277.339996,413.890015) scale(1,1)"><circle id="eP9OveAIk1f35" r="23.5" transform="translate(0,0)" fill="rgb(201,197,255)" stroke="none" stroke-width="1"/></g><circle id="eP9OveAIk1f36" r="8.77" transform="matrix(1 0 0 1 277.5 409.959991)" fill="none" stroke="rgb(89,90,91)" stroke-width="2.13" stroke-miterlimit="10"/><path id="eP9OveAIk1f37" d="M779.09,596.81C782.700762,592.197844,788.232561,589.50319,794.09,589.50319C799.947439,589.50319,805.479238,592.197844,809.09,596.81" transform="matrix(1 0 0 1 -516.599976 -170.210007)" fill="none" stroke="rgb(89,90,91)" stroke-width="2.13" stroke-miterlimit="10"/><circle id="eP9OveAIk1f38" r="31.280001" transform="matrix(1 0 0 1 431.079987 157.309998)" fill="none" stroke="rgb(194,198,204)" stroke-width="1.2" stroke-miterlimit="10"/><g id="eP9OveAIk1f39_ts" transform="translate(431.079987,157.309998) scale(1,1)"><circle id="eP9OveAIk1f39" r="23.5" transform="translate(0,0)" fill="rgb(188,236,250)" stroke="none" stroke-width="1"/></g><circle id="eP9OveAIk1f40" r="8.77" transform="matrix(1 0 0 1 431.079987 153.380005)" fill="none" stroke="rgb(89,90,91)" stroke-width="2.13" stroke-miterlimit="10"/><path id="eP9OveAIk1f41" d="M932.67,340.24C936.269562,335.610101,941.805461,332.901904,947.67,332.901904C953.534539,332.901904,959.070438,335.610101,962.67,340.24" transform="matrix(1 0 0 1 -516.599976 -170.210007)" fill="none" stroke="rgb(89,90,91)" stroke-width="2.13" stroke-miterlimit="10"/><circle id="eP9OveAIk1f42" r="31.280001" transform="matrix(1 0 0 1 407.410004 321.559998)" fill="none" stroke="rgb(194,198,204)" stroke-width="1.2" stroke-miterlimit="10"/><g id="eP9OveAIk1f43_ts" transform="translate(407.410004,321.559998) scale(1,1)"><circle id="eP9OveAIk1f43" r="23.5" transform="translate(0,0)" fill="rgb(255,215,179)" stroke="none" stroke-width="1"/></g><circle id="eP9OveAIk1f44" r="8.77" transform="matrix(1 0 0 1 407.410004 316.480011)" fill="none" stroke="rgb(89,90,91)" stroke-width="2.13" stroke-miterlimit="10"/><path id="eP9OveAIk1f45" d="M909,503.34C912.599562,498.710101,918.135461,496.001904,924,496.001904C929.864539,496.001904,935.400438,498.710101,939,503.34" transform="matrix(1 0 0 1 -516.599976 -170.210007)" fill="none" stroke="rgb(89,90,91)" stroke-width="2.13" stroke-miterlimit="10"/></g><g id="eP9OveAIk1f46_to" style="offset-path:path('M233.450021,83.159974C312.781707,81.653639,371.017895,155.277255,365.226442,219.869994Q351.695126,337.912039,233.450027,347.17999Q115.187245,338.801814,100.976802,215.170001Q114.159344,91.701381,233.450021,83.529996');offset-rotate:0deg"><g id="eP9OveAIk1f46_tr" transform="rotate(45)"><g id="eP9OveAIk1f46" transform="scale(0.589933,0.589933) translate(-244.870018,-52.433517)" opacity="0"><line id="eP9OveAIk1f47" x1="-12.382485" y1="0" x2="12.382486" y2="0" transform="matrix(0 0.97315 1 0 244.381542 64.483532)" fill="none" stroke="rgb(201,197,255)" stroke-width="2.4"/><line id="eP9OveAIk1f48" x1="-12.382485" y1="0" x2="12.382486" y2="0" transform="matrix(-0.97315 0 0 1 232.820002 52.921991)" fill="none" stroke="rgb(201,197,255)" stroke-width="2.4"/></g></g></g></svg>